{"glyphs":{"0":{"ha":817,"x_min":74,"x_max":743,"o":"m 407 -19 q 558 3 496 -19 q 657 64 621 26 q 713 167 693 101 q 738 299 732 233 q 743 465 743 365 q 738 631 743 565 q 713 762 732 696 q 657 865 693 828 q 558 925 621 901 q 407 949 496 949 q 256 925 318 949 q 159 865 194 901 q 104 762 124 828 q 79 630 85 696 q 74 465 74 564 q 78 325 74 382 q 93 208 82 268 q 127 110 104 149 q 186 41 150 72 q 278 -5 222 10 q 407 -19 333 -19 m 407 93 q 321 108 356 93 q 265 151 286 124 q 233 227 244 178 q 219 329 222 276 q 215 465 215 382 q 251 754 215 672 q 407 836 286 836 q 494 821 458 836 q 551 779 529 806 q 583 703 572 753 q 598 601 594 653 q 601 465 601 549 q 598 329 601 382 q 583 226 594 276 q 551 150 572 176 q 494 108 529 124 q 407 93 458 93 z "},"1":{"ha":817,"x_min":174,"x_max":696,"o":"m 175 775 l 363 775 l 363 113 l 174 113 l 174 0 l 696 0 l 696 113 l 506 113 l 506 931 l 396 931 q 175 861 319 876 l 175 775 z "},"2":{"ha":817,"x_min":94,"x_max":718,"o":"m 286 113 l 556 404 q 667 552 628 485 q 706 694 706 619 q 411 950 706 950 q 177 878 246 950 q 108 664 108 807 l 233 664 q 269 794 233 751 q 403 836 304 836 q 565 696 565 836 q 537 597 565 642 q 443 485 508 553 l 94 104 l 94 0 l 718 0 l 718 113 l 286 113 z "},"3":{"ha":817,"x_min":93,"x_max":733,"o":"m 733 238 q 579 465 733 404 q 721 675 721 531 q 411 950 721 950 q 181 879 250 950 q 111 664 111 808 l 235 664 q 274 792 235 749 q 403 836 314 836 q 539 795 499 836 q 579 676 579 754 q 538 558 579 601 q 408 514 496 514 l 275 514 l 275 408 l 407 408 q 592 243 592 408 q 547 131 592 168 q 403 94 503 94 q 260 137 303 94 q 217 265 217 179 l 93 265 q 165 50 93 119 q 410 -19 236 -19 q 652 49 571 -19 q 733 238 733 117 z "},"4":{"ha":811,"x_min":33,"x_max":735,"o":"m 629 0 l 629 189 l 735 189 l 735 303 l 629 303 l 629 931 l 413 931 l 33 296 l 33 189 l 489 189 l 489 0 l 629 0 m 193 303 l 489 800 l 489 303 l 193 303 z "},"5":{"ha":817,"x_min":110,"x_max":735,"o":"m 128 456 l 283 456 q 527 413 461 456 q 593 272 593 371 q 553 137 593 181 q 411 93 513 93 q 272 142 310 93 q 233 288 233 190 l 110 288 q 178 58 110 135 q 411 -19 246 -19 q 660 54 586 -19 q 735 272 735 128 q 637 504 735 436 q 318 572 539 572 l 261 572 l 278 818 l 679 818 l 679 931 l 158 931 l 128 456 z "},"6":{"ha":817,"x_min":74,"x_max":731,"o":"m 731 281 q 422 544 731 544 q 214 515 319 544 q 219 630 215 585 q 235 718 224 675 q 267 785 246 761 q 324 823 289 808 q 408 838 358 838 q 548 794 507 838 q 589 658 589 751 l 713 658 q 642 880 711 810 q 407 950 574 950 q 261 928 321 950 q 165 865 201 906 q 108 754 128 825 q 81 603 88 683 q 74 401 74 522 q 144 80 74 179 q 411 -19 214 -19 q 656 57 583 -19 q 731 281 729 133 m 399 438 q 547 394 501 438 q 592 281 592 351 q 551 140 592 188 q 408 93 511 93 q 257 158 297 93 q 214 411 217 222 q 399 438 306 438 z "},"7":{"ha":817,"x_min":113,"x_max":733,"o":"m 113 674 l 214 674 l 214 818 l 579 818 l 222 0 l 375 0 l 733 831 l 733 931 l 113 931 l 113 674 z "},"8":{"ha":817,"x_min":81,"x_max":736,"o":"m 93 681 q 166 881 93 811 q 408 950 239 950 q 651 881 578 950 q 724 681 724 811 q 597 472 724 532 q 736 239 736 413 q 408 -19 736 -19 q 81 239 81 -19 q 217 463 81 403 q 93 681 93 522 m 222 242 q 265 130 222 168 q 407 92 308 92 q 594 242 594 92 q 564 358 594 319 q 457 410 533 397 l 363 424 q 222 242 222 397 m 582 674 q 544 797 582 756 q 408 839 506 839 q 272 797 310 839 q 235 674 235 756 q 265 568 235 603 q 372 521 294 533 l 447 510 q 582 674 582 536 z "},"9":{"ha":817,"x_min":75,"x_max":733,"o":"m 75 651 q 388 378 75 378 q 590 404 496 378 q 547 157 586 221 q 397 93 508 93 q 257 138 299 93 q 215 272 215 183 l 92 272 q 164 53 93 125 q 400 -19 235 -19 q 547 2 488 -19 q 644 61 607 24 q 701 167 681 99 q 727 309 721 235 q 733 497 733 383 q 726 663 733 596 q 698 789 718 731 q 642 881 678 847 q 548 932 606 914 q 408 950 490 950 q 156 874 235 950 q 75 651 78 797 m 414 486 q 263 534 310 486 q 217 654 217 582 q 261 791 217 744 q 408 838 306 838 q 554 770 519 838 q 592 510 589 703 q 414 486 501 486 z "},"\f":{"ha":0,"x_min":0,"x_max":0,"o":""}," ":{"ha":371,"x_min":0,"x_max":0,"o":""},"!":{"ha":438,"x_min":136,"x_max":303,"o":"m 218 -11 q 163 5 182 -11 q 140 39 144 21 q 136 86 136 57 q 140 133 136 115 q 163 167 144 151 q 218 183 182 183 q 287 157 271 183 q 303 86 303 131 q 299 39 303 57 q 275 5 294 21 q 218 -11 256 -11 m 140 1014 l 140 778 l 175 274 l 261 274 l 296 778 l 296 1014 l 140 1014 z "},"\"":{"ha":578,"x_min":94,"x_max":482,"o":"m 339 1014 l 339 892 l 369 665 l 451 665 l 482 892 l 482 1014 l 339 1014 m 94 1014 l 94 892 l 125 665 l 208 665 l 239 892 l 239 1014 l 94 1014 z "},"#":{"ha":1128,"x_min":78,"x_max":1050,"o":"m 599 -147 l 740 -147 l 801 192 l 954 192 l 974 306 l 822 306 l 881 624 l 1031 624 l 1050 738 l 901 738 l 963 1076 l 821 1076 l 760 738 l 471 738 l 532 1076 l 390 1076 l 329 738 l 175 738 l 154 624 l 308 624 l 250 306 l 97 306 l 78 192 l 229 192 l 168 -147 l 310 -147 l 371 192 l 660 192 l 599 -147 m 450 624 l 739 624 l 681 306 l 392 306 l 450 624 z "},"$":{"ha":817,"x_min":90,"x_max":738,"o":"m 363 -103 l 458 -103 l 458 -18 q 738 251 738 0 q 676 433 738 368 q 483 518 615 499 l 458 521 l 458 833 q 563 785 532 825 q 594 669 594 744 l 719 679 q 658 872 719 804 q 458 949 597 939 l 458 1033 l 363 1033 l 363 949 q 161 870 222 939 q 100 676 100 801 q 157 495 100 560 q 339 413 214 431 l 363 408 l 363 93 q 248 144 282 101 q 214 263 214 188 l 90 254 q 153 60 90 128 q 363 -18 215 -8 l 363 -103 m 460 394 q 597 251 597 372 q 566 142 597 181 q 458 94 535 103 l 458 394 l 460 394 m 240 676 q 267 783 240 744 q 363 832 294 821 l 363 536 l 361 536 q 240 676 240 553 z "},"%":{"ha":1371,"x_min":89,"x_max":1278,"o":"m 469 -92 l 564 -92 l 863 1021 l 767 1021 l 469 -92 m 1067 -11 q 1180 8 1136 -11 q 1244 69 1224 26 q 1272 158 1265 111 q 1278 282 1278 204 q 1272 405 1278 358 q 1244 494 1265 451 q 1180 555 1224 536 q 1067 574 1136 574 q 953 555 997 574 q 888 494 910 536 q 860 405 867 451 q 854 282 854 358 q 860 158 854 206 q 888 69 867 111 q 953 8 910 26 q 1067 -11 997 -11 m 1067 74 q 983 118 1001 74 q 965 282 965 163 q 983 445 965 401 q 1067 489 1001 489 q 1149 444 1131 489 q 1168 282 1168 400 q 1149 118 1168 163 q 1067 74 1131 74 m 301 364 q 415 383 371 364 q 479 444 458 401 q 506 533 500 486 q 513 657 513 579 q 506 780 513 733 q 479 869 500 826 q 415 930 458 911 q 301 949 371 949 q 188 930 232 949 q 123 869 144 911 q 95 780 101 826 q 89 657 89 733 q 95 533 89 581 q 123 444 101 486 q 188 383 144 401 q 301 364 232 364 m 301 449 q 218 493 236 449 q 200 657 200 538 q 218 820 200 776 q 301 864 236 864 q 384 819 365 864 q 403 657 403 775 q 384 493 403 538 q 301 449 365 449 z "},"&":{"ha":863,"x_min":71,"x_max":863,"o":"m 71 256 q 232 503 71 442 q 97 722 97 569 q 385 986 97 986 q 601 915 536 986 q 665 700 665 844 l 540 700 q 506 829 540 786 q 393 872 472 872 q 273 831 308 872 q 238 713 238 790 q 281 592 238 638 q 410 547 324 547 l 863 547 l 863 442 l 711 442 l 711 265 q 642 49 711 117 q 393 -19 574 -19 q 71 256 71 -19 m 211 260 q 256 135 211 176 q 401 94 300 94 q 544 137 501 94 q 586 265 586 179 l 586 442 l 397 442 q 211 260 211 442 z "},"'":{"ha":333,"x_min":94,"x_max":239,"o":"m 94 1014 l 94 892 l 125 665 l 208 665 l 239 892 l 239 1014 l 94 1014 z "},"(":{"ha":435,"x_min":76,"x_max":421,"o":"m 421 -92 q 288 -76 344 -92 q 194 -24 232 -60 q 133 55 157 11 q 97 167 110 99 q 81 302 85 235 q 76 465 76 369 q 83 657 76 581 q 109 808 89 733 q 166 926 129 883 q 267 994 203 968 q 421 1021 331 1021 l 421 913 q 333 892 369 913 q 276 837 297 871 q 244 742 256 803 q 230 620 233 682 q 226 465 226 558 q 230 310 226 371 q 244 188 233 249 q 276 92 256 126 q 333 38 297 58 q 421 17 369 17 l 421 -92 z "},")":{"ha":435,"x_min":15,"x_max":358,"o":"m 15 1021 q 169 995 106 1021 q 269 927 232 969 q 326 810 306 885 q 352 658 346 735 q 358 464 358 581 q 352 272 358 349 q 326 121 346 196 q 269 3 306 46 q 169 -65 232 -39 q 15 -92 106 -92 l 15 17 q 103 38 67 17 q 159 92 139 58 q 190 188 179 126 q 205 309 201 249 q 208 464 208 369 q 206 595 208 542 q 197 704 204 649 q 177 794 190 760 q 143 858 164 829 q 90 899 122 886 q 15 913 58 913 l 15 1021 z "},"*":{"ha":781,"x_min":40,"x_max":740,"o":"m 318 1082 l 318 961 l 368 801 l 413 801 l 463 961 l 463 1082 l 318 1082 m 40 781 l 156 742 l 322 736 l 336 778 l 199 869 l 83 907 l 40 781 m 243 417 l 315 517 l 369 672 l 335 699 l 203 600 l 132 499 l 243 417 m 649 499 l 578 600 l 446 697 l 410 672 l 465 517 l 538 417 l 649 499 m 697 907 l 582 869 l 446 778 l 458 735 l 625 742 l 740 781 l 697 907 z "},"+":{"ha":817,"x_min":131,"x_max":686,"o":"m 131 389 l 356 389 l 356 164 l 461 164 l 461 389 l 686 389 l 686 494 l 461 494 l 461 719 l 356 719 l 356 494 l 131 494 l 131 389 z "},",":{"ha":325,"x_min":46,"x_max":243,"o":"m 82 86 q 93 27 82 63 q 104 -22 104 -8 q 90 -81 104 -58 q 46 -132 75 -104 l 85 -179 q 243 86 243 -54 q 239 133 243 115 q 216 167 235 151 q 161 183 197 183 q 108 167 126 183 q 86 133 90 151 q 82 86 82 115 z "},"-":{"ha":683,"x_min":97,"x_max":586,"o":"m 97 389 l 586 389 l 586 494 l 97 494 l 97 389 z "},".":{"ha":331,"x_min":82,"x_max":249,"o":"m 164 -11 q 233 15 217 -11 q 249 86 249 42 q 244 133 249 115 q 221 167 240 151 q 164 183 201 183 q 109 167 128 183 q 86 133 90 151 q 82 86 82 115 q 86 39 82 57 q 109 5 90 21 q 164 -11 128 -11 z "},"/":{"ha":471,"x_min":0,"x_max":471,"o":"m 0 -147 l 142 -147 l 471 1076 l 329 1076 l 0 -147 z "},":":{"ha":331,"x_min":82,"x_max":249,"o":"m 164 -11 q 233 15 217 -11 q 249 86 249 42 q 244 133 249 115 q 221 167 240 151 q 164 183 201 183 q 109 167 128 183 q 86 133 90 151 q 82 86 82 115 q 86 39 82 57 q 109 5 90 21 q 164 -11 128 -11 m 164 557 q 233 583 217 557 q 249 654 249 610 q 244 701 249 683 q 221 735 240 719 q 164 751 201 751 q 109 735 128 751 q 86 701 90 719 q 82 654 82 683 q 86 607 82 625 q 109 573 90 589 q 164 557 128 557 z "},";":{"ha":325,"x_min":46,"x_max":246,"o":"m 82 86 q 93 27 82 63 q 104 -22 104 -8 q 90 -81 104 -58 q 46 -132 75 -104 l 85 -179 q 243 86 243 -54 q 239 133 243 115 q 216 167 235 151 q 161 183 197 183 q 108 167 126 183 q 86 133 90 151 q 82 86 82 115 m 161 557 q 230 583 214 557 q 246 654 246 610 q 242 701 246 683 q 218 735 238 719 q 161 751 199 751 q 106 735 125 751 q 83 701 88 719 q 79 654 79 683 q 83 607 79 625 q 106 573 88 589 q 161 557 125 557 z "},"<":{"ha":817,"x_min":129,"x_max":688,"o":"m 129 374 l 688 138 l 688 254 l 228 440 l 688 626 l 688 743 l 129 507 l 129 374 z "},"=":{"ha":817,"x_min":131,"x_max":686,"o":"m 131 533 l 686 533 l 686 639 l 131 639 l 131 533 m 131 244 l 686 244 l 686 350 l 131 350 l 131 244 z "},">":{"ha":817,"x_min":129,"x_max":688,"o":"m 688 507 l 129 743 l 129 626 l 588 440 l 129 254 l 129 138 l 688 374 l 688 507 z "},"?":{"ha":672,"x_min":47,"x_max":639,"o":"m 306 -11 q 251 5 269 -11 q 228 39 232 21 q 224 86 224 57 q 228 133 224 115 q 251 167 232 151 q 306 183 269 183 q 363 167 343 183 q 385 133 382 150 q 389 86 389 115 q 385 40 389 57 q 363 6 382 22 q 306 -11 343 -11 m 385 457 q 577 536 515 476 q 639 743 639 596 q 568 960 639 886 q 332 1033 497 1033 q 115 967 182 1033 q 47 772 47 900 l 168 772 q 206 884 168 846 q 332 922 243 922 q 463 875 425 922 q 500 740 500 828 q 454 597 500 638 q 318 544 408 556 l 249 536 l 261 274 l 350 274 l 365 454 l 385 457 z "},"@":{"ha":1404,"x_min":119,"x_max":1285,"o":"m 817 -137 q 1044 -83 951 -126 q 1188 40 1136 -39 q 1263 217 1240 118 q 1285 456 1285 317 q 1258 716 1285 610 q 1165 900 1231 822 q 986 1015 1100 978 q 703 1051 872 1051 q 418 1015 532 1051 q 239 900 304 978 q 147 716 174 822 q 119 456 119 610 q 147 195 119 301 q 239 11 174 89 q 418 -103 304 -67 q 703 -140 532 -140 l 703 -36 q 511 -15 590 -36 q 382 42 432 6 q 303 142 332 79 q 265 278 275 206 q 254 456 254 351 q 265 633 254 560 q 303 769 275 706 q 382 869 332 832 q 511 926 432 906 q 703 947 590 947 q 893 926 814 947 q 1022 869 972 906 q 1101 769 1072 832 q 1140 633 1129 706 q 1150 456 1150 560 q 1106 139 1150 250 q 942 -10 1063 28 l 942 615 q 703 814 942 814 q 519 763 571 814 q 460 610 467 711 l 574 606 q 603 685 578 661 q 699 710 629 710 q 814 622 814 710 l 814 532 l 632 521 q 475 467 518 513 q 432 326 432 422 q 475 192 432 238 q 619 147 518 147 q 817 215 731 147 l 817 -137 m 656 242 q 580 265 603 242 q 557 333 557 288 q 579 414 557 392 q 661 440 601 436 l 814 450 l 814 313 q 656 242 743 242 z "},"A":{"ha":929,"x_min":4,"x_max":925,"o":"m 369 1014 l 68 94 l 4 94 l 4 0 l 292 0 l 292 94 l 208 94 l 278 311 l 649 311 l 719 94 l 636 94 l 636 0 l 925 0 l 925 94 l 860 94 l 558 1014 l 369 1014 m 464 885 l 614 424 l 315 424 l 464 885 z "},"B":{"ha":896,"x_min":92,"x_max":831,"o":"m 517 0 q 682 21 617 0 q 778 83 747 42 q 820 167 810 125 q 831 271 831 210 q 824 356 831 319 q 799 427 818 392 q 743 488 781 463 q 649 525 706 513 q 753 612 726 554 q 781 754 781 669 q 770 853 781 813 q 728 933 760 893 q 632 994 697 974 q 467 1014 567 1014 l 92 1014 l 92 919 l 175 919 l 175 94 l 92 94 l 92 0 l 517 0 m 318 113 l 318 461 l 513 461 q 651 417 615 461 q 688 285 688 374 q 651 156 688 199 q 513 113 614 113 l 318 113 m 318 575 l 318 901 l 464 901 q 601 861 565 901 q 638 738 638 821 q 601 615 638 656 q 464 575 565 575 l 318 575 z "},"C":{"ha":871,"x_min":72,"x_max":797,"o":"m 694 1014 l 694 926 q 456 1033 621 1033 q 289 1010 358 1033 q 178 946 219 986 q 113 836 136 906 q 81 691 89 767 q 72 507 72 615 q 76 373 72 429 q 89 258 79 317 q 117 160 99 200 q 165 83 135 119 q 236 26 194 47 q 336 -7 278 6 q 469 -19 394 -19 q 631 3 567 -19 q 728 75 694 26 q 777 178 763 124 q 797 315 792 232 l 681 321 q 632 155 676 213 q 469 97 588 97 q 352 116 400 97 q 277 164 304 135 q 236 250 250 193 q 219 361 222 307 q 215 507 215 415 q 220 652 215 593 q 240 765 225 711 q 283 851 256 819 q 355 901 310 882 q 464 919 400 919 q 635 863 581 919 q 696 686 689 806 l 797 686 l 797 1014 l 694 1014 z "},"D":{"ha":967,"x_min":92,"x_max":894,"o":"m 318 1014 l 92 1014 l 92 919 l 175 919 l 175 94 l 92 94 l 92 0 l 493 0 q 674 24 600 0 q 790 86 747 47 q 857 193 833 125 q 888 331 881 261 q 894 507 894 401 q 891 634 894 581 q 878 744 888 688 q 850 839 868 800 q 802 913 832 878 q 731 969 772 949 q 629 1001 689 989 q 493 1014 569 1014 l 318 1014 m 481 901 q 601 883 551 901 q 681 833 651 864 q 725 749 710 803 q 745 642 740 696 q 750 507 750 589 q 745 372 750 425 q 725 265 740 318 q 681 181 710 211 q 601 131 651 150 q 481 113 551 113 l 318 113 l 318 901 l 481 901 z "},"E":{"ha":883,"x_min":92,"x_max":804,"o":"m 92 0 l 804 0 l 804 246 l 700 246 l 700 113 l 318 113 l 318 458 l 688 458 l 688 572 l 318 572 l 318 901 l 672 901 l 672 772 l 776 772 l 776 1014 l 92 1014 l 92 919 l 175 919 l 175 94 l 92 94 l 92 0 z "},"F":{"ha":794,"x_min":92,"x_max":749,"o":"m 92 919 l 175 919 l 175 901 l 175 96 l 92 96 l 92 0 l 429 0 l 429 96 l 318 96 l 318 458 l 660 458 l 660 572 l 318 572 l 318 901 l 644 901 l 644 772 l 749 772 l 749 1014 l 92 1014 l 92 919 z "},"G":{"ha":946,"x_min":72,"x_max":813,"o":"m 531 418 l 688 418 l 688 294 q 626 147 679 197 q 461 97 574 97 q 364 108 404 97 q 297 145 324 119 q 253 201 269 171 q 228 283 236 232 q 218 383 221 335 q 215 507 215 432 q 219 649 215 593 q 239 762 224 706 q 282 849 254 818 q 358 900 310 881 q 475 919 406 919 q 643 860 594 919 q 700 686 692 801 l 803 686 l 803 1014 l 699 1014 l 699 925 q 468 1033 632 1033 q 295 1009 367 1033 q 180 944 224 985 q 113 833 136 903 q 81 690 89 764 q 72 507 72 615 q 76 353 72 415 q 94 226 81 292 q 133 120 107 161 q 200 45 158 79 q 305 -4 242 11 q 454 -19 368 -19 q 715 103 633 -19 l 738 0 l 813 0 l 813 513 l 531 513 l 531 418 z "},"H":{"ha":1076,"x_min":92,"x_max":985,"o":"m 675 0 l 985 0 l 985 94 l 901 94 l 901 919 l 985 919 l 985 1014 l 675 1014 l 675 919 l 758 919 l 758 564 l 318 564 l 318 919 l 401 919 l 401 1014 l 92 1014 l 92 919 l 175 919 l 175 94 l 92 94 l 92 0 l 401 0 l 401 94 l 318 94 l 318 450 l 758 450 l 758 94 l 675 94 l 675 0 z "},"I":{"ha":511,"x_min":92,"x_max":418,"o":"m 92 919 l 183 919 l 183 94 l 92 94 l 92 0 l 418 0 l 418 94 l 326 94 l 326 919 l 418 919 l 418 1014 l 92 1014 l 92 919 z "},"J":{"ha":679,"x_min":22,"x_max":624,"o":"m 286 919 l 397 919 l 397 254 q 372 131 397 164 q 274 97 347 97 q 173 135 200 97 q 146 271 146 174 l 22 271 q 24 193 22 222 q 33 126 26 164 q 56 65 40 88 q 99 22 72 43 q 169 -10 126 0 q 271 -19 213 -19 q 394 -4 343 -19 q 473 33 444 11 q 517 94 501 56 q 536 168 532 133 q 540 254 540 203 l 540 919 l 624 919 l 624 1014 l 286 1014 l 286 919 z "},"K":{"ha":917,"x_min":92,"x_max":889,"o":"m 588 0 l 889 0 l 889 94 l 811 94 l 536 511 l 793 919 l 869 919 l 869 1014 l 568 1014 l 568 919 l 643 919 l 428 569 l 318 569 l 318 919 l 390 919 l 390 1014 l 92 1014 l 92 919 l 175 919 l 175 94 l 92 94 l 92 0 l 396 0 l 396 94 l 318 94 l 318 458 l 419 458 l 657 94 l 588 94 l 588 0 z "},"L":{"ha":731,"x_min":92,"x_max":717,"o":"m 92 919 l 175 919 l 175 94 l 92 94 l 92 0 l 717 0 l 717 246 l 613 246 l 613 113 l 318 113 l 318 919 l 429 919 l 429 1014 l 92 1014 l 92 919 z "},"M":{"ha":1288,"x_min":92,"x_max":1196,"o":"m 892 0 l 1196 0 l 1196 94 l 1113 94 l 1113 919 l 1196 919 l 1196 1014 l 911 1014 l 635 275 l 378 1014 l 92 1014 l 92 919 l 175 919 l 175 94 l 92 94 l 92 0 l 396 0 l 396 94 l 318 94 l 318 796 l 567 100 l 700 100 l 969 808 l 969 94 l 892 94 l 892 0 z "},"N":{"ha":1096,"x_min":92,"x_max":1018,"o":"m 708 919 l 792 919 l 792 239 l 329 1014 l 92 1014 l 92 919 l 175 919 l 175 94 l 92 94 l 92 0 l 401 0 l 401 94 l 318 94 l 318 774 l 781 0 l 935 0 l 935 919 l 1018 919 l 1018 1014 l 708 1014 l 708 919 z "},"O":{"ha":951,"x_min":72,"x_max":879,"o":"m 475 -19 q 631 -4 564 -19 q 741 44 697 11 q 813 119 785 78 q 855 225 840 161 q 874 353 869 289 q 879 507 879 417 q 872 689 879 617 q 842 832 865 761 q 774 943 818 903 q 656 1008 731 983 q 475 1033 582 1033 q 338 1021 399 1033 q 235 987 278 1008 q 163 928 193 965 q 116 852 133 892 q 89 753 99 813 q 76 640 79 694 q 72 507 72 585 q 79 324 72 396 q 110 181 86 253 q 176 69 133 110 q 294 5 219 29 q 475 -19 368 -19 m 475 97 q 358 117 406 97 q 282 167 310 136 q 239 254 254 199 q 219 365 224 310 q 215 507 215 421 q 219 649 215 593 q 239 760 224 704 q 282 847 254 815 q 358 897 310 878 q 475 917 406 917 q 592 897 543 917 q 668 847 640 878 q 711 760 696 815 q 731 648 726 704 q 736 507 736 592 q 731 366 736 422 q 711 254 726 310 q 668 167 696 199 q 592 117 640 136 q 475 97 543 97 z "},"P":{"ha":849,"x_min":92,"x_max":794,"o":"m 485 371 q 649 397 583 371 q 744 471 714 422 q 784 570 774 519 q 794 692 794 621 q 784 814 794 764 q 744 913 774 864 q 649 988 714 963 q 485 1014 583 1014 l 175 1014 l 92 1014 l 92 919 l 175 919 l 175 94 l 92 94 l 92 0 l 429 0 l 429 94 l 318 94 l 318 371 l 485 371 m 318 483 l 318 901 l 471 901 q 617 850 583 901 q 651 692 651 799 q 646 606 651 639 q 622 543 640 574 q 567 498 604 513 q 471 483 529 483 l 318 483 z "},"Q":{"ha":938,"x_min":72,"x_max":865,"o":"m 532 -250 l 674 -250 l 556 -14 q 694 24 638 -6 q 785 95 751 54 q 836 204 818 136 q 860 340 854 272 q 865 507 865 407 q 858 689 865 617 q 828 832 851 761 q 763 943 806 903 q 647 1008 719 983 q 468 1033 574 1033 q 290 1008 363 1033 q 174 943 217 983 q 109 831 132 903 q 79 688 86 760 q 72 507 72 617 q 78 333 72 403 q 104 194 85 264 q 160 84 124 125 q 260 15 197 43 q 414 -18 324 -12 l 532 -250 m 468 97 q 355 117 401 97 q 281 167 308 136 q 239 254 254 199 q 219 366 224 310 q 215 507 215 422 q 219 648 215 592 q 239 760 224 704 q 281 847 254 815 q 355 897 308 878 q 468 917 401 917 q 582 897 535 917 q 656 847 629 878 q 699 760 683 815 q 718 648 714 704 q 722 507 722 592 q 718 366 722 422 q 699 254 714 310 q 656 167 683 199 q 582 117 629 136 q 468 97 535 97 z "},"R":{"ha":932,"x_min":92,"x_max":896,"o":"m 92 919 l 175 919 l 175 94 l 92 94 l 92 0 l 396 0 l 396 94 l 318 94 l 318 413 l 424 413 q 507 393 478 410 q 557 329 536 376 l 697 0 l 896 0 l 896 94 l 808 94 l 700 346 q 643 431 675 403 q 731 475 696 447 q 781 543 765 503 q 803 622 797 583 q 808 713 808 660 q 803 805 808 767 q 780 885 799 843 q 728 953 761 928 q 636 997 696 979 q 494 1014 576 1014 l 175 1014 l 92 1014 l 92 919 m 318 525 l 318 901 l 492 901 q 632 853 599 901 q 665 713 665 806 q 660 638 665 668 q 638 581 654 608 q 584 539 621 553 q 492 525 547 525 l 318 525 z "},"S":{"ha":832,"x_min":67,"x_max":767,"o":"m 169 0 l 169 100 q 443 -19 254 -19 q 691 55 615 -19 q 767 274 767 129 q 706 467 767 407 q 497 558 646 528 l 385 581 q 252 634 283 601 q 221 743 221 667 q 263 876 221 833 q 415 919 304 919 q 639 740 621 919 l 742 740 l 742 1014 l 639 1014 l 639 925 q 385 1033 564 1033 q 148 958 218 1033 q 78 740 78 883 q 135 544 78 607 q 339 453 193 482 l 456 431 q 588 376 553 411 q 624 258 624 342 q 574 133 624 172 q 413 94 524 94 q 233 152 294 94 q 169 317 172 210 l 67 317 l 67 0 l 169 0 z "},"T":{"ha":774,"x_min":11,"x_max":763,"o":"m 763 767 l 763 1014 l 11 1014 l 11 767 l 117 767 l 117 903 l 315 903 l 315 94 l 201 94 l 201 0 l 572 0 l 572 94 l 458 94 l 458 903 l 658 903 l 658 767 l 763 767 z "},"U":{"ha":1036,"x_min":63,"x_max":974,"o":"m 63 919 l 146 919 l 146 335 q 167 175 146 242 q 221 72 189 108 q 305 13 253 35 q 404 -14 357 -8 q 517 -19 451 -19 q 631 -14 583 -19 q 731 13 678 -8 q 815 72 783 35 q 869 175 847 108 q 890 335 890 242 l 890 919 l 974 919 l 974 1014 l 664 1014 l 664 919 l 747 919 l 747 342 q 730 213 747 264 q 678 140 713 163 q 607 108 643 117 q 517 100 571 100 q 428 108 464 100 q 358 140 393 117 q 306 213 324 163 q 289 342 289 264 l 289 919 l 372 919 l 372 1014 l 63 1014 l 63 919 z "},"V":{"ha":925,"x_min":25,"x_max":900,"o":"m 557 0 l 840 919 l 900 919 l 900 1014 l 615 1014 l 615 919 l 697 919 l 463 133 l 229 919 l 310 919 l 310 1014 l 25 1014 l 25 919 l 85 919 l 368 0 l 557 0 z "},"W":{"ha":1278,"x_min":26,"x_max":1251,"o":"m 483 0 l 639 732 l 794 0 l 1003 0 l 1194 919 l 1251 919 l 1251 1014 l 967 1014 l 967 919 l 1051 919 l 893 135 l 710 1014 l 568 1014 l 383 135 l 225 919 l 311 919 l 311 1014 l 26 1014 l 26 919 l 82 919 l 275 0 l 483 0 z "},"X":{"ha":903,"x_min":24,"x_max":881,"o":"m 576 919 l 642 919 l 460 628 l 267 919 l 335 919 l 335 1014 l 42 1014 l 42 919 l 107 919 l 367 526 l 92 94 l 24 94 l 24 0 l 310 0 l 310 94 l 243 94 l 442 414 l 653 94 l 586 94 l 586 0 l 881 0 l 881 94 l 814 94 l 535 515 l 793 919 l 861 919 l 861 1014 l 576 1014 l 576 919 z "},"Y":{"ha":840,"x_min":14,"x_max":826,"o":"m 249 0 l 592 0 l 592 94 l 492 94 l 492 351 l 760 919 l 826 919 l 826 1014 l 544 1014 l 544 919 l 617 919 l 421 490 l 225 919 l 296 919 l 296 1014 l 14 1014 l 14 919 l 81 919 l 349 351 l 349 94 l 249 94 l 249 0 z "},"Z":{"ha":783,"x_min":42,"x_max":742,"o":"m 68 901 l 69 901 l 69 767 l 174 767 l 174 901 l 556 901 l 42 90 l 42 0 l 742 0 l 742 246 l 638 246 l 638 113 l 215 113 l 728 922 l 728 1014 l 69 1014 l 68 901 z "},"[":{"ha":435,"x_min":111,"x_max":419,"o":"m 111 -92 l 419 -92 l 419 8 l 256 8 l 256 921 l 419 921 l 419 1021 l 111 1021 l 111 -92 z "},"\\":{"ha":471,"x_min":0,"x_max":471,"o":"m 142 1076 l 0 1076 l 329 -147 l 471 -147 l 142 1076 z "},"]":{"ha":435,"x_min":15,"x_max":324,"o":"m 324 1021 l 15 1021 l 15 921 l 179 921 l 179 8 l 15 8 l 15 -92 l 324 -92 l 324 1021 z "},"^":{"ha":817,"x_min":133,"x_max":683,"o":"m 342 858 l 133 439 l 250 439 l 408 774 l 567 439 l 683 439 l 475 858 l 342 858 z "},"_":{"ha":806,"x_min":97,"x_max":708,"o":"m 97 -106 l 708 -106 l 708 0 l 97 0 l 97 -106 z "},"`":{"ha":436,"x_min":53,"x_max":376,"o":"m 317 864 l 53 1044 l 131 1147 l 376 943 l 317 864 z "},"a":{"ha":844,"x_min":74,"x_max":772,"o":"m 597 0 l 772 0 l 772 94 l 689 94 l 689 592 q 403 814 689 814 q 180 751 243 814 q 107 560 117 688 l 224 554 q 265 667 228 632 q 399 703 301 703 q 507 674 465 703 q 549 583 549 646 l 549 460 l 322 446 q 125 379 176 435 q 74 203 74 324 q 128 38 74 94 q 307 -19 182 -19 q 575 79 450 -19 l 597 0 m 343 86 q 240 115 271 86 q 210 207 210 144 q 238 315 210 285 q 349 349 267 344 l 549 361 l 549 171 q 343 86 460 86 z "},"b":{"ha":856,"x_min":44,"x_max":783,"o":"m 44 936 l 128 936 l 128 0 l 204 0 l 238 61 q 481 -19 353 -19 q 616 4 560 -19 q 704 64 672 28 q 754 158 736 100 q 778 270 772 217 q 783 397 783 324 q 778 524 783 471 q 754 635 772 578 q 704 730 736 693 q 615 790 672 767 q 481 814 558 814 q 268 758 376 814 l 268 1031 l 128 1031 l 44 1031 l 44 936 m 449 703 q 537 685 500 703 q 594 642 574 668 q 625 572 614 615 q 640 490 636 529 q 643 397 643 451 q 640 299 643 339 q 626 217 638 260 q 592 150 614 175 q 533 108 571 125 q 440 92 494 92 q 268 146 353 92 l 268 654 q 449 703 356 703 z "},"c":{"ha":788,"x_min":72,"x_max":710,"o":"m 606 794 l 607 725 q 400 814 533 814 q 254 790 315 814 q 158 731 193 767 q 103 637 124 694 q 78 525 83 579 q 72 397 72 471 q 77 270 72 322 q 101 159 82 218 q 155 64 121 100 q 251 4 189 28 q 401 -19 314 -19 q 552 -1 492 -19 q 645 54 613 17 q 692 135 678 92 q 710 246 706 179 l 597 251 q 555 130 593 168 q 411 92 517 92 q 321 108 358 92 q 263 150 283 125 q 230 217 242 175 q 215 299 218 260 q 213 397 213 339 q 219 513 213 465 q 244 607 225 560 q 303 678 263 654 q 407 703 344 703 q 611 503 592 703 l 701 503 l 701 794 l 606 794 z "},"d":{"ha":883,"x_min":72,"x_max":811,"o":"m 635 0 l 811 0 l 811 94 l 728 94 l 728 1031 l 504 1031 l 504 936 l 588 936 l 588 775 q 383 814 482 814 q 244 790 303 814 q 153 731 186 767 q 102 636 121 694 q 78 524 83 578 q 72 397 72 471 q 78 270 72 324 q 101 158 83 217 q 152 64 119 100 q 242 4 185 28 q 379 -19 300 -19 q 618 71 507 -19 l 635 0 m 413 92 q 324 107 361 92 q 266 148 288 122 q 233 215 244 174 q 217 297 221 256 q 213 397 213 339 q 217 499 213 457 q 233 583 221 542 q 268 649 246 624 q 327 688 290 674 q 415 703 364 703 q 588 669 503 703 l 588 156 q 413 92 507 92 z "},"e":{"ha":822,"x_min":81,"x_max":750,"o":"m 424 -19 q 578 1 515 -19 q 672 60 640 21 q 718 142 704 100 q 738 244 732 185 l 622 250 q 576 132 617 172 q 426 92 535 92 q 265 152 307 92 q 219 361 222 213 l 750 361 l 750 397 q 744 524 750 471 q 719 636 739 578 q 665 731 700 694 q 568 790 631 767 q 418 814 506 814 q 267 790 331 814 q 169 731 204 767 q 113 636 133 694 q 86 524 92 578 q 81 397 81 471 q 95 217 81 290 q 147 89 110 144 q 251 7 183 33 q 424 -19 319 -19 m 417 703 q 568 643 529 703 q 611 463 607 583 l 221 463 q 266 643 225 583 q 417 703 307 703 z "},"f":{"ha":496,"x_min":78,"x_max":489,"o":"m 308 835 q 327 913 308 889 q 404 942 346 936 l 489 949 l 489 1043 l 378 1043 q 210 989 251 1043 q 168 825 168 935 l 168 794 l 78 794 l 78 700 l 168 700 l 168 94 l 85 94 l 85 0 l 419 0 l 419 94 l 308 94 l 308 700 l 464 700 l 464 794 l 308 794 l 308 835 z "},"g":{"ha":815,"x_min":65,"x_max":772,"o":"m 418 244 q 578 267 515 244 q 671 333 642 289 q 709 422 700 378 q 718 529 718 465 q 675 718 718 657 l 764 808 l 685 889 l 583 788 q 418 814 517 814 q 283 798 339 814 q 195 757 226 782 q 146 692 164 732 q 123 616 128 653 q 118 529 118 579 q 183 311 118 374 l 128 256 q 71 131 71 199 q 150 11 71 40 q 65 -137 65 -47 q 82 -219 65 -185 q 126 -272 99 -253 q 198 -302 153 -292 q 288 -316 243 -312 q 399 -319 333 -319 q 510 -317 468 -319 q 608 -303 551 -315 q 695 -268 664 -290 q 749 -201 726 -246 q 772 -94 772 -157 q 715 49 772 -1 q 554 100 658 100 l 244 100 q 183 149 183 100 q 214 214 183 183 l 265 265 q 418 244 326 244 m 418 343 q 284 388 315 343 q 253 529 253 433 q 284 670 253 625 q 418 715 315 715 q 552 670 521 715 q 583 529 583 625 q 552 388 583 433 q 418 343 521 343 m 404 -218 q 240 -199 293 -218 q 188 -117 188 -181 q 240 0 188 -46 l 513 0 q 573 -5 549 0 q 619 -33 597 -10 q 640 -96 640 -56 q 630 -153 640 -131 q 603 -188 619 -175 q 553 -208 586 -201 q 490 -217 521 -215 q 404 -218 458 -218 z "},"h":{"ha":960,"x_min":78,"x_max":888,"o":"m 78 936 l 161 936 l 161 94 l 78 94 l 78 0 l 379 0 l 379 94 l 301 94 l 301 617 q 532 703 411 703 q 633 669 603 703 q 663 554 663 635 l 663 94 l 585 94 l 585 0 l 888 0 l 888 94 l 804 94 l 804 563 q 564 814 804 814 q 301 729 429 814 l 301 1031 l 78 1031 l 78 936 z "},"i":{"ha":467,"x_min":86,"x_max":393,"o":"m 86 700 l 169 700 l 169 94 l 86 94 l 86 0 l 393 0 l 393 94 l 310 94 l 310 794 l 86 794 l 86 700 m 240 906 q 288 913 269 906 q 313 938 306 921 q 322 967 319 954 q 324 1001 324 981 q 322 1038 324 1024 q 313 1067 319 1051 q 288 1091 306 1083 q 240 1099 269 1099 q 185 1083 204 1099 q 162 1049 165 1067 q 158 1001 158 1032 q 162 955 158 972 q 185 922 165 938 q 240 906 204 906 z "},"j":{"ha":447,"x_min":-31,"x_max":318,"o":"m 72 700 l 156 700 l 156 -67 q 137 -158 156 -132 q 60 -190 118 -185 l -31 -197 l -31 -300 l 93 -300 q 254 -247 213 -300 q 296 -83 296 -194 l 296 794 l 72 794 l 72 700 m 235 906 q 282 913 264 906 q 307 938 300 921 q 316 967 314 954 q 318 1001 318 981 q 316 1038 318 1024 q 307 1067 314 1051 q 282 1091 300 1083 q 235 1099 264 1099 q 179 1083 199 1099 q 156 1049 160 1067 q 153 1001 153 1032 q 156 955 153 972 q 179 922 160 938 q 235 906 199 906 z "},"k":{"ha":839,"x_min":72,"x_max":808,"o":"m 72 936 l 156 936 l 156 94 l 72 94 l 72 0 l 369 0 l 369 94 l 296 94 l 296 379 l 383 379 l 579 94 l 511 94 l 511 0 l 808 0 l 808 94 l 732 94 l 507 418 l 707 700 l 783 700 l 783 794 l 486 794 l 486 700 l 553 700 l 399 479 l 296 479 l 296 1031 l 72 1031 l 72 936 z "},"l":{"ha":453,"x_min":72,"x_max":379,"o":"m 72 936 l 156 936 l 156 94 l 72 94 l 72 0 l 379 0 l 379 94 l 296 94 l 296 1031 l 72 1031 l 72 936 z "},"m":{"ha":1431,"x_min":86,"x_max":1358,"o":"m 574 0 l 871 0 l 871 94 l 792 94 l 792 564 q 788 617 792 592 q 1000 703 886 703 q 1103 664 1072 703 q 1133 550 1133 625 l 1133 94 l 1050 94 l 1050 0 l 1358 0 l 1358 94 l 1275 94 l 1275 564 q 1025 814 1275 814 q 881 784 951 814 q 760 708 810 754 q 538 814 700 814 q 288 719 403 814 l 251 794 l 169 794 l 86 794 l 86 700 l 169 700 l 169 94 l 86 94 l 86 0 l 393 0 l 393 94 l 310 94 l 310 624 q 515 703 403 703 q 620 665 589 703 q 651 550 651 626 l 651 94 l 574 94 l 574 0 z "},"n":{"ha":968,"x_min":86,"x_max":896,"o":"m 86 700 l 169 700 l 169 94 l 86 94 l 86 0 l 388 0 l 388 94 l 310 94 l 310 617 q 540 703 419 703 q 641 669 611 703 q 671 554 671 635 l 671 94 l 593 94 l 593 0 l 896 0 l 896 94 l 813 94 l 813 563 q 572 814 813 814 q 289 715 425 814 l 246 794 l 86 794 l 86 700 z "},"o":{"ha":844,"x_min":72,"x_max":772,"o":"m 422 92 q 338 102 374 92 q 279 135 301 113 q 243 183 257 158 q 223 247 229 208 q 215 318 217 286 q 213 397 213 350 q 215 476 213 444 q 223 547 217 508 q 243 611 229 586 q 279 659 257 636 q 338 692 301 682 q 422 703 374 703 q 507 692 471 703 q 565 659 543 682 q 601 611 588 636 q 622 547 615 586 q 630 476 628 508 q 632 397 632 444 q 630 318 632 350 q 622 247 628 286 q 601 183 615 208 q 565 135 588 158 q 507 102 543 113 q 422 92 471 92 m 422 -19 q 580 4 514 -19 q 682 64 646 28 q 740 158 718 100 q 767 270 761 217 q 772 397 772 324 q 767 524 772 471 q 740 636 761 578 q 682 731 718 694 q 580 790 646 767 q 422 814 514 814 q 265 790 331 814 q 163 731 199 767 q 105 636 126 694 q 78 524 83 578 q 72 397 72 471 q 78 270 72 324 q 105 158 83 217 q 163 64 126 100 q 265 4 199 28 q 422 -19 331 -19 z "},"p":{"ha":883,"x_min":72,"x_max":811,"o":"m 232 794 l 156 794 l 72 794 l 72 700 l 156 700 l 156 -207 l 72 -207 l 72 -300 l 407 -300 l 407 -207 l 296 -207 l 296 18 q 500 -19 399 -19 q 639 4 581 -19 q 730 64 697 28 q 781 158 763 100 q 806 270 800 217 q 811 397 811 324 q 806 524 811 471 q 782 636 800 578 q 732 731 764 694 q 644 790 700 767 q 508 814 588 814 q 267 728 382 814 l 232 794 m 476 703 q 564 685 528 703 q 621 642 600 668 q 653 572 642 615 q 667 490 664 529 q 671 397 671 451 q 667 297 671 338 q 652 214 664 256 q 619 147 640 172 q 560 107 597 122 q 468 92 522 92 q 296 124 378 92 l 296 642 q 476 703 385 703 z "},"q":{"ha":883,"x_min":72,"x_max":811,"o":"m 811 -207 l 728 -207 l 728 700 l 811 700 l 811 794 l 728 794 l 651 794 l 621 738 q 383 814 517 814 q 244 790 303 814 q 153 731 186 767 q 102 636 121 694 q 78 524 83 578 q 72 397 72 471 q 78 270 72 324 q 102 158 83 217 q 153 64 121 100 q 244 4 186 28 q 383 -19 303 -19 q 588 26 479 -19 l 588 -207 l 476 -207 l 476 -300 l 811 -300 l 811 -207 m 415 92 q 326 107 364 92 q 267 147 289 122 q 233 213 246 172 q 217 296 221 254 q 213 397 213 338 q 217 497 213 456 q 233 580 221 539 q 267 647 246 621 q 326 688 289 672 q 415 703 364 703 q 588 653 513 703 l 588 131 q 415 92 506 92 z "},"r":{"ha":593,"x_min":86,"x_max":579,"o":"m 246 794 l 169 794 l 86 794 l 86 700 l 169 700 l 169 94 l 86 94 l 86 0 l 421 0 l 421 94 l 310 94 l 310 549 q 579 689 397 682 l 579 814 q 299 660 397 807 l 246 794 z "},"s":{"ha":789,"x_min":90,"x_max":703,"o":"m 579 794 l 581 731 q 363 814 510 814 q 158 751 226 814 q 90 589 90 689 q 142 433 90 481 q 308 351 193 385 l 444 317 q 536 273 510 299 q 563 206 563 247 q 397 92 563 92 q 179 286 199 92 l 90 286 l 90 0 l 186 0 l 183 82 q 424 -19 263 -19 q 703 213 703 -19 q 651 360 703 311 q 488 439 600 410 l 351 475 q 259 517 288 492 q 231 589 231 542 q 265 672 231 640 q 375 703 300 703 q 533 665 488 703 q 585 508 578 628 l 675 508 l 675 794 l 579 794 z "},"t":{"ha":517,"x_min":32,"x_max":463,"o":"m 32 700 l 157 700 l 157 190 q 159 131 157 154 q 170 76 161 107 q 197 26 179 44 q 247 -6 214 7 q 326 -19 281 -19 q 463 6 388 -19 l 446 97 q 372 86 397 86 q 315 111 332 86 q 297 199 297 136 l 297 700 l 443 700 l 443 794 l 297 794 l 297 972 l 157 953 l 157 794 l 32 794 l 32 700 z "},"u":{"ha":967,"x_min":72,"x_max":894,"o":"m 156 794 l 72 794 l 72 700 l 156 700 l 156 229 q 210 43 156 106 q 396 -19 265 -19 q 686 81 547 -19 l 718 0 l 894 0 l 894 94 l 811 94 l 811 794 l 588 794 l 588 700 l 671 700 l 671 181 q 438 92 560 92 q 328 128 360 92 q 296 244 296 164 l 296 794 l 156 794 z "},"v":{"ha":794,"x_min":3,"x_max":792,"o":"m 271 794 l 3 794 l 3 700 l 60 700 l 319 0 l 475 0 l 735 700 l 792 700 l 792 794 l 522 794 l 522 700 l 592 700 l 397 154 l 200 700 l 271 700 l 271 794 z "},"w":{"ha":1092,"x_min":3,"x_max":1089,"o":"m 1089 794 l 821 794 l 821 700 l 897 700 l 756 183 l 604 725 l 486 725 l 335 183 l 192 700 l 271 700 l 271 794 l 3 794 l 3 700 l 51 700 l 254 0 l 396 0 l 546 532 l 696 0 l 838 0 l 1039 700 l 1089 700 l 1089 794 z "},"x":{"ha":801,"x_min":33,"x_max":769,"o":"m 307 94 l 239 94 l 392 313 l 551 94 l 490 94 l 490 0 l 769 0 l 769 94 l 707 94 l 482 404 l 692 700 l 751 700 l 751 794 l 481 794 l 481 700 l 544 700 l 408 506 l 267 700 l 326 700 l 326 794 l 50 794 l 50 700 l 111 700 l 319 414 l 92 94 l 33 94 l 33 0 l 307 0 l 307 94 z "},"y":{"ha":794,"x_min":3,"x_max":792,"o":"m 122 -300 l 281 -300 q 350 -278 325 -300 q 392 -210 375 -256 l 733 700 l 792 700 l 792 794 l 524 794 l 524 700 l 592 700 l 397 167 l 201 700 l 271 700 l 271 794 l 3 794 l 3 700 l 61 700 l 332 -15 l 288 -137 q 264 -180 276 -168 q 218 -194 251 -192 l 122 -203 l 122 -300 z "},"z":{"ha":708,"x_min":14,"x_max":644,"o":"m 550 253 l 550 104 l 183 104 l 635 703 l 635 794 l 39 794 l 39 542 l 133 542 l 133 690 l 468 690 l 14 92 l 14 0 l 644 0 l 644 253 l 550 253 z "},"{":{"ha":443,"x_min":29,"x_max":428,"o":"m 206 465 q 253 441 233 465 q 274 376 274 417 q 268 299 274 350 q 263 214 263 249 q 300 68 263 119 q 428 17 338 17 l 428 -92 q 117 190 117 -92 q 122 276 117 222 q 128 356 128 329 q 96 405 128 390 q 29 419 64 419 l 29 511 q 96 526 64 511 q 128 575 128 540 q 122 655 128 601 q 117 740 117 708 q 428 1022 117 1022 l 428 914 q 263 721 263 914 q 268 638 263 688 q 274 561 274 588 q 253 497 274 521 q 206 472 233 472 l 206 465 z "},"|":{"ha":468,"x_min":156,"x_max":311,"o":"m 156 -147 l 311 -147 l 311 1076 l 156 1076 l 156 -147 z "},"}":{"ha":443,"x_min":15,"x_max":414,"o":"m 238 476 q 190 501 210 476 q 169 567 169 526 q 175 644 169 593 q 181 731 181 696 q 144 866 181 818 q 15 914 107 914 l 15 1022 q 326 740 326 1022 q 321 655 326 708 q 315 575 315 601 q 347 526 315 540 q 414 511 378 511 l 414 419 q 347 405 378 419 q 315 356 315 390 q 321 276 315 329 q 326 190 326 222 q 15 -92 326 -92 l 15 17 q 144 69 107 17 q 181 215 181 121 q 175 301 181 250 q 169 381 169 353 q 190 445 169 421 q 238 469 210 469 l 238 476 z "},"~":{"ha":817,"x_min":131,"x_max":686,"o":"m 131 389 q 250 358 182 358 q 408 388 301 358 q 567 418 514 418 q 686 389 633 418 l 686 494 q 567 521 635 521 q 408 491 514 521 q 250 461 301 461 q 131 494 178 461 l 131 389 z "},"¡":{"ha":438,"x_min":136,"x_max":301,"o":"m 219 814 q 274 798 256 814 q 297 764 293 782 q 301 717 301 746 q 297 669 301 688 q 274 635 293 651 q 219 619 256 619 q 163 636 182 619 q 140 670 143 653 q 136 717 136 688 q 140 763 136 746 q 163 797 143 781 q 219 814 182 814 m 299 -211 l 299 25 l 263 529 l 178 529 l 142 25 l 142 -211 l 299 -211 z "},"¢":{"ha":806,"x_min":104,"x_max":742,"o":"m 393 -103 l 489 -103 l 489 50 q 677 125 622 61 q 742 303 732 189 l 629 310 q 595 206 626 243 q 489 161 564 169 l 489 768 q 619 603 613 751 l 732 608 q 668 801 721 729 q 489 881 615 872 l 489 1033 l 393 1033 l 393 879 q 264 844 318 871 q 179 781 210 817 q 131 689 149 744 q 109 583 114 633 q 104 465 104 533 q 110 344 104 396 q 133 236 115 292 q 181 144 150 181 q 265 81 211 107 q 393 50 319 54 l 393 -103 m 246 465 q 250 571 246 531 q 267 656 254 611 q 312 728 281 701 q 393 765 343 754 l 393 164 q 315 199 346 172 q 270 269 285 225 q 251 358 256 314 q 246 465 246 403 z "},"£":{"ha":817,"x_min":89,"x_max":754,"o":"m 89 390 l 175 390 l 175 240 q 103 94 175 149 l 103 0 l 754 0 l 754 113 l 258 113 q 305 174 292 142 q 318 263 318 206 l 318 390 l 613 390 l 613 486 l 318 486 l 318 674 q 349 796 318 756 q 461 836 379 836 q 576 793 540 836 q 611 663 611 750 l 736 672 q 672 882 736 814 q 454 950 607 950 q 240 879 304 950 q 175 674 175 808 l 175 486 l 89 486 l 89 390 z "},"¤":{"ha":829,"x_min":44,"x_max":785,"o":"m 113 835 l 44 767 l 163 647 q 129 465 129 586 q 161 281 129 344 l 44 164 l 113 96 l 225 208 q 408 165 288 165 q 604 206 532 165 l 717 96 l 785 164 l 675 274 q 714 465 714 339 q 676 658 714 594 l 785 767 l 717 835 l 608 728 q 432 765 542 765 q 228 719 303 765 l 113 835 m 408 286 q 322 301 356 286 q 276 344 289 315 q 258 399 263 374 q 254 465 254 425 q 258 531 254 506 q 278 586 263 557 q 333 630 294 615 q 432 644 371 644 q 519 630 486 644 q 567 586 553 615 q 585 532 581 557 q 589 465 589 507 q 585 399 589 425 q 564 344 581 374 q 508 301 547 315 q 408 286 469 286 z "},"¥":{"ha":817,"x_min":57,"x_max":760,"o":"m 101 489 l 283 489 l 335 389 l 101 389 l 101 292 l 338 292 l 338 0 l 478 0 l 478 292 l 717 292 l 717 389 l 481 389 l 532 489 l 717 489 l 717 586 l 582 586 l 760 931 l 613 931 l 408 518 l 204 931 l 57 931 l 233 586 l 101 586 l 101 489 z "},"¦":{"ha":468,"x_min":156,"x_max":311,"o":"m 156 574 l 311 574 l 311 1076 l 156 1076 l 156 574 m 156 -147 l 311 -147 l 311 356 l 156 356 l 156 -147 z "},"§":{"ha":800,"x_min":90,"x_max":738,"o":"m 738 335 q 677 511 738 449 q 483 597 617 574 l 361 619 q 240 760 240 640 q 279 880 240 840 q 415 919 318 919 q 553 878 513 919 q 594 753 594 838 l 719 763 q 648 966 719 899 q 410 1033 576 1033 q 172 964 243 1033 q 100 760 100 894 q 172 564 100 628 q 100 360 100 499 q 156 183 100 244 q 339 100 213 122 l 460 78 q 597 -65 597 54 q 555 -185 597 -146 q 408 -225 513 -225 q 258 -183 303 -225 q 214 -54 214 -140 l 90 -62 q 164 -267 90 -199 q 411 -336 238 -336 q 738 -65 738 -336 q 658 132 738 65 q 738 335 738 197 m 467 476 q 560 430 532 464 q 588 336 588 396 q 521 188 588 229 l 371 218 q 272 265 300 231 q 243 360 243 300 q 310 508 243 467 l 467 476 z "},"¨":{"ha":482,"x_min":15,"x_max":467,"o":"m 92 908 q 29 933 43 908 q 15 1001 15 958 q 17 1035 15 1022 q 26 1065 19 1049 q 49 1088 33 1081 q 92 1096 65 1096 q 144 1080 126 1096 q 166 1047 163 1064 q 169 1001 169 1029 q 166 956 169 974 q 144 924 163 939 q 92 908 126 908 m 388 908 q 337 924 354 908 q 316 956 319 939 q 313 1001 313 974 q 316 1047 313 1029 q 337 1080 319 1064 q 388 1096 354 1096 q 431 1088 414 1096 q 456 1065 449 1081 q 465 1035 463 1049 q 467 1001 467 1022 q 463 956 467 974 q 441 924 460 939 q 388 908 422 908 z "},"©":{"ha":1026,"x_min":89,"x_max":938,"o":"m 89 778 q 186 451 89 549 q 513 354 283 354 q 840 451 742 354 q 938 778 938 549 q 839 1105 938 1007 q 513 1203 740 1203 q 186 1105 283 1203 q 89 778 89 1007 m 172 778 q 248 1047 172 968 q 513 1126 324 1126 q 778 1047 703 1126 q 854 778 854 968 q 778 510 854 589 q 513 431 703 431 q 247 509 322 431 q 172 778 172 588 m 694 901 q 643 1027 686 986 q 506 1068 600 1068 q 335 998 379 1068 q 290 779 290 928 q 333 558 290 626 q 507 489 375 489 q 649 538 608 489 q 696 679 690 586 l 621 683 q 508 560 617 560 q 404 612 429 560 q 379 779 379 664 q 406 945 379 892 q 507 999 432 999 q 588 974 564 999 q 618 896 613 950 l 694 901 z "},"ª":{"ha":589,"x_min":42,"x_max":546,"o":"m 410 486 l 546 486 l 546 568 l 488 568 l 488 900 q 429 1019 488 983 q 281 1056 371 1056 q 119 1010 167 1056 q 64 872 71 964 l 168 867 q 194 937 171 915 q 272 958 217 958 q 360 889 360 958 l 360 814 l 222 804 q 79 755 117 796 q 42 629 42 714 q 204 472 42 472 q 386 539 310 472 l 410 486 m 53 333 l 546 333 l 546 417 l 53 417 l 53 333 m 243 567 q 185 583 203 567 q 168 636 168 600 q 184 700 168 682 q 249 721 200 718 l 360 728 l 360 608 q 243 567 314 567 z "},"«":{"ha":744,"x_min":42,"x_max":671,"o":"m 194 438 l 361 224 l 283 147 l 42 410 l 42 465 l 283 728 l 361 651 l 194 438 m 504 438 l 671 224 l 593 147 l 351 410 l 351 465 l 593 728 l 671 651 l 504 438 z "},"¬":{"ha":817,"x_min":131,"x_max":686,"o":"m 131 389 l 586 389 l 586 197 l 686 197 l 686 494 l 131 494 l 131 389 z "},"®":{"ha":1026,"x_min":89,"x_max":938,"o":"m 89 778 q 186 451 89 549 q 513 354 283 354 q 840 451 742 354 q 938 778 938 549 q 839 1105 938 1007 q 513 1203 740 1203 q 186 1105 283 1203 q 89 778 89 1007 m 172 778 q 248 1047 172 968 q 513 1126 324 1126 q 778 1047 703 1126 q 854 778 854 968 q 778 510 854 589 q 513 431 703 431 q 247 509 322 431 q 172 778 172 588 m 344 1058 l 344 500 l 433 500 l 433 724 l 488 724 q 550 681 533 724 l 628 500 l 722 500 l 640 688 q 607 736 626 718 q 681 792 663 753 q 699 893 699 831 q 664 1015 699 971 q 521 1058 629 1058 l 344 1058 m 433 792 l 433 989 l 519 989 q 592 964 575 989 q 610 890 610 939 q 592 817 610 842 q 519 792 575 792 l 433 792 z "},"¯":{"ha":503,"x_min":69,"x_max":433,"o":"m 69 947 l 433 947 l 433 1060 l 69 1060 l 69 947 z "},"°":{"ha":590,"x_min":57,"x_max":533,"o":"m 294 569 q 230 581 254 569 q 194 617 206 592 q 181 665 183 642 q 178 729 178 689 q 181 793 178 769 q 194 842 183 817 q 230 878 206 867 q 294 889 254 889 q 359 878 335 889 q 394 842 383 867 q 408 793 406 817 q 411 729 411 769 q 408 665 411 689 q 394 617 406 642 q 359 581 383 592 q 294 569 335 569 m 294 472 q 422 492 372 472 q 495 553 472 513 q 526 633 518 593 q 533 729 533 672 q 526 827 533 788 q 495 906 518 867 q 422 966 472 946 q 294 986 372 986 q 168 966 218 986 q 95 906 118 946 q 65 827 72 867 q 57 729 57 788 q 65 633 57 672 q 95 553 72 593 q 168 492 118 513 q 294 472 218 472 z "},"±":{"ha":817,"x_min":131,"x_max":686,"o":"m 131 458 l 356 458 l 356 233 l 461 233 l 461 458 l 686 458 l 686 564 l 461 564 l 461 789 l 356 789 l 356 564 l 131 564 l 131 458 m 131 0 l 686 0 l 686 106 l 131 106 l 131 0 z "},"²":{"ha":583,"x_min":93,"x_max":485,"o":"m 243 565 l 396 731 q 475 894 475 821 q 293 1054 475 1054 q 142 1010 186 1054 q 99 872 99 965 l 194 872 q 213 944 194 922 q 283 967 231 967 q 367 894 367 967 q 351 844 367 867 q 294 779 335 822 l 93 557 l 93 479 l 485 479 l 485 565 l 243 565 z "},"³":{"ha":583,"x_min":92,"x_max":494,"o":"m 494 626 q 403 761 494 724 q 486 885 486 801 q 296 1054 486 1054 q 146 1011 189 1054 q 103 872 103 968 l 200 872 q 219 944 200 921 q 285 967 239 967 q 376 885 376 967 q 354 820 376 842 q 276 799 332 799 l 204 799 l 204 717 l 275 717 q 385 633 385 717 q 285 554 385 554 q 211 577 233 554 q 189 649 189 600 l 92 649 q 137 510 92 553 q 294 468 182 468 q 443 511 392 468 q 494 626 494 554 z "},"´":{"ha":436,"x_min":60,"x_max":383,"o":"m 119 864 l 383 1044 l 306 1147 l 60 943 l 119 864 z "},"µ":{"ha":890,"x_min":156,"x_max":811,"o":"m 156 -315 l 156 794 l 296 794 l 296 181 q 529 92 407 92 q 639 128 607 92 q 671 244 671 164 l 671 794 l 811 794 l 811 229 q 756 43 811 106 q 571 -19 701 -19 q 296 69 432 -19 l 296 -315 l 156 -315 z "},"¶":{"ha":706,"x_min":36,"x_max":614,"o":"m 614 836 l 531 836 l 531 94 l 614 94 l 614 0 l 276 0 l 276 94 l 388 94 l 388 385 l 314 385 q 167 406 225 385 q 83 469 110 428 q 46 554 56 511 q 36 657 36 597 q 46 761 36 718 q 83 846 56 804 q 167 909 110 888 q 314 931 225 931 l 614 931 l 614 836 z "},"·":{"ha":331,"x_min":82,"x_max":249,"o":"m 164 357 q 233 383 217 357 q 249 454 249 410 q 244 501 249 483 q 221 535 240 519 q 164 551 201 551 q 109 535 128 551 q 86 501 90 519 q 82 454 82 483 q 86 407 82 425 q 109 373 90 389 q 164 357 128 357 z "},"¸":{"ha":415,"x_min":58,"x_max":357,"o":"m 58 -192 q 92 -297 58 -258 q 207 -335 125 -335 q 324 -299 292 -335 q 357 -196 357 -264 q 323 -95 357 -124 q 224 -62 289 -67 l 235 0 l 150 0 l 129 -117 l 204 -131 q 250 -150 238 -136 q 263 -192 263 -164 q 253 -234 263 -219 q 210 -249 243 -249 q 168 -235 178 -249 q 158 -192 158 -221 l 58 -192 z "},"¹":{"ha":582,"x_min":138,"x_max":474,"o":"m 138 935 l 251 935 l 251 565 l 140 565 l 140 479 l 474 479 l 474 565 l 363 565 l 363 1042 l 275 1042 q 138 1000 229 1008 l 138 935 z "},"º":{"ha":590,"x_min":43,"x_max":547,"o":"m 294 569 q 236 580 260 569 q 199 606 213 590 q 179 649 186 621 q 171 701 172 676 q 169 764 169 725 q 171 827 169 803 q 179 879 172 851 q 199 922 186 907 q 236 948 213 938 q 294 958 260 958 q 353 948 329 958 q 390 923 378 938 q 410 880 403 908 q 418 828 417 851 q 419 764 419 804 q 418 700 419 724 q 410 648 417 676 q 390 605 403 619 q 353 580 378 590 q 294 569 329 569 m 294 472 q 408 489 361 472 q 482 531 456 506 q 524 597 508 557 q 543 675 539 638 q 547 764 547 713 q 543 853 547 815 q 524 931 539 890 q 482 997 508 972 q 408 1039 456 1022 q 294 1056 361 1056 q 160 1033 213 1056 q 83 965 107 1010 q 51 874 60 919 q 43 764 43 829 q 47 675 43 713 q 67 597 51 638 q 108 531 82 557 q 182 489 135 506 q 294 472 229 472 m 57 333 l 532 333 l 532 417 l 57 417 l 57 333 z "},"»":{"ha":744,"x_min":49,"x_max":676,"o":"m 524 438 l 357 651 l 435 728 l 676 465 l 676 410 l 435 147 l 357 224 l 524 438 m 214 438 l 49 651 l 126 728 l 367 465 l 367 410 l 126 147 l 49 224 l 214 438 z "},"¼":{"ha":1371,"x_min":146,"x_max":1265,"o":"m 1207 0 l 1207 103 l 1265 103 l 1265 190 l 1207 190 l 1207 563 l 1042 563 l 829 183 l 829 103 l 1100 103 l 1100 0 l 1207 0 m 503 -92 l 597 -92 l 896 1021 l 800 1021 l 503 -92 m 146 831 l 260 831 l 260 461 l 149 461 l 149 375 l 482 375 l 482 461 l 371 461 l 371 938 l 283 938 q 146 896 238 904 l 146 831 m 954 190 l 1100 453 l 1100 190 l 954 190 z "},"½":{"ha":1371,"x_min":146,"x_max":1258,"o":"m 1017 86 l 1169 251 q 1249 415 1249 342 q 1067 575 1249 575 q 916 531 960 575 q 872 393 872 486 l 968 393 q 986 465 968 443 q 1057 488 1004 488 q 1140 415 1140 488 q 1124 365 1140 388 q 1068 300 1108 343 l 867 78 l 867 0 l 1258 0 l 1258 86 l 1017 86 m 469 -92 l 564 -92 l 863 1021 l 767 1021 l 469 -92 m 146 831 l 260 831 l 260 461 l 149 461 l 149 375 l 482 375 l 482 461 l 371 461 l 371 938 l 283 938 q 146 896 238 904 l 146 831 z "},"¾":{"ha":1371,"x_min":100,"x_max":1265,"o":"m 1207 0 l 1207 103 l 1265 103 l 1265 190 l 1207 190 l 1207 563 l 1042 563 l 829 183 l 829 103 l 1100 103 l 1100 0 l 1207 0 m 503 522 q 411 657 503 619 q 494 781 494 697 q 304 950 494 950 q 154 907 197 950 q 111 768 111 864 l 208 768 q 228 840 208 817 q 293 863 247 863 q 385 781 385 863 q 363 716 385 738 q 285 694 340 694 l 213 694 l 213 613 l 283 613 q 393 529 393 613 q 293 450 393 450 q 219 473 242 450 q 197 544 197 496 l 100 544 q 145 406 100 449 q 303 364 190 364 q 451 407 400 364 q 503 522 503 450 m 504 -92 l 599 -92 l 897 1021 l 801 1021 l 504 -92 m 954 190 l 1100 453 l 1100 190 l 954 190 z "},"¿":{"ha":672,"x_min":47,"x_max":639,"o":"m 381 814 q 435 798 417 814 q 458 764 454 782 q 463 717 463 746 q 458 669 463 688 q 435 635 454 651 q 381 619 417 619 q 324 636 343 619 q 301 670 304 653 q 297 717 297 688 q 301 763 297 746 q 324 797 304 781 q 381 814 343 814 m 301 346 q 109 267 171 326 q 47 60 47 207 q 118 -157 47 -83 q 354 -231 189 -231 q 572 -164 504 -231 q 639 31 639 -97 l 517 31 q 480 -81 517 -43 q 354 -119 443 -119 q 224 -72 261 -119 q 186 63 186 -25 q 232 206 186 165 q 368 258 278 247 l 438 267 l 425 529 l 336 529 l 321 349 l 301 346 z "},"À":{"ha":929,"x_min":4,"x_max":925,"o":"m 369 1014 l 68 94 l 4 94 l 4 0 l 292 0 l 292 94 l 208 94 l 278 311 l 649 311 l 719 94 l 636 94 l 636 0 l 925 0 l 925 94 l 860 94 l 558 1014 l 369 1014 m 464 885 l 614 424 l 315 424 l 464 885 m 563 1083 l 299 1264 l 376 1367 l 622 1163 l 563 1083 z "},"Á":{"ha":929,"x_min":4,"x_max":925,"o":"m 369 1014 l 68 94 l 4 94 l 4 0 l 292 0 l 292 94 l 208 94 l 278 311 l 649 311 l 719 94 l 636 94 l 636 0 l 925 0 l 925 94 l 860 94 l 558 1014 l 369 1014 m 464 885 l 614 424 l 315 424 l 464 885 m 365 1083 l 629 1264 l 551 1367 l 306 1163 l 365 1083 z "},"Â":{"ha":929,"x_min":4,"x_max":925,"o":"m 369 1014 l 68 94 l 4 94 l 4 0 l 292 0 l 292 94 l 208 94 l 278 311 l 649 311 l 719 94 l 636 94 l 636 0 l 925 0 l 925 94 l 860 94 l 558 1014 l 369 1014 m 464 885 l 614 424 l 315 424 l 464 885 m 314 1086 l 464 1222 l 615 1086 l 679 1150 l 496 1360 l 433 1360 l 250 1150 l 314 1086 z "},"Ã":{"ha":929,"x_min":4,"x_max":925,"o":"m 369 1014 l 68 94 l 4 94 l 4 0 l 292 0 l 292 94 l 208 94 l 278 311 l 649 311 l 719 94 l 636 94 l 636 0 l 925 0 l 925 94 l 860 94 l 558 1014 l 369 1014 m 464 885 l 614 424 l 315 424 l 464 885 m 565 1149 q 644 1182 611 1149 q 699 1294 676 1215 l 613 1322 q 588 1276 601 1290 q 550 1261 574 1261 q 465 1286 532 1261 q 363 1311 397 1311 q 284 1278 317 1311 q 229 1165 251 1244 l 317 1138 q 342 1184 328 1169 q 379 1199 356 1199 q 464 1174 397 1199 q 565 1149 531 1149 z "},"Ä":{"ha":929,"x_min":4,"x_max":925,"o":"m 369 1014 l 68 94 l 4 94 l 4 0 l 292 0 l 292 94 l 208 94 l 278 311 l 649 311 l 719 94 l 636 94 l 636 0 l 925 0 l 925 94 l 860 94 l 558 1014 l 369 1014 m 464 885 l 614 424 l 315 424 l 464 885 m 314 1128 q 251 1153 265 1128 q 238 1221 238 1178 q 240 1255 238 1242 q 249 1284 242 1268 q 272 1308 256 1300 q 314 1315 288 1315 q 367 1299 349 1315 q 388 1266 385 1283 q 392 1221 392 1249 q 388 1176 392 1193 q 367 1143 385 1158 q 314 1128 349 1128 m 610 1128 q 559 1143 576 1128 q 538 1176 542 1158 q 535 1221 535 1193 q 538 1266 535 1249 q 559 1299 542 1283 q 610 1315 576 1315 q 653 1308 636 1315 q 678 1284 671 1300 q 687 1255 685 1268 q 689 1221 689 1242 q 685 1176 689 1193 q 663 1143 682 1158 q 610 1128 644 1128 z "},"Å":{"ha":929,"x_min":4,"x_max":925,"o":"m 369 1014 l 68 94 l 4 94 l 4 0 l 292 0 l 292 94 l 208 94 l 278 311 l 649 311 l 719 94 l 636 94 l 636 0 l 925 0 l 925 94 l 860 94 l 558 1014 l 369 1014 m 464 885 l 614 424 l 315 424 l 464 885 m 463 1157 q 426 1169 439 1157 q 412 1193 414 1181 q 410 1226 410 1206 q 412 1260 410 1247 q 426 1285 414 1274 q 463 1297 439 1297 q 500 1285 488 1297 q 515 1260 513 1274 q 518 1226 518 1247 q 515 1193 518 1206 q 500 1169 513 1181 q 463 1157 488 1157 m 463 1083 q 540 1095 510 1083 q 584 1131 571 1107 q 601 1174 597 1154 q 604 1226 604 1194 q 601 1279 604 1258 q 584 1324 597 1300 q 540 1359 571 1347 q 463 1371 510 1371 q 386 1359 415 1371 q 344 1324 357 1347 q 327 1279 331 1300 q 324 1226 324 1258 q 327 1174 324 1194 q 344 1131 331 1154 q 386 1095 357 1107 q 463 1083 415 1083 z "},"Æ":{"ha":1353,"x_min":4,"x_max":1275,"o":"m 4 0 l 292 0 l 292 94 l 213 94 l 350 458 l 646 458 l 646 94 l 563 94 l 563 0 l 1275 0 l 1275 246 l 1171 246 l 1171 113 l 789 113 l 789 458 l 1158 458 l 1158 572 l 789 572 l 789 901 l 1143 901 l 1143 772 l 1247 772 l 1247 1014 l 1143 1014 l 425 1014 l 74 94 l 4 94 l 4 0 m 646 901 l 646 572 l 393 572 l 518 901 l 646 901 z "},"Ç":{"ha":883,"x_min":85,"x_max":810,"o":"m 290 -192 q 324 -297 290 -258 q 439 -335 357 -335 q 556 -299 524 -335 q 589 -196 589 -264 q 555 -95 589 -124 q 456 -62 521 -67 l 463 -18 q 472 -19 467 -18 q 482 -19 478 -19 q 643 3 579 -19 q 741 75 707 26 q 790 178 775 124 q 810 315 804 232 l 693 321 q 644 155 689 213 q 482 97 600 97 q 365 116 413 97 q 290 164 317 135 q 249 250 263 193 q 231 361 235 307 q 228 507 228 415 q 233 652 228 593 q 253 765 238 711 q 295 851 268 819 q 367 901 322 882 q 476 919 413 919 q 647 863 593 919 q 708 686 701 806 l 810 686 l 810 1014 l 707 1014 l 707 926 q 468 1033 633 1033 q 301 1010 371 1033 q 190 946 232 986 q 125 836 149 906 q 93 691 101 767 q 85 507 85 615 q 90 341 85 408 q 114 207 96 274 q 163 99 132 140 q 249 27 194 57 q 379 -12 303 -3 l 361 -117 l 436 -131 q 482 -150 469 -136 q 494 -192 494 -164 q 485 -234 494 -219 q 442 -249 475 -249 q 400 -235 410 -249 q 390 -192 390 -221 l 290 -192 z "},"È":{"ha":883,"x_min":92,"x_max":804,"o":"m 92 0 l 804 0 l 804 246 l 700 246 l 700 113 l 318 113 l 318 458 l 688 458 l 688 572 l 318 572 l 318 901 l 672 901 l 672 772 l 776 772 l 776 1014 l 92 1014 l 92 919 l 175 919 l 175 94 l 92 94 l 92 0 m 546 1083 l 282 1264 l 360 1367 l 606 1163 l 546 1083 z "},"É":{"ha":883,"x_min":92,"x_max":804,"o":"m 92 0 l 804 0 l 804 246 l 700 246 l 700 113 l 318 113 l 318 458 l 688 458 l 688 572 l 318 572 l 318 901 l 672 901 l 672 772 l 776 772 l 776 1014 l 92 1014 l 92 919 l 175 919 l 175 94 l 92 94 l 92 0 m 347 1083 l 611 1264 l 533 1367 l 288 1163 l 347 1083 z "},"Ê":{"ha":883,"x_min":92,"x_max":804,"o":"m 92 919 l 175 919 l 175 901 l 175 94 l 92 94 l 92 0 l 804 0 l 804 246 l 700 246 l 700 113 l 318 113 l 318 458 l 688 458 l 688 572 l 318 572 l 318 901 l 672 901 l 672 772 l 776 772 l 776 1014 l 92 1014 l 92 919 m 296 1086 l 446 1222 l 597 1086 l 661 1150 l 478 1360 l 415 1360 l 232 1150 l 296 1086 z "},"Ë":{"ha":883,"x_min":92,"x_max":804,"o":"m 92 919 l 175 919 l 175 94 l 92 94 l 92 0 l 804 0 l 804 246 l 700 246 l 700 113 l 318 113 l 318 458 l 688 458 l 688 572 l 318 572 l 318 901 l 672 901 l 672 772 l 776 772 l 776 1014 l 92 1014 l 92 919 m 297 1128 q 235 1153 249 1128 q 221 1221 221 1178 q 223 1255 221 1242 q 232 1284 225 1268 q 255 1308 239 1300 q 297 1315 271 1315 q 350 1299 332 1315 q 372 1266 368 1283 q 375 1221 375 1249 q 372 1176 375 1193 q 350 1143 368 1158 q 297 1128 332 1128 m 593 1128 q 542 1143 560 1128 q 522 1176 525 1158 q 518 1221 518 1193 q 522 1266 518 1249 q 542 1299 525 1283 q 593 1315 560 1315 q 637 1308 619 1315 q 661 1284 654 1300 q 670 1255 668 1268 q 672 1221 672 1242 q 669 1176 672 1193 q 647 1143 665 1158 q 593 1128 628 1128 z "},"Ì":{"ha":511,"x_min":90,"x_max":418,"o":"m 92 919 l 183 919 l 183 94 l 92 94 l 92 0 l 418 0 l 418 94 l 326 94 l 326 919 l 418 919 l 418 1014 l 92 1014 l 92 919 m 354 1083 l 90 1264 l 168 1367 l 414 1163 l 354 1083 z "},"Í":{"ha":511,"x_min":92,"x_max":449,"o":"m 92 919 l 183 919 l 183 94 l 92 94 l 92 0 l 418 0 l 418 94 l 326 94 l 326 919 l 418 919 l 418 1014 l 92 1014 l 92 919 m 185 1083 l 449 1264 l 371 1367 l 125 1163 l 185 1083 z "},"Î":{"ha":511,"x_min":42,"x_max":471,"o":"m 92 919 l 183 919 l 183 94 l 92 94 l 92 0 l 418 0 l 418 94 l 326 94 l 326 919 l 418 919 l 418 1014 l 92 1014 l 92 919 m 106 1086 l 256 1222 l 407 1086 l 471 1150 l 288 1360 l 225 1360 l 42 1150 l 106 1086 z "},"Ï":{"ha":511,"x_min":29,"x_max":481,"o":"m 92 919 l 183 919 l 183 94 l 92 94 l 92 0 l 418 0 l 418 94 l 326 94 l 326 919 l 418 919 l 418 1014 l 92 1014 l 92 919 m 106 1128 q 43 1153 57 1128 q 29 1221 29 1178 q 31 1255 29 1242 q 40 1284 33 1268 q 63 1308 47 1300 q 106 1315 79 1315 q 158 1299 140 1315 q 180 1266 176 1283 q 183 1221 183 1249 q 180 1176 183 1193 q 158 1143 176 1158 q 106 1128 140 1128 m 401 1128 q 351 1143 368 1128 q 330 1176 333 1158 q 326 1221 326 1193 q 330 1266 326 1249 q 351 1299 333 1283 q 401 1315 368 1315 q 445 1308 428 1315 q 469 1284 463 1300 q 478 1255 476 1268 q 481 1221 481 1242 q 477 1176 481 1193 q 455 1143 474 1158 q 401 1128 436 1128 z "},"Ð":{"ha":967,"x_min":92,"x_max":894,"o":"m 318 1014 l 92 1014 l 92 908 l 175 908 l 175 557 l 92 557 l 92 451 l 175 451 l 175 104 l 92 104 l 92 0 l 493 0 q 674 24 600 0 q 790 86 747 47 q 857 193 833 125 q 888 331 881 261 q 894 507 894 401 q 891 634 894 581 q 878 744 888 688 q 850 839 868 800 q 802 913 832 878 q 731 969 772 949 q 629 1001 689 989 q 493 1014 569 1014 l 318 1014 m 481 896 q 602 878 553 896 q 681 830 651 860 q 725 747 710 800 q 745 641 740 694 q 750 507 750 588 q 745 373 750 426 q 725 267 740 319 q 681 184 710 214 q 602 136 651 154 q 481 118 553 118 l 318 118 l 318 451 l 581 451 l 581 557 l 318 557 l 318 896 l 481 896 z "},"Ñ":{"ha":1096,"x_min":92,"x_max":1018,"o":"m 708 919 l 792 919 l 792 239 l 329 1014 l 92 1014 l 92 919 l 175 919 l 175 94 l 92 94 l 92 0 l 401 0 l 401 94 l 318 94 l 318 774 l 781 0 l 935 0 l 935 919 l 1018 919 l 1018 1014 l 708 1014 l 708 919 m 664 1149 q 742 1182 710 1149 q 797 1294 775 1215 l 711 1322 q 686 1276 700 1290 q 649 1261 672 1261 q 563 1286 631 1261 q 461 1311 496 1311 q 383 1278 415 1311 q 328 1165 350 1244 l 415 1138 q 440 1184 426 1169 q 478 1199 454 1199 q 563 1174 496 1199 q 664 1149 629 1149 z "},"Ò":{"ha":951,"x_min":72,"x_max":879,"o":"m 475 -19 q 631 -4 564 -19 q 741 44 697 11 q 813 119 785 78 q 855 225 840 161 q 874 353 869 289 q 879 507 879 417 q 872 689 879 617 q 842 832 865 761 q 774 943 818 903 q 656 1008 731 983 q 475 1033 582 1033 q 338 1021 399 1033 q 235 987 278 1008 q 163 928 193 965 q 116 852 133 892 q 89 753 99 813 q 76 640 79 694 q 72 507 72 585 q 79 324 72 396 q 110 181 86 253 q 176 69 133 110 q 294 5 219 29 q 475 -19 368 -19 m 475 97 q 358 117 406 97 q 282 167 310 136 q 239 254 254 199 q 219 365 224 310 q 215 507 215 421 q 219 649 215 593 q 239 760 224 704 q 282 847 254 815 q 358 897 310 878 q 475 917 406 917 q 592 897 543 917 q 668 847 640 878 q 711 760 696 815 q 731 648 726 704 q 736 507 736 592 q 731 366 736 422 q 711 254 726 310 q 668 167 696 199 q 592 117 640 136 q 475 97 543 97 m 574 1083 l 310 1264 l 388 1367 l 633 1163 l 574 1083 z "},"Ó":{"ha":951,"x_min":72,"x_max":879,"o":"m 475 -19 q 631 -4 564 -19 q 741 44 697 11 q 813 119 785 78 q 855 225 840 161 q 874 353 869 289 q 879 507 879 417 q 872 689 879 617 q 842 832 865 761 q 774 943 818 903 q 656 1008 731 983 q 475 1033 582 1033 q 338 1021 399 1033 q 235 987 278 1008 q 163 928 193 965 q 116 852 133 892 q 89 753 99 813 q 76 640 79 694 q 72 507 72 585 q 79 324 72 396 q 110 181 86 253 q 176 69 133 110 q 294 5 219 29 q 475 -19 368 -19 m 475 97 q 358 117 406 97 q 282 167 310 136 q 239 254 254 199 q 219 365 224 310 q 215 507 215 421 q 219 649 215 593 q 239 760 224 704 q 282 847 254 815 q 358 897 310 878 q 475 917 406 917 q 592 897 543 917 q 668 847 640 878 q 711 760 696 815 q 731 648 726 704 q 736 507 736 592 q 731 366 736 422 q 711 254 726 310 q 668 167 696 199 q 592 117 640 136 q 475 97 543 97 m 404 1083 l 668 1264 l 590 1367 l 344 1163 l 404 1083 z "},"Ô":{"ha":951,"x_min":72,"x_max":879,"o":"m 475 -19 q 631 -4 564 -19 q 741 44 697 11 q 813 119 785 78 q 855 225 840 161 q 874 353 869 289 q 879 507 879 417 q 872 689 879 617 q 842 832 865 761 q 774 943 818 903 q 656 1008 731 983 q 475 1033 582 1033 q 338 1021 399 1033 q 235 987 278 1008 q 163 928 193 965 q 116 852 133 892 q 89 753 99 813 q 76 640 79 694 q 72 507 72 585 q 79 324 72 396 q 110 181 86 253 q 176 69 133 110 q 294 5 219 29 q 475 -19 368 -19 m 475 97 q 358 117 406 97 q 282 167 310 136 q 239 254 254 199 q 219 365 224 310 q 215 507 215 421 q 219 649 215 593 q 239 760 224 704 q 282 847 254 815 q 358 897 310 878 q 475 917 406 917 q 592 897 543 917 q 668 847 640 878 q 711 760 696 815 q 731 648 726 704 q 736 507 736 592 q 731 366 736 422 q 711 254 726 310 q 668 167 696 199 q 592 117 640 136 q 475 97 543 97 m 325 1086 l 475 1222 l 626 1086 l 690 1150 l 507 1360 l 444 1360 l 261 1150 l 325 1086 z "},"Õ":{"ha":951,"x_min":72,"x_max":879,"o":"m 475 -19 q 631 -4 564 -19 q 741 44 697 11 q 813 119 785 78 q 855 225 840 161 q 874 353 869 289 q 879 507 879 417 q 872 689 879 617 q 842 832 865 761 q 774 943 818 903 q 656 1008 731 983 q 475 1033 582 1033 q 338 1021 399 1033 q 235 987 278 1008 q 163 928 193 965 q 116 852 133 892 q 89 753 99 813 q 76 640 79 694 q 72 507 72 585 q 79 324 72 396 q 110 181 86 253 q 176 69 133 110 q 294 5 219 29 q 475 -19 368 -19 m 475 97 q 358 117 406 97 q 282 167 310 136 q 239 254 254 199 q 219 365 224 310 q 215 507 215 421 q 219 649 215 593 q 239 760 224 704 q 282 847 254 815 q 358 897 310 878 q 475 917 406 917 q 592 897 543 917 q 668 847 640 878 q 711 760 696 815 q 731 648 726 704 q 736 507 736 592 q 731 366 736 422 q 711 254 726 310 q 668 167 696 199 q 592 117 640 136 q 475 97 543 97 m 576 1149 q 655 1182 622 1149 q 710 1294 688 1215 l 624 1322 q 599 1276 613 1290 q 561 1261 585 1261 q 476 1286 543 1261 q 374 1311 408 1311 q 295 1278 328 1311 q 240 1165 263 1244 l 328 1138 q 353 1184 339 1169 q 390 1199 367 1199 q 475 1174 408 1199 q 576 1149 542 1149 z "},"Ö":{"ha":951,"x_min":72,"x_max":879,"o":"m 475 -19 q 631 -4 564 -19 q 741 44 697 11 q 813 119 785 78 q 855 225 840 161 q 874 353 869 289 q 879 507 879 417 q 872 689 879 617 q 842 832 865 761 q 774 943 818 903 q 656 1008 731 983 q 475 1033 582 1033 q 338 1021 399 1033 q 235 987 278 1008 q 163 928 193 965 q 116 852 133 892 q 89 753 99 813 q 76 640 79 694 q 72 507 72 585 q 79 324 72 396 q 110 181 86 253 q 176 69 133 110 q 294 5 219 29 q 475 -19 368 -19 m 475 97 q 358 117 406 97 q 282 167 310 136 q 239 254 254 199 q 219 365 224 310 q 215 507 215 421 q 219 649 215 593 q 239 760 224 704 q 282 847 254 815 q 358 897 310 878 q 475 917 406 917 q 592 897 543 917 q 668 847 640 878 q 711 760 696 815 q 731 648 726 704 q 736 507 736 592 q 731 366 736 422 q 711 254 726 310 q 668 167 696 199 q 592 117 640 136 q 475 97 543 97 m 325 1128 q 263 1153 276 1128 q 249 1221 249 1178 q 251 1255 249 1242 q 260 1284 253 1268 q 283 1308 267 1300 q 325 1315 299 1315 q 378 1299 360 1315 q 399 1266 396 1283 q 403 1221 403 1249 q 399 1176 403 1193 q 378 1143 396 1158 q 325 1128 360 1128 m 621 1128 q 570 1143 588 1128 q 549 1176 553 1158 q 546 1221 546 1193 q 549 1266 546 1249 q 570 1299 553 1283 q 621 1315 588 1315 q 665 1308 647 1315 q 689 1284 682 1300 q 698 1255 696 1268 q 700 1221 700 1242 q 697 1176 700 1193 q 674 1143 693 1158 q 621 1128 656 1128 z "},"×":{"ha":817,"x_min":150,"x_max":665,"o":"m 225 183 l 408 368 l 592 183 l 665 258 l 482 442 l 665 625 l 592 700 l 408 515 l 225 700 l 150 625 l 335 442 l 150 258 l 225 183 z "},"Ø":{"ha":951,"x_min":72,"x_max":879,"o":"m 279 -131 l 374 -131 l 400 -15 q 475 -19 436 -19 q 631 -4 564 -19 q 741 44 697 11 q 813 119 785 78 q 855 225 840 161 q 874 353 869 289 q 879 507 879 417 q 875 658 879 596 q 856 784 871 721 q 816 889 842 847 q 747 964 790 931 q 640 1014 703 997 l 672 1149 l 576 1149 l 549 1029 q 475 1033 514 1033 q 338 1021 399 1033 q 235 987 278 1008 q 163 928 193 965 q 116 852 133 892 q 89 753 99 813 q 76 640 79 694 q 72 507 72 585 q 76 354 72 417 q 95 228 81 292 q 135 124 110 165 q 203 49 160 82 q 308 0 247 17 l 279 -131 m 475 97 q 426 100 457 97 l 611 889 q 711 760 686 851 q 736 507 736 669 q 731 366 736 422 q 711 254 726 310 q 668 167 696 199 q 592 117 640 136 q 475 97 543 97 m 215 507 q 219 649 215 593 q 239 760 224 704 q 282 847 254 815 q 358 897 310 878 q 475 917 406 917 q 521 914 493 917 l 338 124 q 239 252 263 163 q 215 507 215 342 z "},"Ù":{"ha":1036,"x_min":63,"x_max":974,"o":"m 63 919 l 146 919 l 146 335 q 167 175 146 242 q 221 72 189 108 q 305 13 253 35 q 404 -14 357 -8 q 517 -19 451 -19 q 631 -14 583 -19 q 731 13 678 -8 q 815 72 783 35 q 869 175 847 108 q 890 335 890 242 l 890 919 l 974 919 l 974 1014 l 664 1014 l 664 919 l 747 919 l 747 342 q 730 213 747 264 q 678 140 713 163 q 607 108 643 117 q 517 100 571 100 q 428 108 464 100 q 358 140 393 117 q 306 213 324 163 q 289 342 289 264 l 289 919 l 372 919 l 372 1014 l 63 1014 l 63 919 m 575 1083 l 311 1264 l 389 1367 l 635 1163 l 575 1083 z "},"Ú":{"ha":1036,"x_min":63,"x_max":974,"o":"m 63 919 l 146 919 l 146 335 q 167 175 146 242 q 221 72 189 108 q 305 13 253 35 q 404 -14 357 -8 q 517 -19 451 -19 q 631 -14 583 -19 q 731 13 678 -8 q 815 72 783 35 q 869 175 847 108 q 890 335 890 242 l 890 919 l 974 919 l 974 1014 l 664 1014 l 664 919 l 747 919 l 747 342 q 730 213 747 264 q 678 140 713 163 q 607 108 643 117 q 517 100 571 100 q 428 108 464 100 q 358 140 393 117 q 306 213 324 163 q 289 342 289 264 l 289 919 l 372 919 l 372 1014 l 63 1014 l 63 919 m 489 1083 l 753 1264 l 675 1367 l 429 1163 l 489 1083 z "},"Û":{"ha":1036,"x_min":63,"x_max":974,"o":"m 63 919 l 146 919 l 146 335 q 167 175 146 242 q 221 72 189 108 q 305 13 253 35 q 404 -14 357 -8 q 517 -19 451 -19 q 631 -14 583 -19 q 731 13 678 -8 q 815 72 783 35 q 869 175 847 108 q 890 335 890 242 l 890 919 l 974 919 l 974 1014 l 664 1014 l 664 919 l 747 919 l 747 342 q 730 213 747 264 q 678 140 713 163 q 607 108 643 117 q 517 100 571 100 q 428 108 464 100 q 358 140 393 117 q 306 213 324 163 q 289 342 289 264 l 289 919 l 372 919 l 372 1014 l 63 1014 l 63 919 m 367 1086 l 517 1222 l 668 1086 l 732 1150 l 549 1360 l 486 1360 l 303 1150 l 367 1086 z "},"Ü":{"ha":1036,"x_min":63,"x_max":974,"o":"m 63 919 l 146 919 l 146 335 q 167 175 146 242 q 221 72 189 108 q 305 13 253 35 q 404 -14 357 -8 q 517 -19 451 -19 q 631 -14 583 -19 q 731 13 678 -8 q 815 72 783 35 q 869 175 847 108 q 890 335 890 242 l 890 919 l 974 919 l 974 1014 l 664 1014 l 664 919 l 747 919 l 747 342 q 730 213 747 264 q 678 140 713 163 q 607 108 643 117 q 517 100 571 100 q 428 108 464 100 q 358 140 393 117 q 306 213 324 163 q 289 342 289 264 l 289 919 l 372 919 l 372 1014 l 63 1014 l 63 919 m 369 1128 q 307 1153 321 1128 q 293 1221 293 1178 q 295 1255 293 1242 q 304 1284 297 1268 q 327 1308 311 1300 q 369 1315 343 1315 q 422 1299 404 1315 q 444 1266 440 1283 q 447 1221 447 1249 q 444 1176 447 1193 q 422 1143 440 1158 q 369 1128 404 1128 m 665 1128 q 615 1143 632 1128 q 594 1176 597 1158 q 590 1221 590 1193 q 594 1266 590 1249 q 615 1299 597 1283 q 665 1315 632 1315 q 709 1308 692 1315 q 733 1284 726 1300 q 742 1255 740 1268 q 744 1221 744 1242 q 741 1176 744 1193 q 719 1143 738 1158 q 665 1128 700 1128 z "},"Ý":{"ha":835,"x_min":11,"x_max":824,"o":"m 489 351 l 757 919 l 824 919 l 824 1014 l 542 1014 l 542 919 l 614 919 l 418 490 l 222 919 l 293 919 l 293 1014 l 11 1014 l 11 919 l 78 919 l 346 351 l 346 94 l 246 94 l 246 0 l 589 0 l 589 94 l 489 94 l 489 351 m 319 1083 l 583 1264 l 506 1367 l 260 1163 l 319 1083 z "},"Þ":{"ha":849,"x_min":92,"x_max":794,"o":"m 485 201 q 649 226 583 201 q 744 297 714 250 q 784 390 774 343 q 794 506 794 438 q 784 622 794 574 q 744 716 774 669 q 649 787 714 763 q 485 811 583 811 l 318 811 l 318 908 l 410 908 l 410 1014 l 92 1014 l 92 908 l 175 908 l 175 104 l 92 104 l 92 0 l 410 0 l 410 104 l 318 104 l 318 201 l 485 201 m 318 321 l 318 692 l 471 692 q 567 678 529 692 q 623 635 606 664 q 646 578 640 607 q 651 506 651 549 q 617 369 651 417 q 471 321 582 321 l 318 321 z "},"ß":{"ha":910,"x_min":78,"x_max":874,"o":"m 301 757 q 471 929 301 929 q 608 887 568 929 q 649 758 649 844 q 613 627 649 681 q 507 574 576 574 l 422 574 l 422 468 l 572 468 q 697 420 660 468 q 733 279 733 372 q 706 144 733 194 q 607 94 679 94 q 508 132 532 94 q 483 260 483 169 l 367 260 q 419 47 367 113 q 608 -19 471 -19 q 874 268 874 -19 q 819 452 874 382 q 671 543 765 522 q 757 641 725 582 q 789 768 789 700 q 479 1043 789 1043 q 238 971 315 1043 q 161 757 161 899 l 161 94 l 78 94 l 78 0 l 301 0 l 301 757 z "},"à":{"ha":844,"x_min":74,"x_max":772,"o":"m 597 0 l 772 0 l 772 94 l 689 94 l 689 592 q 403 814 689 814 q 180 751 243 814 q 107 560 117 688 l 224 554 q 265 667 228 632 q 399 703 301 703 q 507 674 465 703 q 549 583 549 646 l 549 460 l 322 446 q 125 379 176 435 q 74 203 74 324 q 128 38 74 94 q 307 -19 182 -19 q 575 79 450 -19 l 597 0 m 343 86 q 240 115 271 86 q 210 207 210 144 q 238 315 210 285 q 349 349 267 344 l 549 361 l 549 171 q 343 86 460 86 m 499 864 l 235 1044 l 313 1147 l 558 943 l 499 864 z "},"á":{"ha":844,"x_min":74,"x_max":772,"o":"m 597 0 l 772 0 l 772 94 l 689 94 l 689 592 q 403 814 689 814 q 180 751 243 814 q 107 560 117 688 l 224 554 q 265 667 228 632 q 399 703 301 703 q 507 674 465 703 q 549 583 549 646 l 549 460 l 322 446 q 125 379 176 435 q 74 203 74 324 q 128 38 74 94 q 307 -19 182 -19 q 575 79 450 -19 l 597 0 m 343 86 q 240 115 271 86 q 210 207 210 144 q 238 315 210 285 q 349 349 267 344 l 549 361 l 549 171 q 343 86 460 86 m 364 864 l 628 1044 l 550 1147 l 304 943 l 364 864 z "},"â":{"ha":844,"x_min":74,"x_max":772,"o":"m 597 0 l 772 0 l 772 94 l 689 94 l 689 592 q 403 814 689 814 q 180 751 243 814 q 107 560 117 688 l 224 554 q 265 667 228 632 q 399 703 301 703 q 507 674 465 703 q 549 583 549 646 l 549 460 l 322 446 q 125 379 176 435 q 74 203 74 324 q 128 38 74 94 q 307 -19 182 -19 q 575 79 450 -19 l 597 0 m 343 86 q 240 115 271 86 q 210 207 210 144 q 238 315 210 285 q 349 349 267 344 l 549 361 l 549 171 q 343 86 460 86 m 249 867 l 399 1003 l 550 867 l 614 931 l 431 1140 l 368 1140 l 185 931 l 249 867 z "},"ã":{"ha":844,"x_min":74,"x_max":772,"o":"m 597 0 l 772 0 l 772 94 l 689 94 l 689 592 q 403 814 689 814 q 180 751 243 814 q 107 560 117 688 l 224 554 q 265 667 228 632 q 399 703 301 703 q 507 674 465 703 q 549 583 549 646 l 549 460 l 322 446 q 125 379 176 435 q 74 203 74 324 q 128 38 74 94 q 307 -19 182 -19 q 575 79 450 -19 l 597 0 m 343 86 q 240 115 271 86 q 210 207 210 144 q 238 315 210 285 q 349 349 267 344 l 549 361 l 549 171 q 343 86 460 86 m 500 929 q 578 963 546 929 q 633 1075 611 996 l 547 1103 q 522 1056 536 1071 q 485 1042 508 1042 q 399 1067 467 1042 q 297 1092 332 1092 q 219 1058 251 1092 q 164 946 186 1025 l 251 918 q 276 965 263 950 q 314 979 290 979 q 399 954 332 979 q 500 929 465 929 z "},"ä":{"ha":844,"x_min":74,"x_max":772,"o":"m 597 0 l 772 0 l 772 94 l 689 94 l 689 592 q 403 814 689 814 q 180 751 243 814 q 107 560 117 688 l 224 554 q 265 667 228 632 q 399 703 301 703 q 507 674 465 703 q 549 583 549 646 l 549 460 l 322 446 q 125 379 176 435 q 74 203 74 324 q 128 38 74 94 q 307 -19 182 -19 q 575 79 450 -19 l 597 0 m 343 86 q 240 115 271 86 q 210 207 210 144 q 238 315 210 285 q 349 349 267 344 l 549 361 l 549 171 q 343 86 460 86 m 260 908 q 197 933 211 908 q 183 1001 183 958 q 185 1035 183 1022 q 194 1065 188 1049 q 217 1088 201 1081 q 260 1096 233 1096 q 313 1080 294 1096 q 334 1047 331 1064 q 338 1001 338 1029 q 334 956 338 974 q 313 924 331 939 q 260 908 294 908 m 556 908 q 505 924 522 908 q 484 956 488 939 q 481 1001 481 974 q 484 1047 481 1029 q 505 1080 488 1064 q 556 1096 522 1096 q 599 1088 582 1096 q 624 1065 617 1081 q 633 1035 631 1049 q 635 1001 635 1022 q 631 956 635 974 q 609 924 628 939 q 556 908 590 908 z "},"å":{"ha":844,"x_min":74,"x_max":772,"o":"m 597 0 l 772 0 l 772 94 l 689 94 l 689 592 q 403 814 689 814 q 180 751 243 814 q 107 560 117 688 l 224 554 q 265 667 228 632 q 399 703 301 703 q 507 674 465 703 q 549 583 549 646 l 549 460 l 322 446 q 125 379 176 435 q 74 203 74 324 q 128 38 74 94 q 307 -19 182 -19 q 575 79 450 -19 l 597 0 m 343 86 q 240 115 271 86 q 210 207 210 144 q 238 315 210 285 q 349 349 267 344 l 549 361 l 549 171 q 343 86 460 86 m 397 864 q 475 876 444 864 q 519 911 506 888 q 535 955 532 935 q 539 1007 539 975 q 535 1060 539 1039 q 519 1104 532 1081 q 475 1140 506 1128 q 397 1151 444 1151 q 321 1140 350 1151 q 278 1104 292 1128 q 262 1060 265 1081 q 258 1007 258 1039 q 262 955 258 975 q 278 911 265 935 q 321 876 292 888 q 397 864 350 864 m 397 938 q 361 949 374 938 q 347 974 349 961 q 344 1007 344 986 q 347 1041 344 1028 q 361 1066 349 1054 q 397 1078 374 1078 q 435 1066 422 1078 q 450 1041 447 1054 q 453 1007 453 1028 q 450 974 453 986 q 435 949 447 961 q 397 938 422 938 z "},"æ":{"ha":1242,"x_min":74,"x_max":1192,"o":"m 867 -19 q 1020 1 958 -19 q 1115 60 1082 21 q 1161 142 1147 100 q 1181 244 1175 185 l 1064 250 q 1018 132 1058 172 q 868 92 978 92 q 706 152 749 92 q 661 361 664 213 l 1192 361 l 1192 397 q 1186 524 1192 471 q 1161 636 1181 578 q 1107 731 1142 694 q 1010 790 1072 767 q 860 814 947 814 q 628 746 710 814 q 403 814 558 814 q 180 751 243 814 q 107 560 117 688 l 224 554 q 265 667 228 632 q 399 703 301 703 q 546 611 526 703 q 525 458 528 549 l 322 446 q 125 379 176 435 q 74 203 74 324 q 128 38 74 94 q 307 -19 182 -19 q 588 89 465 -19 q 867 -19 664 -19 m 858 703 q 1010 643 971 703 q 1053 463 1049 583 l 663 463 q 708 643 667 583 q 858 703 749 703 m 343 86 q 240 115 271 86 q 210 207 210 144 q 238 315 210 285 q 349 349 267 344 l 524 360 q 549 169 526 242 q 343 86 457 86 z "},"ç":{"ha":782,"x_min":72,"x_max":710,"o":"m 235 -192 q 268 -297 235 -258 q 383 -335 301 -335 q 501 -299 468 -335 q 533 -196 533 -264 q 499 -95 533 -124 q 400 -62 465 -67 l 407 -19 q 554 0 496 -18 q 645 56 613 18 q 692 137 678 93 q 710 246 706 181 l 597 251 q 555 130 593 168 q 411 92 517 92 q 321 108 358 92 q 263 150 283 125 q 230 217 242 175 q 215 299 218 260 q 213 397 213 339 q 219 513 213 465 q 244 607 225 560 q 303 678 263 654 q 407 703 344 703 q 611 503 592 703 l 701 503 l 701 794 l 606 794 l 607 725 q 400 814 533 814 q 254 790 315 814 q 158 731 193 767 q 103 637 124 694 q 78 525 83 579 q 72 397 72 471 q 76 281 72 329 q 95 178 81 233 q 136 88 110 124 q 210 24 163 51 q 324 -14 257 -4 l 306 -117 l 381 -131 q 426 -150 414 -136 q 439 -192 439 -164 q 429 -234 439 -219 q 386 -249 419 -249 q 344 -235 354 -249 q 335 -192 335 -221 l 235 -192 z "},"è":{"ha":814,"x_min":64,"x_max":733,"o":"m 407 -19 q 561 1 499 -19 q 656 60 624 21 q 701 142 688 100 q 721 244 715 185 l 606 250 q 559 132 600 172 q 410 92 518 92 q 248 152 290 92 q 203 361 206 213 l 733 361 l 733 397 q 728 524 733 471 q 703 636 722 578 q 649 731 683 694 q 551 790 614 767 q 401 814 489 814 q 251 790 314 814 q 152 731 188 767 q 96 636 117 694 q 69 524 75 578 q 64 397 64 471 q 78 217 64 290 q 130 89 93 144 q 235 7 167 33 q 407 -19 303 -19 m 400 703 q 551 643 513 703 q 594 463 590 583 l 204 463 q 249 643 208 583 q 400 703 290 703 m 503 864 l 239 1044 l 317 1147 l 563 943 l 503 864 z "},"é":{"ha":814,"x_min":64,"x_max":733,"o":"m 407 -19 q 561 1 499 -19 q 656 60 624 21 q 701 142 688 100 q 721 244 715 185 l 606 250 q 559 132 600 172 q 410 92 518 92 q 248 152 290 92 q 203 361 206 213 l 733 361 l 733 397 q 728 524 733 471 q 703 636 722 578 q 649 731 683 694 q 551 790 614 767 q 401 814 489 814 q 251 790 314 814 q 152 731 188 767 q 96 636 117 694 q 69 524 75 578 q 64 397 64 471 q 78 217 64 290 q 130 89 93 144 q 235 7 167 33 q 407 -19 303 -19 m 400 703 q 551 643 513 703 q 594 463 590 583 l 204 463 q 249 643 208 583 q 400 703 290 703 m 358 864 l 622 1044 l 544 1147 l 299 943 l 358 864 z "},"ê":{"ha":814,"x_min":64,"x_max":733,"o":"m 407 -19 q 561 1 499 -19 q 656 60 624 21 q 701 142 688 100 q 721 244 715 185 l 606 250 q 559 132 600 172 q 410 92 518 92 q 248 152 290 92 q 203 361 206 213 l 733 361 l 733 397 q 728 524 733 471 q 703 636 722 578 q 649 731 683 694 q 551 790 614 767 q 401 814 489 814 q 251 790 314 814 q 152 731 188 767 q 96 636 117 694 q 69 524 75 578 q 64 397 64 471 q 78 217 64 290 q 130 89 93 144 q 235 7 167 33 q 407 -19 303 -19 m 400 703 q 551 643 513 703 q 594 463 590 583 l 204 463 q 249 643 208 583 q 400 703 290 703 m 254 867 l 404 1003 l 556 867 l 619 931 l 436 1140 l 374 1140 l 190 931 l 254 867 z "},"ë":{"ha":814,"x_min":64,"x_max":733,"o":"m 407 -19 q 561 1 499 -19 q 656 60 624 21 q 701 142 688 100 q 721 244 715 185 l 606 250 q 559 132 600 172 q 410 92 518 92 q 248 152 290 92 q 203 361 206 213 l 733 361 l 733 397 q 728 524 733 471 q 703 636 722 578 q 649 731 683 694 q 551 790 614 767 q 401 814 489 814 q 251 790 314 814 q 152 731 188 767 q 96 636 117 694 q 69 524 75 578 q 64 397 64 471 q 78 217 64 290 q 130 89 93 144 q 235 7 167 33 q 407 -19 303 -19 m 400 703 q 551 643 513 703 q 594 463 590 583 l 204 463 q 249 643 208 583 q 400 703 290 703 m 254 908 q 192 933 206 908 q 178 1001 178 958 q 180 1035 178 1022 q 189 1065 182 1049 q 212 1088 196 1081 q 254 1096 228 1096 q 307 1080 289 1096 q 328 1047 325 1064 q 332 1001 332 1029 q 328 956 332 974 q 307 924 325 939 q 254 908 289 908 m 550 908 q 499 924 517 908 q 478 956 482 939 q 475 1001 475 974 q 478 1047 475 1029 q 499 1080 482 1064 q 550 1096 517 1096 q 594 1088 576 1096 q 618 1065 611 1081 q 627 1035 625 1049 q 629 1001 629 1022 q 626 956 629 974 q 603 924 622 939 q 550 908 585 908 z "},"ì":{"ha":467,"x_min":61,"x_max":393,"o":"m 86 700 l 169 700 l 169 94 l 86 94 l 86 0 l 393 0 l 393 94 l 310 94 l 310 794 l 86 794 l 86 700 m 325 864 l 61 1044 l 139 1147 l 385 943 l 325 864 z "},"í":{"ha":467,"x_min":86,"x_max":426,"o":"m 86 700 l 169 700 l 169 94 l 86 94 l 86 0 l 393 0 l 393 94 l 310 94 l 310 794 l 86 794 l 86 700 m 163 864 l 426 1044 l 349 1147 l 103 943 l 163 864 z "},"î":{"ha":467,"x_min":13,"x_max":442,"o":"m 86 700 l 169 700 l 169 94 l 86 94 l 86 0 l 393 0 l 393 94 l 310 94 l 310 794 l 86 794 l 86 700 m 76 867 l 226 1003 l 378 867 l 442 931 l 258 1140 l 196 1140 l 13 931 l 76 867 z "},"ï":{"ha":467,"x_min":0,"x_max":451,"o":"m 86 700 l 169 700 l 169 94 l 86 94 l 86 0 l 393 0 l 393 94 l 310 94 l 310 794 l 86 794 l 86 700 m 76 908 q 14 933 28 908 q 0 1001 0 958 q 2 1035 0 1022 q 11 1065 4 1049 q 34 1088 18 1081 q 76 1096 50 1096 q 129 1080 111 1096 q 151 1047 147 1064 q 154 1001 154 1029 q 151 956 154 974 q 129 924 147 939 q 76 908 111 908 m 372 908 q 322 924 339 908 q 301 956 304 939 q 297 1001 297 974 q 301 1047 297 1029 q 322 1080 304 1064 q 372 1096 339 1096 q 416 1088 399 1096 q 440 1065 433 1081 q 449 1035 447 1049 q 451 1001 451 1022 q 448 956 451 974 q 426 924 444 939 q 372 908 407 908 z "},"ð":{"ha":844,"x_min":72,"x_max":772,"o":"m 394 981 q 458 914 424 953 l 372 881 l 372 782 l 515 839 q 604 640 572 750 q 422 703 532 703 q 265 683 331 703 q 163 631 199 663 q 105 549 126 599 q 78 452 83 499 q 72 342 72 406 q 78 231 72 278 q 105 135 83 185 q 163 53 126 85 q 265 1 199 21 q 422 -19 331 -19 q 580 1 514 -19 q 682 53 646 21 q 740 135 718 85 q 767 231 761 185 q 772 342 772 278 l 772 371 q 626 883 772 669 l 742 929 l 742 1028 l 568 958 q 463 1061 539 992 l 394 981 m 422 89 q 324 104 365 89 q 263 141 283 119 q 230 200 242 163 q 215 267 218 238 q 213 342 213 297 q 215 416 213 386 q 230 483 218 446 q 263 541 242 519 q 324 578 283 563 q 422 593 365 593 q 520 578 479 593 q 582 541 561 563 q 615 483 603 519 q 629 416 626 446 q 632 342 632 386 q 629 267 632 297 q 615 200 626 238 q 582 141 603 163 q 520 104 561 119 q 422 89 479 89 z "},"ñ":{"ha":917,"x_min":61,"x_max":871,"o":"m 61 700 l 144 700 l 144 94 l 61 94 l 61 0 l 363 0 l 363 94 l 285 94 l 285 617 q 515 703 394 703 q 616 669 586 703 q 646 554 646 635 l 646 94 l 568 94 l 568 0 l 871 0 l 871 94 l 788 94 l 788 563 q 547 814 788 814 q 264 715 400 814 l 221 794 l 61 794 l 61 700 m 583 929 q 662 963 629 929 q 717 1075 694 996 l 631 1103 q 606 1056 619 1071 q 568 1042 592 1042 q 483 1067 550 1042 q 381 1092 415 1092 q 302 1058 335 1092 q 247 946 269 1025 l 335 918 q 360 965 346 950 q 397 979 374 979 q 482 954 415 979 q 583 929 549 929 z "},"ò":{"ha":844,"x_min":72,"x_max":772,"o":"m 422 92 q 338 102 374 92 q 279 135 301 113 q 243 183 257 158 q 223 247 229 208 q 215 318 217 286 q 213 397 213 350 q 215 476 213 444 q 223 547 217 508 q 243 611 229 586 q 279 659 257 636 q 338 692 301 682 q 422 703 374 703 q 507 692 471 703 q 565 659 543 682 q 601 611 588 636 q 622 547 615 586 q 630 476 628 508 q 632 397 632 444 q 630 318 632 350 q 622 247 628 286 q 601 183 615 208 q 565 135 588 158 q 507 102 543 113 q 422 92 471 92 m 422 -19 q 580 4 514 -19 q 682 64 646 28 q 740 158 718 100 q 767 270 761 217 q 772 397 772 324 q 767 524 772 471 q 740 636 761 578 q 682 731 718 694 q 580 790 646 767 q 422 814 514 814 q 265 790 331 814 q 163 731 199 767 q 105 636 126 694 q 78 524 83 578 q 72 397 72 471 q 78 270 72 324 q 105 158 83 217 q 163 64 126 100 q 265 4 199 28 q 422 -19 331 -19 m 521 864 l 257 1044 l 335 1147 l 581 943 l 521 864 z "},"ó":{"ha":844,"x_min":72,"x_max":772,"o":"m 422 92 q 338 102 374 92 q 279 135 301 113 q 243 183 257 158 q 223 247 229 208 q 215 318 217 286 q 213 397 213 350 q 215 476 213 444 q 223 547 217 508 q 243 611 229 586 q 279 659 257 636 q 338 692 301 682 q 422 703 374 703 q 507 692 471 703 q 565 659 543 682 q 601 611 588 636 q 622 547 615 586 q 630 476 628 508 q 632 397 632 444 q 630 318 632 350 q 622 247 628 286 q 601 183 615 208 q 565 135 588 158 q 507 102 543 113 q 422 92 471 92 m 422 -19 q 580 4 514 -19 q 682 64 646 28 q 740 158 718 100 q 767 270 761 217 q 772 397 772 324 q 767 524 772 471 q 740 636 761 578 q 682 731 718 694 q 580 790 646 767 q 422 814 514 814 q 265 790 331 814 q 163 731 199 767 q 105 636 126 694 q 78 524 83 578 q 72 397 72 471 q 78 270 72 324 q 105 158 83 217 q 163 64 126 100 q 265 4 199 28 q 422 -19 331 -19 m 375 864 l 639 1044 l 561 1147 l 315 943 l 375 864 z "},"ô":{"ha":844,"x_min":72,"x_max":772,"o":"m 422 92 q 338 102 374 92 q 279 135 301 113 q 243 183 257 158 q 223 247 229 208 q 215 318 217 286 q 213 397 213 350 q 215 476 213 444 q 223 547 217 508 q 243 611 229 586 q 279 659 257 636 q 338 692 301 682 q 422 703 374 703 q 507 692 471 703 q 565 659 543 682 q 601 611 588 636 q 622 547 615 586 q 630 476 628 508 q 632 397 632 444 q 630 318 632 350 q 622 247 628 286 q 601 183 615 208 q 565 135 588 158 q 507 102 543 113 q 422 92 471 92 m 422 -19 q 580 4 514 -19 q 682 64 646 28 q 740 158 718 100 q 767 270 761 217 q 772 397 772 324 q 767 524 772 471 q 740 636 761 578 q 682 731 718 694 q 580 790 646 767 q 422 814 514 814 q 265 790 331 814 q 163 731 199 767 q 105 636 126 694 q 78 524 83 578 q 72 397 72 471 q 78 270 72 324 q 105 158 83 217 q 163 64 126 100 q 265 4 199 28 q 422 -19 331 -19 m 271 867 l 421 1003 l 572 867 l 636 931 l 453 1140 l 390 1140 l 207 931 l 271 867 z "},"õ":{"ha":844,"x_min":72,"x_max":772,"o":"m 422 92 q 338 102 374 92 q 279 135 301 113 q 243 183 257 158 q 223 247 229 208 q 215 318 217 286 q 213 397 213 350 q 215 476 213 444 q 223 547 217 508 q 243 611 229 586 q 279 659 257 636 q 338 692 301 682 q 422 703 374 703 q 507 692 471 703 q 565 659 543 682 q 601 611 588 636 q 622 547 615 586 q 630 476 628 508 q 632 397 632 444 q 630 318 632 350 q 622 247 628 286 q 601 183 615 208 q 565 135 588 158 q 507 102 543 113 q 422 92 471 92 m 422 -19 q 580 4 514 -19 q 682 64 646 28 q 740 158 718 100 q 767 270 761 217 q 772 397 772 324 q 767 524 772 471 q 740 636 761 578 q 682 731 718 694 q 580 790 646 767 q 422 814 514 814 q 265 790 331 814 q 163 731 199 767 q 105 636 126 694 q 78 524 83 578 q 72 397 72 471 q 78 270 72 324 q 105 158 83 217 q 163 64 126 100 q 265 4 199 28 q 422 -19 331 -19 m 524 929 q 602 963 569 929 q 657 1075 635 996 l 571 1103 q 546 1056 560 1071 q 508 1042 532 1042 q 423 1067 490 1042 q 321 1092 356 1092 q 242 1058 275 1092 q 188 946 210 1025 l 275 918 q 300 965 286 950 q 338 979 314 979 q 422 954 356 979 q 524 929 489 929 z "},"ö":{"ha":844,"x_min":72,"x_max":772,"o":"m 422 92 q 338 102 374 92 q 279 135 301 113 q 243 183 257 158 q 223 247 229 208 q 215 318 217 286 q 213 397 213 350 q 215 476 213 444 q 223 547 217 508 q 243 611 229 586 q 279 659 257 636 q 338 692 301 682 q 422 703 374 703 q 507 692 471 703 q 565 659 543 682 q 601 611 588 636 q 622 547 615 586 q 630 476 628 508 q 632 397 632 444 q 630 318 632 350 q 622 247 628 286 q 601 183 615 208 q 565 135 588 158 q 507 102 543 113 q 422 92 471 92 m 422 -19 q 580 4 514 -19 q 682 64 646 28 q 740 158 718 100 q 767 270 761 217 q 772 397 772 324 q 767 524 772 471 q 740 636 761 578 q 682 731 718 694 q 580 790 646 767 q 422 814 514 814 q 265 790 331 814 q 163 731 199 767 q 105 636 126 694 q 78 524 83 578 q 72 397 72 471 q 78 270 72 324 q 105 158 83 217 q 163 64 126 100 q 265 4 199 28 q 422 -19 331 -19 m 272 908 q 210 933 224 908 q 196 1001 196 958 q 198 1035 196 1022 q 207 1065 200 1049 q 230 1088 214 1081 q 272 1096 246 1096 q 325 1080 307 1096 q 347 1047 343 1064 q 350 1001 350 1029 q 347 956 350 974 q 325 924 343 939 q 272 908 307 908 m 568 908 q 517 924 535 908 q 497 956 500 939 q 493 1001 493 974 q 497 1047 493 1029 q 517 1080 500 1064 q 568 1096 535 1096 q 612 1088 594 1096 q 636 1065 629 1081 q 645 1035 643 1049 q 647 1001 647 1022 q 644 956 647 974 q 622 924 640 939 q 568 908 603 908 z "},"÷":{"ha":817,"x_min":131,"x_max":686,"o":"m 131 389 l 686 389 l 686 494 l 131 494 l 131 389 m 407 104 q 344 129 358 104 q 331 196 331 154 q 334 241 331 224 q 356 274 338 258 q 407 289 374 289 q 472 264 457 289 q 486 196 486 239 q 483 152 486 169 q 460 119 479 135 q 407 104 442 104 m 407 581 q 344 605 358 581 q 331 672 331 629 q 333 706 331 692 q 342 735 335 719 q 365 758 349 750 q 407 765 381 765 q 450 758 433 765 q 474 735 467 750 q 484 706 482 719 q 486 672 486 692 q 482 628 486 646 q 460 596 478 611 q 407 581 442 581 z "},"ø":{"ha":844,"x_min":72,"x_max":772,"o":"m 226 -160 l 321 -160 l 358 -15 q 422 -19 389 -19 q 580 4 514 -19 q 682 64 646 28 q 740 158 718 100 q 767 270 761 217 q 772 397 772 324 q 765 526 772 472 q 740 637 758 581 q 680 732 721 693 q 576 792 639 771 l 619 953 l 524 953 l 485 810 q 422 814 456 814 q 265 790 331 814 q 163 731 199 767 q 105 636 126 694 q 78 524 83 578 q 72 397 72 471 q 79 268 72 322 q 105 157 86 214 q 165 61 124 100 q 269 1 207 22 l 226 -160 m 213 397 q 215 476 213 444 q 223 547 217 508 q 243 611 229 586 q 279 659 257 636 q 338 692 301 682 q 422 703 374 703 q 456 701 446 703 l 300 119 q 228 219 244 153 q 213 397 213 286 m 422 92 q 388 93 399 92 l 544 674 q 615 573 599 640 q 632 397 632 506 q 630 318 632 350 q 622 247 628 286 q 601 183 615 208 q 565 135 588 158 q 507 102 543 113 q 422 92 471 92 z "},"ù":{"ha":967,"x_min":72,"x_max":894,"o":"m 156 794 l 72 794 l 72 700 l 156 700 l 156 229 q 210 43 156 106 q 396 -19 265 -19 q 686 81 547 -19 l 718 0 l 894 0 l 894 94 l 811 94 l 811 794 l 588 794 l 588 700 l 671 700 l 671 181 q 438 92 560 92 q 328 128 360 92 q 296 244 296 164 l 296 794 l 156 794 m 550 864 l 286 1044 l 364 1147 l 610 943 l 550 864 z "},"ú":{"ha":967,"x_min":72,"x_max":894,"o":"m 156 794 l 72 794 l 72 700 l 156 700 l 156 229 q 210 43 156 106 q 396 -19 265 -19 q 686 81 547 -19 l 718 0 l 894 0 l 894 94 l 811 94 l 811 794 l 588 794 l 588 700 l 671 700 l 671 181 q 438 92 560 92 q 328 128 360 92 q 296 244 296 164 l 296 794 l 156 794 m 451 864 l 715 1044 l 638 1147 l 392 943 l 451 864 z "},"û":{"ha":967,"x_min":72,"x_max":894,"o":"m 156 794 l 72 794 l 72 700 l 156 700 l 156 229 q 210 43 156 106 q 396 -19 265 -19 q 686 81 547 -19 l 718 0 l 894 0 l 894 94 l 811 94 l 811 794 l 588 794 l 588 700 l 671 700 l 671 181 q 438 92 560 92 q 328 128 360 92 q 296 244 296 164 l 296 794 l 156 794 m 343 867 l 493 1003 l 644 867 l 708 931 l 525 1140 l 463 1140 l 279 931 l 343 867 z "},"ü":{"ha":967,"x_min":72,"x_max":894,"o":"m 296 794 l 72 794 l 72 700 l 156 700 l 156 229 q 210 43 156 106 q 396 -19 265 -19 q 686 81 547 -19 l 718 0 l 894 0 l 894 94 l 811 94 l 811 794 l 588 794 l 588 700 l 671 700 l 671 181 q 438 92 560 92 q 328 128 360 92 q 296 244 296 164 l 296 794 m 343 908 q 281 933 294 908 q 267 1001 267 958 q 269 1035 267 1022 q 278 1065 271 1049 q 301 1088 285 1081 q 343 1096 317 1096 q 396 1080 378 1096 q 417 1047 414 1064 q 421 1001 421 1029 q 417 956 421 974 q 396 924 414 939 q 343 908 378 908 m 639 908 q 588 924 606 908 q 567 956 571 939 q 564 1001 564 974 q 567 1047 564 1029 q 588 1080 571 1064 q 639 1096 606 1096 q 683 1088 665 1096 q 707 1065 700 1081 q 716 1035 714 1049 q 718 1001 718 1022 q 715 956 718 974 q 692 924 711 939 q 639 908 674 908 z "},"ý":{"ha":794,"x_min":3,"x_max":792,"o":"m 122 -300 l 281 -300 q 350 -278 325 -300 q 392 -210 375 -256 l 733 700 l 792 700 l 792 794 l 524 794 l 524 700 l 592 700 l 397 167 l 201 700 l 271 700 l 271 794 l 3 794 l 3 700 l 61 700 l 332 -15 l 288 -137 q 264 -180 276 -168 q 218 -194 251 -192 l 122 -203 l 122 -300 m 372 864 l 636 1044 l 558 1147 l 313 943 l 372 864 z "},"þ":{"ha":872,"x_min":44,"x_max":794,"o":"m 44 932 l 128 932 l 128 -201 l 44 -201 l 44 -300 l 379 -300 l 379 -201 l 268 -201 l 268 24 q 483 -19 382 -19 q 624 4 565 -19 q 715 64 682 28 q 766 158 747 100 q 790 270 785 217 q 794 397 794 324 q 790 524 794 471 q 766 636 785 578 q 715 731 747 694 q 624 790 682 767 q 483 814 565 814 q 268 738 375 814 l 268 1031 l 44 1031 l 44 932 m 461 697 q 564 674 524 697 q 623 604 604 650 q 648 512 642 558 q 654 397 654 465 q 648 274 654 321 q 623 182 642 226 q 564 117 604 138 q 461 96 524 96 q 268 132 356 96 l 268 621 q 461 697 357 697 z "},"ÿ":{"ha":794,"x_min":3,"x_max":792,"o":"m 122 -300 l 281 -300 q 350 -278 325 -300 q 392 -210 375 -256 l 733 700 l 792 700 l 792 794 l 524 794 l 524 700 l 592 700 l 397 167 l 201 700 l 271 700 l 271 794 l 3 794 l 3 700 l 61 700 l 332 -15 l 288 -137 q 264 -180 276 -168 q 218 -194 251 -192 l 122 -203 l 122 -300 m 275 908 q 213 933 226 908 q 199 1001 199 958 q 201 1035 199 1022 q 210 1065 203 1049 q 233 1088 217 1081 q 275 1096 249 1096 q 328 1080 310 1096 q 349 1047 346 1064 q 353 1001 353 1029 q 349 956 353 974 q 328 924 346 939 q 275 908 310 908 m 571 908 q 520 924 538 908 q 499 956 503 939 q 496 1001 496 974 q 499 1047 496 1029 q 520 1080 503 1064 q 571 1096 538 1096 q 615 1088 597 1096 q 639 1065 632 1081 q 648 1035 646 1049 q 650 1001 650 1022 q 647 956 650 974 q 624 924 643 939 q 571 908 606 908 z "},"Ā":{"ha":929,"x_min":4,"x_max":925,"o":"m 369 1014 l 68 94 l 4 94 l 4 0 l 292 0 l 292 94 l 208 94 l 278 311 l 649 311 l 719 94 l 636 94 l 636 0 l 925 0 l 925 94 l 860 94 l 558 1014 l 369 1014 m 464 885 l 614 424 l 315 424 l 464 885 m 282 1167 l 646 1167 l 646 1279 l 282 1279 l 282 1167 z "},"ā":{"ha":844,"x_min":74,"x_max":772,"o":"m 597 0 l 772 0 l 772 94 l 689 94 l 689 592 q 403 814 689 814 q 180 751 243 814 q 107 560 117 688 l 224 554 q 265 667 228 632 q 399 703 301 703 q 507 674 465 703 q 549 583 549 646 l 549 460 l 322 446 q 125 379 176 435 q 74 203 74 324 q 128 38 74 94 q 307 -19 182 -19 q 575 79 450 -19 l 597 0 m 343 86 q 240 115 271 86 q 210 207 210 144 q 238 315 210 285 q 349 349 267 344 l 549 361 l 549 171 q 343 86 460 86 m 240 947 l 604 947 l 604 1060 l 240 1060 l 240 947 z "},"Ă":{"ha":929,"x_min":4,"x_max":925,"o":"m 369 1014 l 68 94 l 4 94 l 4 0 l 292 0 l 292 94 l 208 94 l 278 311 l 649 311 l 719 94 l 636 94 l 636 0 l 925 0 l 925 94 l 860 94 l 558 1014 l 369 1014 m 464 885 l 614 424 l 315 424 l 464 885 m 647 1307 q 641 1232 647 1263 q 617 1171 635 1201 q 561 1124 600 1140 q 464 1108 522 1108 q 318 1161 354 1108 q 282 1307 282 1214 l 371 1307 q 375 1257 371 1275 q 401 1223 379 1239 q 464 1207 422 1207 q 527 1223 506 1207 q 553 1257 549 1239 q 557 1307 557 1275 l 647 1307 z "},"ă":{"ha":844,"x_min":74,"x_max":772,"o":"m 597 0 l 772 0 l 772 94 l 689 94 l 689 592 q 403 814 689 814 q 180 751 243 814 q 107 560 117 688 l 224 554 q 265 667 228 632 q 399 703 301 703 q 507 674 465 703 q 549 583 549 646 l 549 460 l 322 446 q 125 379 176 435 q 74 203 74 324 q 128 38 74 94 q 307 -19 182 -19 q 575 79 450 -19 l 597 0 m 343 86 q 240 115 271 86 q 210 207 210 144 q 238 315 210 285 q 349 349 267 344 l 549 361 l 549 171 q 343 86 460 86 m 592 1088 q 585 1013 592 1043 q 562 951 579 982 q 506 905 544 921 q 408 889 467 889 q 263 942 299 889 q 226 1088 226 994 l 315 1088 q 319 1038 315 1056 q 345 1003 324 1019 q 408 988 367 988 q 472 1003 450 988 q 497 1038 493 1019 q 501 1088 501 1056 l 592 1088 z "},"Ą":{"ha":929,"x_min":4,"x_max":988,"o":"m 918 -150 q 810 -233 879 -233 q 761 -216 778 -233 q 744 -168 744 -199 q 757 -119 744 -139 q 810 -74 769 -99 l 924 0 l 925 0 l 925 94 l 860 94 l 558 1014 l 369 1014 l 68 94 l 4 94 l 4 0 l 292 0 l 292 94 l 208 94 l 278 311 l 649 311 l 719 94 l 636 94 l 636 0 l 785 0 l 761 -12 q 668 -86 693 -47 q 643 -182 643 -125 q 682 -286 643 -250 q 796 -322 721 -322 q 908 -288 857 -322 q 988 -196 958 -254 l 918 -150 m 464 885 l 614 424 l 315 424 l 464 885 z "},"ą":{"ha":844,"x_min":74,"x_max":836,"o":"m 767 -150 q 658 -233 728 -233 q 610 -216 626 -233 q 593 -168 593 -199 q 606 -119 593 -139 q 658 -74 618 -99 l 772 0 l 772 94 l 689 94 l 689 592 q 403 814 689 814 q 180 751 243 814 q 107 560 117 688 l 224 554 q 265 667 228 632 q 399 703 301 703 q 507 674 465 703 q 549 583 549 646 l 549 460 l 322 446 q 125 379 176 435 q 74 203 74 324 q 128 38 74 94 q 307 -19 182 -19 q 575 79 450 -19 l 597 0 l 633 0 l 610 -12 q 517 -86 542 -47 q 492 -182 492 -125 q 531 -286 492 -250 q 644 -322 569 -322 q 756 -288 706 -322 q 836 -196 807 -254 l 767 -150 m 343 86 q 240 115 271 86 q 210 207 210 144 q 238 315 210 285 q 349 349 267 344 l 549 361 l 549 171 q 343 86 460 86 z "},"Ć":{"ha":871,"x_min":72,"x_max":797,"o":"m 694 1014 l 694 926 q 456 1033 621 1033 q 289 1010 358 1033 q 178 946 219 986 q 113 836 136 906 q 81 691 89 767 q 72 507 72 615 q 76 373 72 429 q 89 258 79 317 q 117 160 99 200 q 165 83 135 119 q 236 26 194 47 q 336 -7 278 6 q 469 -19 394 -19 q 631 3 567 -19 q 728 75 694 26 q 777 178 763 124 q 797 315 792 232 l 681 321 q 632 155 676 213 q 469 97 588 97 q 352 116 400 97 q 277 164 304 135 q 236 250 250 193 q 219 361 222 307 q 215 507 215 415 q 220 652 215 593 q 240 765 225 711 q 283 851 256 819 q 355 901 310 882 q 464 919 400 919 q 635 863 581 919 q 696 686 689 806 l 797 686 l 797 1014 l 694 1014 m 389 1083 l 653 1264 l 575 1367 l 329 1163 l 389 1083 z "},"ć":{"ha":788,"x_min":72,"x_max":710,"o":"m 606 794 l 607 725 q 400 814 533 814 q 254 790 315 814 q 158 731 193 767 q 103 637 124 694 q 78 525 83 579 q 72 397 72 471 q 77 270 72 322 q 101 159 82 218 q 155 64 121 100 q 251 4 189 28 q 401 -19 314 -19 q 552 -1 492 -19 q 645 54 613 17 q 692 135 678 92 q 710 246 706 179 l 597 251 q 555 130 593 168 q 411 92 517 92 q 321 108 358 92 q 263 150 283 125 q 230 217 242 175 q 215 299 218 260 q 213 397 213 339 q 219 513 213 465 q 244 607 225 560 q 303 678 263 654 q 407 703 344 703 q 611 503 592 703 l 701 503 l 701 794 l 606 794 m 328 864 l 592 1044 l 514 1147 l 268 943 l 328 864 z "},"Ĉ":{"ha":871,"x_min":72,"x_max":797,"o":"m 694 1014 l 694 926 q 456 1033 621 1033 q 289 1010 358 1033 q 178 946 219 986 q 113 836 136 906 q 81 691 89 767 q 72 507 72 615 q 76 373 72 429 q 89 258 79 317 q 117 160 99 200 q 165 83 135 119 q 236 26 194 47 q 336 -7 278 6 q 469 -19 394 -19 q 631 3 567 -19 q 728 75 694 26 q 777 178 763 124 q 797 315 792 232 l 681 321 q 632 155 676 213 q 469 97 588 97 q 352 116 400 97 q 277 164 304 135 q 236 250 250 193 q 219 361 222 307 q 215 507 215 415 q 220 652 215 593 q 240 765 225 711 q 283 851 256 819 q 355 901 310 882 q 464 919 400 919 q 635 863 581 919 q 696 686 689 806 l 797 686 l 797 1014 l 694 1014 m 313 1086 l 463 1222 l 614 1086 l 678 1150 l 494 1360 l 432 1360 l 249 1150 l 313 1086 z "},"ĉ":{"ha":788,"x_min":72,"x_max":710,"o":"m 606 794 l 607 725 q 400 814 533 814 q 254 790 315 814 q 158 731 193 767 q 103 637 124 694 q 78 525 83 579 q 72 397 72 471 q 77 270 72 322 q 101 159 82 218 q 155 64 121 100 q 251 4 189 28 q 401 -19 314 -19 q 552 -1 492 -19 q 645 54 613 17 q 692 135 678 92 q 710 246 706 179 l 597 251 q 555 130 593 168 q 411 92 517 92 q 321 108 358 92 q 263 150 283 125 q 230 217 242 175 q 215 299 218 260 q 213 397 213 339 q 219 513 213 465 q 244 607 225 560 q 303 678 263 654 q 407 703 344 703 q 611 503 592 703 l 701 503 l 701 794 l 606 794 m 257 867 l 407 1003 l 558 867 l 622 931 l 439 1140 l 376 1140 l 193 931 l 257 867 z "},"Ċ":{"ha":871,"x_min":72,"x_max":797,"o":"m 694 1014 l 694 926 q 456 1033 621 1033 q 289 1010 358 1033 q 178 946 219 986 q 113 836 136 906 q 81 691 89 767 q 72 507 72 615 q 76 373 72 429 q 89 258 79 317 q 117 160 99 200 q 165 83 135 119 q 236 26 194 47 q 336 -7 278 6 q 469 -19 394 -19 q 631 3 567 -19 q 728 75 694 26 q 777 178 763 124 q 797 315 792 232 l 681 321 q 632 155 676 213 q 469 97 588 97 q 352 116 400 97 q 277 164 304 135 q 236 250 250 193 q 219 361 222 307 q 215 507 215 415 q 220 652 215 593 q 240 765 225 711 q 283 851 256 819 q 355 901 310 882 q 464 919 400 919 q 635 863 581 919 q 696 686 689 806 l 797 686 l 797 1014 l 694 1014 m 461 1119 q 522 1138 500 1119 q 547 1176 543 1156 q 551 1226 551 1196 q 547 1278 551 1258 q 522 1317 543 1299 q 461 1335 500 1335 q 403 1317 424 1335 q 378 1278 382 1299 q 374 1226 374 1258 q 376 1189 374 1204 q 386 1156 378 1174 q 413 1128 394 1138 q 461 1119 432 1119 z "},"ċ":{"ha":788,"x_min":72,"x_max":710,"o":"m 606 794 l 607 725 q 400 814 533 814 q 254 790 315 814 q 158 731 193 767 q 103 637 124 694 q 78 525 83 579 q 72 397 72 471 q 77 270 72 322 q 101 159 82 218 q 155 64 121 100 q 251 4 189 28 q 401 -19 314 -19 q 552 -1 492 -19 q 645 54 613 17 q 692 135 678 92 q 710 246 706 179 l 597 251 q 555 130 593 168 q 411 92 517 92 q 321 108 358 92 q 263 150 283 125 q 230 217 242 175 q 215 299 218 260 q 213 397 213 339 q 219 513 213 465 q 244 607 225 560 q 303 678 263 654 q 407 703 344 703 q 611 503 592 703 l 701 503 l 701 794 l 606 794 m 419 900 q 480 918 458 900 q 506 956 501 936 q 510 1007 510 976 q 506 1059 510 1039 q 480 1097 501 1079 q 419 1115 458 1115 q 361 1097 382 1115 q 336 1059 340 1079 q 332 1007 332 1039 q 334 969 332 985 q 344 936 336 954 q 372 909 353 918 q 419 900 390 900 z "},"Č":{"ha":871,"x_min":72,"x_max":797,"o":"m 694 1014 l 694 926 q 456 1033 621 1033 q 289 1010 358 1033 q 178 946 219 986 q 113 836 136 906 q 81 691 89 767 q 72 507 72 615 q 76 373 72 429 q 89 258 79 317 q 117 160 99 200 q 165 83 135 119 q 236 26 194 47 q 336 -7 278 6 q 469 -19 394 -19 q 631 3 567 -19 q 728 75 694 26 q 777 178 763 124 q 797 315 792 232 l 681 321 q 632 155 676 213 q 469 97 588 97 q 352 116 400 97 q 277 164 304 135 q 236 250 250 193 q 219 361 222 307 q 215 507 215 415 q 220 652 215 593 q 240 765 225 711 q 283 851 256 819 q 355 901 310 882 q 464 919 400 919 q 635 863 581 919 q 696 686 689 806 l 797 686 l 797 1014 l 694 1014 m 614 1368 l 464 1232 l 313 1368 l 249 1304 l 432 1094 l 494 1094 l 678 1304 l 614 1368 z "},"č":{"ha":788,"x_min":72,"x_max":710,"o":"m 606 794 l 607 725 q 400 814 533 814 q 254 790 315 814 q 158 731 193 767 q 103 637 124 694 q 78 525 83 579 q 72 397 72 471 q 77 270 72 322 q 101 159 82 218 q 155 64 121 100 q 251 4 189 28 q 401 -19 314 -19 q 552 -1 492 -19 q 645 54 613 17 q 692 135 678 92 q 710 246 706 179 l 597 251 q 555 130 593 168 q 411 92 517 92 q 321 108 358 92 q 263 150 283 125 q 230 217 242 175 q 215 299 218 260 q 213 397 213 339 q 219 513 213 465 q 244 607 225 560 q 303 678 263 654 q 407 703 344 703 q 611 503 592 703 l 701 503 l 701 794 l 606 794 m 553 1149 l 403 1013 l 251 1149 l 188 1085 l 371 875 l 433 875 l 617 1085 l 553 1149 z "},"Ď":{"ha":967,"x_min":92,"x_max":894,"o":"m 318 1014 l 92 1014 l 92 919 l 175 919 l 175 94 l 92 94 l 92 0 l 493 0 q 674 24 600 0 q 790 86 747 47 q 857 193 833 125 q 888 331 881 261 q 894 507 894 401 q 891 634 894 581 q 878 744 888 688 q 850 839 868 800 q 802 913 832 878 q 731 969 772 949 q 629 1001 689 989 q 493 1014 569 1014 l 318 1014 m 481 901 q 601 883 551 901 q 681 833 651 864 q 725 749 710 803 q 745 642 740 696 q 750 507 750 589 q 745 372 750 425 q 725 265 740 318 q 681 181 710 211 q 601 131 651 150 q 481 113 551 113 l 318 113 l 318 901 l 481 901 m 635 1368 l 485 1232 l 333 1368 l 269 1304 l 453 1094 l 515 1094 l 699 1304 l 635 1368 z "},"ď":{"ha":944,"x_min":72,"x_max":957,"o":"m 635 0 l 811 0 l 811 94 l 728 94 l 728 1031 l 504 1031 l 504 936 l 588 936 l 588 775 q 383 814 482 814 q 244 790 303 814 q 153 731 186 767 q 102 636 121 694 q 78 524 83 578 q 72 397 72 471 q 78 270 72 324 q 101 158 83 217 q 152 64 119 100 q 242 4 185 28 q 379 -19 300 -19 q 618 71 507 -19 l 635 0 m 413 92 q 324 107 361 92 q 266 148 288 122 q 233 215 244 174 q 217 297 221 256 q 213 397 213 339 q 217 499 213 457 q 233 583 221 542 q 268 649 246 624 q 327 688 290 674 q 415 703 364 703 q 588 669 503 703 l 588 156 q 413 92 507 92 m 811 1011 q 820 949 811 986 q 829 892 829 911 q 786 794 829 846 l 822 753 q 957 1007 957 860 q 883 1089 957 1089 q 811 1011 811 1089 z "},"Đ":{"ha":967,"x_min":92,"x_max":894,"o":"m 92 919 l 175 919 l 175 557 l 92 557 l 92 451 l 175 451 l 175 94 l 92 94 l 92 0 l 493 0 q 674 24 600 0 q 790 86 747 47 q 857 193 833 125 q 888 331 881 261 q 894 507 894 401 q 891 634 894 581 q 878 744 888 688 q 850 839 868 800 q 802 913 832 878 q 731 969 772 949 q 629 1001 689 989 q 493 1014 569 1014 l 92 1014 l 92 919 m 481 901 q 601 883 551 901 q 681 833 651 864 q 725 749 710 803 q 745 642 740 696 q 750 507 750 589 q 745 372 750 425 q 725 265 740 318 q 681 181 710 211 q 601 131 651 150 q 481 113 551 113 l 318 113 l 318 451 l 581 451 l 581 557 l 318 557 l 318 901 l 481 901 z "},"đ":{"ha":883,"x_min":72,"x_max":846,"o":"m 635 0 l 811 0 l 811 94 l 728 94 l 728 836 l 846 836 l 846 931 l 728 931 l 728 1031 l 588 1031 l 588 931 l 432 931 l 432 836 l 588 836 l 588 706 q 383 744 482 744 q 244 723 303 744 q 153 668 186 701 q 102 581 121 635 q 78 478 83 528 q 72 363 72 429 q 78 247 72 296 q 101 144 83 197 q 152 57 119 90 q 242 2 185 24 q 379 -19 300 -19 q 618 71 507 -19 l 635 0 m 413 92 q 308 110 349 92 q 247 169 267 129 q 219 251 226 208 q 213 360 213 294 q 253 565 213 497 q 415 633 294 633 q 588 600 503 633 l 588 156 q 413 92 507 92 z "},"Ē":{"ha":883,"x_min":92,"x_max":804,"o":"m 92 0 l 804 0 l 804 246 l 700 246 l 700 113 l 318 113 l 318 458 l 688 458 l 688 572 l 318 572 l 318 901 l 672 901 l 672 772 l 776 772 l 776 1014 l 92 1014 l 92 919 l 175 919 l 175 94 l 92 94 l 92 0 m 260 1167 l 624 1167 l 624 1279 l 260 1279 l 260 1167 z "},"ē":{"ha":822,"x_min":81,"x_max":750,"o":"m 424 -19 q 578 1 515 -19 q 672 60 640 21 q 718 142 704 100 q 738 244 732 185 l 622 250 q 576 132 617 172 q 426 92 535 92 q 265 152 307 92 q 219 361 222 213 l 750 361 l 750 397 q 744 524 750 471 q 719 636 739 578 q 665 731 700 694 q 568 790 631 767 q 418 814 506 814 q 267 790 331 814 q 169 731 204 767 q 113 636 133 694 q 86 524 92 578 q 81 397 81 471 q 95 217 81 290 q 147 89 110 144 q 251 7 183 33 q 424 -19 319 -19 m 417 703 q 568 643 529 703 q 611 463 607 583 l 221 463 q 266 643 225 583 q 417 703 307 703 m 243 947 l 607 947 l 607 1060 l 243 1060 l 243 947 z "},"Ĕ":{"ha":883,"x_min":92,"x_max":804,"o":"m 92 919 l 175 919 l 175 901 l 175 94 l 92 94 l 92 0 l 804 0 l 804 246 l 700 246 l 700 113 l 318 113 l 318 458 l 688 458 l 688 572 l 318 572 l 318 901 l 672 901 l 672 772 l 776 772 l 776 1014 l 92 1014 l 92 919 m 625 1307 q 619 1232 625 1263 q 595 1171 613 1201 q 539 1124 578 1140 q 442 1108 500 1108 q 296 1161 332 1108 q 260 1307 260 1214 l 349 1307 q 353 1257 349 1275 q 378 1223 357 1239 q 442 1207 400 1207 q 505 1223 483 1207 q 531 1257 526 1239 q 535 1307 535 1275 l 625 1307 z "},"ĕ":{"ha":822,"x_min":81,"x_max":750,"o":"m 424 -19 q 578 1 515 -19 q 672 60 640 21 q 718 142 704 100 q 738 244 732 185 l 622 250 q 576 132 617 172 q 426 92 535 92 q 265 152 307 92 q 219 361 222 213 l 750 361 l 750 397 q 744 524 750 471 q 719 636 739 578 q 665 731 700 694 q 568 790 631 767 q 418 814 506 814 q 267 790 331 814 q 169 731 204 767 q 113 636 133 694 q 86 524 92 578 q 81 397 81 471 q 95 217 81 290 q 147 89 110 144 q 251 7 183 33 q 424 -19 319 -19 m 417 703 q 568 643 529 703 q 611 463 607 583 l 221 463 q 266 643 225 583 q 417 703 307 703 m 608 1088 q 602 1013 608 1043 q 578 951 596 982 q 522 905 561 921 q 425 889 483 889 q 279 942 315 889 q 243 1088 243 994 l 332 1088 q 336 1038 332 1056 q 362 1003 340 1019 q 425 988 383 988 q 488 1003 467 988 q 514 1038 510 1019 q 518 1088 518 1056 l 608 1088 z "},"Ė":{"ha":883,"x_min":92,"x_max":804,"o":"m 92 919 l 175 919 l 175 901 l 175 94 l 92 94 l 92 0 l 804 0 l 804 246 l 700 246 l 700 113 l 318 113 l 318 458 l 688 458 l 688 572 l 318 572 l 318 901 l 672 901 l 672 772 l 776 772 l 776 1014 l 92 1014 l 92 919 m 454 1119 q 515 1138 493 1119 q 540 1176 536 1156 q 544 1226 544 1196 q 540 1278 544 1258 q 515 1317 536 1299 q 454 1335 493 1335 q 396 1317 417 1335 q 371 1278 375 1299 q 367 1226 367 1258 q 369 1189 367 1204 q 379 1156 371 1174 q 406 1128 388 1138 q 454 1119 425 1119 z "},"ė":{"ha":822,"x_min":81,"x_max":750,"o":"m 424 -19 q 578 1 515 -19 q 672 60 640 21 q 718 142 704 100 q 738 244 732 185 l 622 250 q 576 132 617 172 q 426 92 535 92 q 265 152 307 92 q 219 361 222 213 l 750 361 l 750 397 q 744 524 750 471 q 719 636 739 578 q 665 731 700 694 q 568 790 631 767 q 418 814 506 814 q 267 790 331 814 q 169 731 204 767 q 113 636 133 694 q 86 524 92 578 q 81 397 81 471 q 95 217 81 290 q 147 89 110 144 q 251 7 183 33 q 424 -19 319 -19 m 417 703 q 568 643 529 703 q 611 463 607 583 l 221 463 q 266 643 225 583 q 417 703 307 703 m 424 900 q 484 918 463 900 q 510 956 506 936 q 514 1007 514 976 q 510 1059 514 1039 q 484 1097 506 1079 q 424 1115 463 1115 q 365 1097 386 1115 q 340 1059 344 1079 q 336 1007 336 1039 q 338 969 336 985 q 349 936 340 954 q 376 909 357 918 q 424 900 394 900 z "},"Ę":{"ha":883,"x_min":92,"x_max":868,"o":"m 92 0 l 665 0 l 642 -12 q 549 -86 574 -47 q 524 -182 524 -125 q 563 -286 524 -250 q 676 -322 601 -322 q 788 -288 738 -322 q 868 -196 839 -254 l 799 -150 q 690 -233 760 -233 q 642 -216 658 -233 q 625 -168 625 -199 q 638 -119 625 -139 q 690 -74 650 -99 l 804 0 l 804 246 l 700 246 l 700 113 l 318 113 l 318 458 l 688 458 l 688 572 l 318 572 l 318 901 l 672 901 l 672 772 l 776 772 l 776 1014 l 92 1014 l 92 919 l 175 919 l 175 94 l 92 94 l 92 0 z "},"ę":{"ha":822,"x_min":81,"x_max":750,"o":"m 539 -150 q 431 -233 500 -233 q 382 -216 399 -233 q 365 -168 365 -199 q 378 -119 365 -139 q 431 -74 390 -99 l 526 -11 q 651 43 604 3 q 715 130 699 83 q 738 244 731 176 l 622 250 q 576 132 617 172 q 426 92 535 92 q 265 152 307 92 q 219 361 222 213 l 750 361 l 750 397 q 744 524 750 471 q 719 636 739 578 q 665 731 700 694 q 568 790 631 767 q 418 814 506 814 q 267 790 331 814 q 169 731 204 767 q 113 636 133 694 q 86 524 92 578 q 81 397 81 471 q 142 94 81 193 q 372 -17 203 -4 q 288 -88 311 -50 q 264 -182 264 -126 q 303 -286 264 -250 q 417 -322 342 -322 q 528 -288 478 -322 q 608 -196 579 -254 l 539 -150 m 417 703 q 568 643 529 703 q 611 463 607 583 l 221 463 q 266 643 225 583 q 417 703 307 703 z "},"Ě":{"ha":883,"x_min":92,"x_max":804,"o":"m 92 0 l 804 0 l 804 246 l 700 246 l 700 113 l 318 113 l 318 458 l 688 458 l 688 572 l 318 572 l 318 901 l 672 901 l 672 772 l 776 772 l 776 1014 l 92 1014 l 92 919 l 175 919 l 175 94 l 92 94 l 92 0 m 615 1368 l 465 1232 l 314 1368 l 250 1304 l 433 1094 l 496 1094 l 679 1304 l 615 1368 z "},"ě":{"ha":822,"x_min":81,"x_max":750,"o":"m 424 -19 q 578 1 515 -19 q 672 60 640 21 q 718 142 704 100 q 738 244 732 185 l 622 250 q 576 132 617 172 q 426 92 535 92 q 265 152 307 92 q 219 361 222 213 l 750 361 l 750 397 q 744 524 750 471 q 719 636 739 578 q 665 731 700 694 q 568 790 631 767 q 418 814 506 814 q 267 790 331 814 q 169 731 204 767 q 113 636 133 694 q 86 524 92 578 q 81 397 81 471 q 95 217 81 290 q 147 89 110 144 q 251 7 183 33 q 424 -19 319 -19 m 417 703 q 568 643 529 703 q 611 463 607 583 l 221 463 q 266 643 225 583 q 417 703 307 703 m 576 1149 l 426 1013 l 275 1149 l 211 1085 l 394 875 l 457 875 l 640 1085 l 576 1149 z "},"Ĝ":{"ha":946,"x_min":72,"x_max":813,"o":"m 531 418 l 688 418 l 688 294 q 626 147 679 197 q 461 97 574 97 q 364 108 404 97 q 297 145 324 119 q 253 201 269 171 q 228 283 236 232 q 218 383 221 335 q 215 507 215 432 q 219 649 215 593 q 239 762 224 706 q 282 849 254 818 q 358 900 310 881 q 475 919 406 919 q 643 860 594 919 q 700 686 692 801 l 803 686 l 803 1014 l 699 1014 l 699 925 q 468 1033 632 1033 q 295 1009 367 1033 q 180 944 224 985 q 113 833 136 903 q 81 690 89 764 q 72 507 72 615 q 76 353 72 415 q 94 226 81 292 q 133 120 107 161 q 200 45 158 79 q 305 -4 242 11 q 454 -19 368 -19 q 715 103 633 -19 l 738 0 l 813 0 l 813 513 l 531 513 l 531 418 m 318 1086 l 468 1222 l 619 1086 l 683 1150 l 500 1360 l 438 1360 l 254 1150 l 318 1086 z "},"ĝ":{"ha":815,"x_min":65,"x_max":772,"o":"m 418 244 q 578 267 515 244 q 671 333 642 289 q 709 422 700 378 q 718 529 718 465 q 675 718 718 657 l 764 808 l 685 889 l 583 788 q 418 814 517 814 q 283 798 339 814 q 195 757 226 782 q 146 692 164 732 q 123 616 128 653 q 118 529 118 579 q 183 311 118 374 l 128 256 q 71 131 71 199 q 150 11 71 40 q 65 -137 65 -47 q 82 -219 65 -185 q 126 -272 99 -253 q 198 -302 153 -292 q 288 -316 243 -312 q 399 -319 333 -319 q 510 -317 468 -319 q 608 -303 551 -315 q 695 -268 664 -290 q 749 -201 726 -246 q 772 -94 772 -157 q 715 49 772 -1 q 554 100 658 100 l 244 100 q 183 149 183 100 q 214 214 183 183 l 265 265 q 418 244 326 244 m 418 343 q 284 388 315 343 q 253 529 253 433 q 284 670 253 625 q 418 715 315 715 q 552 670 521 715 q 583 529 583 625 q 552 388 583 433 q 418 343 521 343 m 404 -218 q 240 -199 293 -218 q 188 -117 188 -181 q 240 0 188 -46 l 513 0 q 573 -5 549 0 q 619 -33 597 -10 q 640 -96 640 -56 q 630 -153 640 -131 q 603 -188 619 -175 q 553 -208 586 -201 q 490 -217 521 -215 q 404 -218 458 -218 m 271 867 l 421 1003 l 572 867 l 636 931 l 453 1140 l 390 1140 l 207 931 l 271 867 z "},"Ğ":{"ha":946,"x_min":72,"x_max":813,"o":"m 531 418 l 688 418 l 688 294 q 626 147 679 197 q 461 97 574 97 q 364 108 404 97 q 297 145 324 119 q 253 201 269 171 q 228 283 236 232 q 218 383 221 335 q 215 507 215 432 q 219 649 215 593 q 239 762 224 706 q 282 849 254 818 q 358 900 310 881 q 475 919 406 919 q 643 860 594 919 q 700 686 692 801 l 803 686 l 803 1014 l 699 1014 l 699 925 q 468 1033 632 1033 q 295 1009 367 1033 q 180 944 224 985 q 113 833 136 903 q 81 690 89 764 q 72 507 72 615 q 76 353 72 415 q 94 226 81 292 q 133 120 107 161 q 200 45 158 79 q 305 -4 242 11 q 454 -19 368 -19 q 715 103 633 -19 l 738 0 l 813 0 l 813 513 l 531 513 l 531 418 m 649 1307 q 642 1232 649 1263 q 619 1171 636 1201 q 563 1124 601 1140 q 465 1108 524 1108 q 319 1161 356 1108 q 283 1307 283 1214 l 372 1307 q 376 1257 372 1275 q 402 1223 381 1239 q 465 1207 424 1207 q 528 1223 507 1207 q 554 1257 550 1239 q 558 1307 558 1275 l 649 1307 z "},"ğ":{"ha":815,"x_min":65,"x_max":772,"o":"m 418 244 q 578 267 515 244 q 671 333 642 289 q 709 422 700 378 q 718 529 718 465 q 675 718 718 657 l 764 808 l 685 889 l 583 788 q 418 814 517 814 q 283 798 339 814 q 195 757 226 782 q 146 692 164 732 q 123 616 128 653 q 118 529 118 579 q 183 311 118 374 l 128 256 q 71 131 71 199 q 150 11 71 40 q 65 -137 65 -47 q 82 -219 65 -185 q 126 -272 99 -253 q 198 -302 153 -292 q 288 -316 243 -312 q 399 -319 333 -319 q 510 -317 468 -319 q 608 -303 551 -315 q 695 -268 664 -290 q 749 -201 726 -246 q 772 -94 772 -157 q 715 49 772 -1 q 554 100 658 100 l 244 100 q 183 149 183 100 q 214 214 183 183 l 265 265 q 418 244 326 244 m 418 343 q 284 388 315 343 q 253 529 253 433 q 284 670 253 625 q 418 715 315 715 q 552 670 521 715 q 583 529 583 625 q 552 388 583 433 q 418 343 521 343 m 404 -218 q 240 -199 293 -218 q 188 -117 188 -181 q 240 0 188 -46 l 513 0 q 573 -5 549 0 q 619 -33 597 -10 q 640 -96 640 -56 q 630 -153 640 -131 q 603 -188 619 -175 q 553 -208 586 -201 q 490 -217 521 -215 q 404 -218 458 -218 m 604 1088 q 598 1013 604 1043 q 574 951 592 982 q 518 905 557 921 q 421 889 479 889 q 275 942 311 889 q 239 1088 239 994 l 328 1088 q 332 1038 328 1056 q 358 1003 336 1019 q 421 988 379 988 q 484 1003 463 988 q 510 1038 506 1019 q 514 1088 514 1056 l 604 1088 z "},"Ġ":{"ha":946,"x_min":72,"x_max":813,"o":"m 531 418 l 688 418 l 688 294 q 626 147 679 197 q 461 97 574 97 q 364 108 404 97 q 297 145 324 119 q 253 201 269 171 q 228 283 236 232 q 218 383 221 335 q 215 507 215 432 q 219 649 215 593 q 239 762 224 706 q 282 849 254 818 q 358 900 310 881 q 475 919 406 919 q 643 860 594 919 q 700 686 692 801 l 803 686 l 803 1014 l 699 1014 l 699 925 q 468 1033 632 1033 q 295 1009 367 1033 q 180 944 224 985 q 113 833 136 903 q 81 690 89 764 q 72 507 72 615 q 76 353 72 415 q 94 226 81 292 q 133 120 107 161 q 200 45 158 79 q 305 -4 242 11 q 454 -19 368 -19 q 715 103 633 -19 l 738 0 l 813 0 l 813 513 l 531 513 l 531 418 m 472 1119 q 533 1138 511 1119 q 558 1176 554 1156 q 563 1226 563 1196 q 558 1278 563 1258 q 533 1317 554 1299 q 472 1335 511 1335 q 414 1317 435 1335 q 389 1278 393 1299 q 385 1226 385 1258 q 387 1189 385 1204 q 397 1156 389 1174 q 424 1128 406 1138 q 472 1119 443 1119 z "},"ġ":{"ha":815,"x_min":65,"x_max":772,"o":"m 418 244 q 578 267 515 244 q 671 333 642 289 q 709 422 700 378 q 718 529 718 465 q 675 718 718 657 l 764 808 l 685 889 l 583 788 q 418 814 517 814 q 283 798 339 814 q 195 757 226 782 q 146 692 164 732 q 123 616 128 653 q 118 529 118 579 q 183 311 118 374 l 128 256 q 71 131 71 199 q 150 11 71 40 q 65 -137 65 -47 q 82 -219 65 -185 q 126 -272 99 -253 q 198 -302 153 -292 q 288 -316 243 -312 q 399 -319 333 -319 q 510 -317 468 -319 q 608 -303 551 -315 q 695 -268 664 -290 q 749 -201 726 -246 q 772 -94 772 -157 q 715 49 772 -1 q 554 100 658 100 l 244 100 q 183 149 183 100 q 214 214 183 183 l 265 265 q 418 244 326 244 m 418 343 q 284 388 315 343 q 253 529 253 433 q 284 670 253 625 q 418 715 315 715 q 552 670 521 715 q 583 529 583 625 q 552 388 583 433 q 418 343 521 343 m 404 -218 q 240 -199 293 -218 q 188 -117 188 -181 q 240 0 188 -46 l 513 0 q 573 -5 549 0 q 619 -33 597 -10 q 640 -96 640 -56 q 630 -153 640 -131 q 603 -188 619 -175 q 553 -208 586 -201 q 490 -217 521 -215 q 404 -218 458 -218 m 419 900 q 480 918 458 900 q 506 956 501 936 q 510 1007 510 976 q 506 1059 510 1039 q 480 1097 501 1079 q 419 1115 458 1115 q 361 1097 382 1115 q 336 1059 340 1079 q 332 1007 332 1039 q 334 969 332 985 q 344 936 336 954 q 372 909 353 918 q 419 900 390 900 z "},"Ģ":{"ha":946,"x_min":72,"x_max":813,"o":"m 531 418 l 688 418 l 688 294 q 626 147 679 197 q 461 97 574 97 q 364 108 404 97 q 297 145 324 119 q 253 201 269 171 q 228 283 236 232 q 218 383 221 335 q 215 507 215 432 q 219 649 215 593 q 239 762 224 706 q 282 849 254 818 q 358 900 310 881 q 475 919 406 919 q 643 860 594 919 q 700 686 692 801 l 803 686 l 803 1014 l 699 1014 l 699 925 q 468 1033 632 1033 q 295 1009 367 1033 q 180 944 224 985 q 113 833 136 903 q 81 690 89 764 q 72 507 72 615 q 76 353 72 415 q 94 226 81 292 q 133 120 107 161 q 200 45 158 79 q 305 -4 242 11 q 454 -19 368 -19 q 715 103 633 -19 l 738 0 l 813 0 l 813 513 l 531 513 l 531 418 m 401 -126 q 410 -189 401 -151 q 419 -246 419 -226 q 376 -343 419 -292 l 413 -385 q 547 -131 547 -278 q 474 -49 547 -49 q 401 -126 401 -49 z "},"ģ":{"ha":815,"x_min":65,"x_max":772,"o":"m 418 244 q 578 267 515 244 q 671 333 642 289 q 709 422 700 378 q 718 529 718 465 q 675 718 718 657 l 764 808 l 685 889 l 583 788 q 418 814 517 814 q 283 798 339 814 q 195 757 226 782 q 146 692 164 732 q 123 616 128 653 q 118 529 118 579 q 183 311 118 374 l 128 256 q 71 131 71 199 q 150 11 71 40 q 65 -137 65 -47 q 82 -219 65 -185 q 126 -272 99 -253 q 198 -302 153 -292 q 288 -316 243 -312 q 399 -319 333 -319 q 510 -317 468 -319 q 608 -303 551 -315 q 695 -268 664 -290 q 749 -201 726 -246 q 772 -94 772 -157 q 715 49 772 -1 q 554 100 658 100 l 244 100 q 183 149 183 100 q 214 214 183 183 l 265 265 q 418 244 326 244 m 418 343 q 284 388 315 343 q 253 529 253 433 q 284 670 253 625 q 418 715 315 715 q 552 670 521 715 q 583 529 583 625 q 552 388 583 433 q 418 343 521 343 m 404 -218 q 240 -199 293 -218 q 188 -117 188 -181 q 240 0 188 -46 l 513 0 q 573 -5 549 0 q 619 -33 597 -10 q 640 -96 640 -56 q 630 -153 640 -131 q 603 -188 619 -175 q 553 -208 586 -201 q 490 -217 521 -215 q 404 -218 458 -218 m 494 953 q 485 1015 494 978 q 476 1072 476 1053 q 519 1169 476 1118 l 483 1211 q 349 957 349 1104 q 422 875 349 875 q 494 953 494 875 z "},"Ĥ":{"ha":1076,"x_min":92,"x_max":985,"o":"m 675 0 l 985 0 l 985 94 l 901 94 l 901 919 l 985 919 l 985 1014 l 675 1014 l 675 919 l 758 919 l 758 564 l 318 564 l 318 919 l 401 919 l 401 1014 l 92 1014 l 92 919 l 175 919 l 175 94 l 92 94 l 92 0 l 401 0 l 401 94 l 318 94 l 318 450 l 758 450 l 758 94 l 675 94 l 675 0 m 389 1086 l 539 1222 l 690 1086 l 754 1150 l 571 1360 l 508 1360 l 325 1150 l 389 1086 z "},"ĥ":{"ha":960,"x_min":-11,"x_max":888,"o":"m 78 936 l 161 936 l 161 94 l 78 94 l 78 0 l 379 0 l 379 94 l 301 94 l 301 617 q 532 703 411 703 q 633 669 603 703 q 663 554 663 635 l 663 94 l 585 94 l 585 0 l 888 0 l 888 94 l 804 94 l 804 563 q 564 814 804 814 q 301 729 429 814 l 301 1031 l 78 1031 l 78 936 m 53 1085 l 203 1221 l 354 1085 l 418 1149 l 235 1358 l 172 1358 l -11 1149 l 53 1085 z "},"Ħ":{"ha":1076,"x_min":42,"x_max":1036,"o":"m 92 919 l 175 919 l 175 786 l 42 786 l 42 692 l 175 692 l 175 94 l 92 94 l 92 0 l 401 0 l 401 94 l 318 94 l 318 450 l 758 450 l 758 94 l 675 94 l 675 0 l 985 0 l 985 94 l 901 94 l 901 692 l 1036 692 l 1036 786 l 901 786 l 901 919 l 985 919 l 985 1014 l 675 1014 l 675 919 l 758 919 l 758 786 l 318 786 l 318 919 l 401 919 l 401 1014 l 92 1014 l 92 919 m 318 692 l 758 692 l 758 564 l 318 564 l 318 692 z "},"ħ":{"ha":733,"x_min":38,"x_max":888,"o":"m 78 0 l 379 0 l 379 94 l 301 94 l 301 547 q 532 633 411 633 q 633 599 603 633 q 663 485 663 565 l 663 94 l 585 94 l 585 0 l 888 0 l 888 94 l 804 94 l 804 493 q 564 744 804 744 q 301 660 429 744 l 301 836 l 451 836 l 451 931 l 301 931 l 301 1031 l 161 1031 l 161 931 l 38 931 l 38 836 l 161 836 l 161 94 l 78 94 l 78 0 z "},"Ĩ":{"ha":511,"x_min":21,"x_max":490,"o":"m 92 919 l 183 919 l 183 94 l 92 94 l 92 0 l 418 0 l 418 94 l 326 94 l 326 919 l 418 919 l 418 1014 l 92 1014 l 92 919 m 357 1149 q 435 1182 403 1149 q 490 1294 468 1215 l 404 1322 q 379 1276 393 1290 q 342 1261 365 1261 q 256 1286 324 1261 q 154 1311 189 1311 q 76 1278 108 1311 q 21 1165 43 1244 l 108 1138 q 133 1184 119 1169 q 171 1199 147 1199 q 256 1174 189 1199 q 357 1149 322 1149 z "},"ĩ":{"ha":467,"x_min":-19,"x_max":450,"o":"m 86 700 l 169 700 l 169 94 l 86 94 l 86 0 l 393 0 l 393 94 l 310 94 l 310 794 l 86 794 l 86 700 m 317 929 q 395 963 363 929 q 450 1075 428 996 l 364 1103 q 339 1056 353 1071 q 301 1042 325 1042 q 216 1067 283 1042 q 114 1092 149 1092 q 35 1058 68 1092 q -19 946 3 1025 l 68 918 q 93 965 79 950 q 131 979 107 979 q 215 954 149 979 q 317 929 282 929 z "},"Ī":{"ha":511,"x_min":74,"x_max":438,"o":"m 92 919 l 183 919 l 183 94 l 92 94 l 92 0 l 418 0 l 418 94 l 326 94 l 326 919 l 418 919 l 418 1014 l 92 1014 l 92 919 m 74 1167 l 438 1167 l 438 1279 l 74 1279 l 74 1167 z "},"ī":{"ha":467,"x_min":38,"x_max":401,"o":"m 86 700 l 169 700 l 169 94 l 86 94 l 86 0 l 393 0 l 393 94 l 310 94 l 310 794 l 86 794 l 86 700 m 38 947 l 401 947 l 401 1060 l 38 1060 l 38 947 z "},"Ĭ":{"ha":511,"x_min":74,"x_max":439,"o":"m 92 919 l 183 919 l 183 94 l 92 94 l 92 0 l 418 0 l 418 94 l 326 94 l 326 919 l 418 919 l 418 1014 l 92 1014 l 92 919 m 439 1307 q 433 1232 439 1263 q 409 1171 426 1201 q 353 1124 392 1140 q 256 1108 314 1108 q 110 1161 146 1108 q 74 1307 74 1214 l 163 1307 q 167 1257 163 1275 q 192 1223 171 1239 q 256 1207 214 1207 q 319 1223 297 1207 q 344 1257 340 1239 q 349 1307 349 1275 l 439 1307 z "},"ĭ":{"ha":467,"x_min":49,"x_max":414,"o":"m 86 700 l 169 700 l 169 94 l 86 94 l 86 0 l 393 0 l 393 94 l 310 94 l 310 794 l 86 794 l 86 700 m 414 1088 q 408 1013 414 1043 q 384 951 401 982 q 328 905 367 921 q 231 889 289 889 q 85 942 121 889 q 49 1088 49 994 l 138 1088 q 142 1038 138 1056 q 167 1003 146 1019 q 231 988 189 988 q 294 1003 272 988 q 319 1038 315 1019 q 324 1088 324 1056 l 414 1088 z "},"Į":{"ha":356,"x_min":89,"x_max":433,"o":"m 92 919 l 183 919 l 183 94 l 92 94 l 92 0 l 231 0 l 207 -12 q 114 -86 139 -47 q 89 -182 89 -125 q 128 -286 89 -250 q 242 -322 167 -322 q 353 -288 303 -322 q 433 -196 404 -254 l 364 -150 q 256 -233 325 -233 q 207 -216 224 -233 q 190 -168 190 -199 q 203 -119 190 -139 q 256 -74 215 -99 l 369 0 l 418 0 l 418 94 l 326 94 l 326 919 l 418 919 l 418 1014 l 92 1014 l 92 919 z "},"į":{"ha":340,"x_min":74,"x_max":418,"o":"m 86 700 l 169 700 l 169 94 l 86 94 l 86 0 l 215 0 l 192 -12 q 99 -86 124 -47 q 74 -182 74 -125 q 113 -286 74 -250 q 226 -322 151 -322 q 338 -288 288 -322 q 418 -196 389 -254 l 349 -150 q 240 -233 310 -233 q 192 -216 208 -233 q 175 -168 175 -199 q 188 -119 175 -139 q 240 -74 200 -99 l 354 0 l 393 0 l 393 94 l 310 94 l 310 794 l 86 794 l 86 700 m 240 906 q 288 913 269 906 q 313 938 306 921 q 322 967 319 954 q 324 1001 324 981 q 322 1038 324 1024 q 313 1067 319 1051 q 288 1091 306 1083 q 240 1099 269 1099 q 185 1083 204 1099 q 162 1049 165 1067 q 158 1001 158 1032 q 162 955 158 972 q 185 922 165 938 q 240 906 204 906 z "},"İ":{"ha":511,"x_min":92,"x_max":418,"o":"m 92 919 l 183 919 l 183 94 l 92 94 l 92 0 l 418 0 l 418 94 l 326 94 l 326 919 l 418 919 l 418 1014 l 92 1014 l 92 919 m 254 1119 q 315 1138 293 1119 q 340 1176 336 1156 q 344 1226 344 1196 q 340 1278 344 1258 q 315 1317 336 1299 q 254 1335 293 1335 q 196 1317 217 1335 q 171 1278 175 1299 q 167 1226 167 1258 q 169 1189 167 1204 q 179 1156 171 1174 q 206 1128 188 1138 q 254 1119 225 1119 z "},"ı":{"ha":467,"x_min":86,"x_max":393,"o":"m 86 700 l 169 700 l 169 94 l 86 94 l 86 0 l 393 0 l 393 94 l 310 94 l 310 794 l 86 794 l 86 700 z "},"Ĳ":{"ha":1189,"x_min":92,"x_max":1135,"o":"m 797 919 l 908 919 l 908 254 q 883 131 908 164 q 785 97 858 97 q 684 135 711 97 q 657 271 657 174 l 533 271 q 535 193 533 222 q 544 126 538 164 q 567 65 551 88 q 610 22 583 43 q 681 -10 638 0 q 782 -19 724 -19 q 905 -4 854 -19 q 984 33 956 11 q 1028 94 1013 56 q 1047 168 1043 133 q 1051 254 1051 203 l 1051 919 l 1135 919 l 1135 1014 l 797 1014 l 797 919 m 92 919 l 183 919 l 183 94 l 92 94 l 92 0 l 418 0 l 418 94 l 326 94 l 326 919 l 418 919 l 418 1014 l 92 1014 l 92 919 z "},"ĳ":{"ha":913,"x_min":86,"x_max":785,"o":"m 539 700 l 622 700 l 622 -67 q 603 -158 622 -132 q 526 -190 585 -185 l 436 -197 l 436 -300 l 560 -300 q 721 -247 679 -300 q 763 -83 763 -194 l 763 794 l 539 794 l 539 700 m 86 700 l 169 700 l 169 94 l 86 94 l 86 0 l 393 0 l 393 94 l 310 94 l 310 794 l 86 794 l 86 700 m 701 906 q 749 913 731 906 q 774 938 767 921 q 783 967 781 954 q 785 1001 785 981 q 783 1038 785 1024 q 774 1067 781 1051 q 749 1091 767 1083 q 701 1099 731 1099 q 646 1083 665 1099 q 623 1049 626 1067 q 619 1001 619 1032 q 623 955 619 972 q 646 922 626 938 q 701 906 665 906 m 240 906 q 288 913 269 906 q 313 938 306 921 q 322 967 319 954 q 324 1001 324 981 q 322 1038 324 1024 q 313 1067 319 1051 q 288 1091 306 1083 q 240 1099 269 1099 q 185 1083 204 1099 q 162 1049 165 1067 q 158 1001 158 1032 q 162 955 158 972 q 185 922 165 938 q 240 906 204 906 z "},"Ĵ":{"ha":679,"x_min":22,"x_max":665,"o":"m 286 919 l 397 919 l 397 254 q 372 131 397 164 q 274 97 347 97 q 173 135 200 97 q 146 271 146 174 l 22 271 q 24 193 22 222 q 33 126 26 164 q 56 65 40 88 q 99 22 72 43 q 169 -10 126 0 q 271 -19 213 -19 q 394 -4 343 -19 q 473 33 444 11 q 517 94 501 56 q 536 168 532 133 q 540 254 540 203 l 540 919 l 624 919 l 624 1014 l 286 1014 l 286 919 m 300 1086 l 450 1222 l 601 1086 l 665 1150 l 482 1360 l 419 1360 l 236 1150 l 300 1086 z "},"ĵ":{"ha":447,"x_min":-31,"x_max":438,"o":"m 72 700 l 156 700 l 156 -67 q 137 -158 156 -132 q 60 -190 118 -185 l -31 -197 l -31 -300 l 93 -300 q 254 -247 213 -300 q 296 -83 296 -194 l 296 794 l 72 794 l 72 700 m 72 867 l 222 1003 l 374 867 l 438 931 l 254 1140 l 192 1140 l 8 931 l 72 867 z "},"Ķ":{"ha":917,"x_min":92,"x_max":889,"o":"m 588 0 l 889 0 l 889 94 l 811 94 l 536 511 l 793 919 l 869 919 l 869 1014 l 568 1014 l 568 919 l 643 919 l 426 569 l 318 569 l 318 919 l 390 919 l 390 1014 l 92 1014 l 92 919 l 175 919 l 175 94 l 92 94 l 92 0 l 396 0 l 396 94 l 318 94 l 318 458 l 419 458 l 657 94 l 588 94 l 588 0 m 410 -126 q 419 -189 410 -151 q 428 -246 428 -226 q 385 -343 428 -292 l 421 -385 q 556 -131 556 -278 q 482 -49 556 -49 q 410 -126 410 -49 z "},"ķ":{"ha":839,"x_min":72,"x_max":808,"o":"m 72 936 l 156 936 l 156 94 l 72 94 l 72 0 l 369 0 l 369 94 l 296 94 l 296 379 l 383 379 l 579 94 l 511 94 l 511 0 l 808 0 l 808 94 l 732 94 l 507 418 l 707 700 l 783 700 l 783 794 l 486 794 l 486 700 l 553 700 l 399 479 l 296 479 l 296 1031 l 72 1031 l 72 936 m 372 -126 q 381 -189 372 -151 q 390 -246 390 -226 q 347 -343 390 -292 l 383 -385 q 518 -131 518 -278 q 444 -49 518 -49 q 372 -126 372 -49 z "},"ĸ":{"ha":889,"x_min":72,"x_max":858,"o":"m 72 700 l 163 700 l 163 94 l 72 94 l 72 0 l 383 0 l 383 94 l 303 94 l 303 379 l 407 379 l 619 94 l 546 94 l 546 0 l 858 0 l 858 94 l 774 94 l 529 418 l 743 700 l 832 700 l 832 794 l 519 794 l 519 700 l 589 700 l 422 479 l 303 479 l 303 794 l 72 794 l 72 700 z "},"Ĺ":{"ha":731,"x_min":92,"x_max":717,"o":"m 92 919 l 175 919 l 175 94 l 92 94 l 92 0 l 717 0 l 717 246 l 613 246 l 613 113 l 318 113 l 318 919 l 429 919 l 429 1014 l 92 1014 l 92 919 m 161 1083 l 425 1264 l 347 1367 l 101 1163 l 161 1083 z "},"ĺ":{"ha":453,"x_min":54,"x_max":379,"o":"m 72 936 l 156 936 l 156 94 l 72 94 l 72 0 l 379 0 l 379 94 l 296 94 l 296 1031 l 72 1031 l 72 936 m 114 1083 l 378 1264 l 300 1367 l 54 1163 l 114 1083 z "},"Ļ":{"ha":731,"x_min":92,"x_max":717,"o":"m 92 919 l 175 919 l 175 94 l 92 94 l 92 0 l 717 0 l 717 246 l 613 246 l 613 113 l 318 113 l 318 919 l 429 919 l 429 1014 l 92 1014 l 92 919 m 354 -126 q 363 -189 354 -151 q 372 -246 372 -226 q 329 -343 372 -292 l 365 -385 q 500 -131 500 -278 q 426 -49 500 -49 q 354 -126 354 -49 z "},"ļ":{"ha":453,"x_min":72,"x_max":379,"o":"m 72 936 l 156 936 l 156 94 l 72 94 l 72 0 l 379 0 l 379 94 l 296 94 l 296 1031 l 72 1031 l 72 936 m 169 -126 q 178 -189 169 -151 q 188 -246 188 -226 q 144 -343 188 -292 l 181 -385 q 315 -131 315 -278 q 242 -49 315 -49 q 169 -126 169 -49 z "},"Ľ":{"ha":731,"x_min":92,"x_max":717,"o":"m 92 919 l 175 919 l 175 94 l 92 94 l 92 0 l 717 0 l 717 246 l 613 246 l 613 113 l 318 113 l 318 919 l 429 919 l 429 1014 l 92 1014 l 92 919 m 529 1011 q 538 949 529 986 q 547 892 547 911 q 504 794 547 846 l 540 753 q 675 1007 675 860 q 601 1089 675 1089 q 529 1011 529 1089 z "},"ľ":{"ha":513,"x_min":72,"x_max":526,"o":"m 72 936 l 156 936 l 156 94 l 72 94 l 72 0 l 379 0 l 379 94 l 296 94 l 296 1031 l 72 1031 l 72 936 m 381 1011 q 390 949 381 986 q 399 892 399 911 q 356 794 399 846 l 392 753 q 526 1007 526 860 q 453 1089 526 1089 q 381 1011 381 1089 z "},"Ŀ":{"ha":731,"x_min":92,"x_max":717,"o":"m 92 919 l 175 919 l 175 94 l 92 94 l 92 0 l 717 0 l 717 246 l 613 246 l 613 113 l 318 113 l 318 919 l 429 919 l 429 1014 l 92 1014 l 92 919 m 521 428 q 590 454 574 428 q 606 525 606 481 q 601 572 606 554 q 578 606 597 590 q 521 622 558 622 q 466 606 485 622 q 443 572 447 590 q 439 525 439 554 q 443 478 439 496 q 466 444 447 460 q 521 428 485 428 z "},"ŀ":{"ha":481,"x_min":72,"x_max":539,"o":"m 72 936 l 156 936 l 156 94 l 72 94 l 72 0 l 379 0 l 379 94 l 296 94 l 296 1031 l 72 1031 l 72 936 m 454 428 q 523 454 507 428 q 539 525 539 481 q 535 572 539 554 q 511 606 531 590 q 454 622 492 622 q 399 606 418 622 q 376 572 381 590 q 372 525 372 554 q 376 478 372 496 q 399 444 381 460 q 454 428 418 428 z "},"Ł":{"ha":731,"x_min":64,"x_max":717,"o":"m 92 919 l 175 919 l 175 547 l 64 503 l 64 404 l 175 449 l 175 94 l 92 94 l 92 0 l 717 0 l 717 246 l 613 246 l 613 113 l 318 113 l 318 506 l 433 551 l 433 650 l 318 604 l 318 919 l 429 919 l 429 1014 l 92 1014 l 92 919 z "},"ł":{"ha":453,"x_min":42,"x_max":411,"o":"m 72 936 l 156 936 l 156 547 l 42 503 l 42 404 l 156 449 l 156 94 l 72 94 l 72 0 l 379 0 l 379 94 l 296 94 l 296 506 l 411 551 l 411 650 l 296 604 l 296 1031 l 72 1031 l 72 936 z "},"Ń":{"ha":1096,"x_min":92,"x_max":1018,"o":"m 708 919 l 792 919 l 792 239 l 329 1014 l 92 1014 l 92 919 l 175 919 l 175 94 l 92 94 l 92 0 l 401 0 l 401 94 l 318 94 l 318 774 l 781 0 l 935 0 l 935 919 l 1018 919 l 1018 1014 l 708 1014 l 708 919 m 483 1083 l 747 1264 l 669 1367 l 424 1163 l 483 1083 z "},"ń":{"ha":968,"x_min":86,"x_max":896,"o":"m 86 700 l 169 700 l 169 94 l 86 94 l 86 0 l 388 0 l 388 94 l 310 94 l 310 617 q 540 703 419 703 q 641 669 611 703 q 671 554 671 635 l 671 94 l 593 94 l 593 0 l 896 0 l 896 94 l 813 94 l 813 563 q 572 814 813 814 q 289 715 425 814 l 246 794 l 86 794 l 86 700 m 410 864 l 674 1044 l 596 1147 l 350 943 l 410 864 z "},"Ņ":{"ha":1096,"x_min":92,"x_max":1018,"o":"m 708 919 l 792 919 l 792 239 l 329 1014 l 92 1014 l 92 919 l 175 919 l 175 94 l 92 94 l 92 0 l 401 0 l 401 94 l 318 94 l 318 774 l 781 0 l 935 0 l 935 919 l 1018 919 l 1018 1014 l 708 1014 l 708 919 m 492 -126 q 501 -189 492 -151 q 510 -246 510 -226 q 467 -343 510 -292 l 503 -385 q 638 -131 638 -278 q 564 -49 638 -49 q 492 -126 492 -49 z "},"ņ":{"ha":968,"x_min":86,"x_max":896,"o":"m 86 700 l 169 700 l 169 94 l 86 94 l 86 0 l 388 0 l 388 94 l 310 94 l 310 617 q 540 703 419 703 q 641 669 611 703 q 671 554 671 635 l 671 94 l 593 94 l 593 0 l 896 0 l 896 94 l 813 94 l 813 563 q 572 814 813 814 q 289 715 425 814 l 246 794 l 86 794 l 86 700 m 428 -126 q 437 -189 428 -151 q 446 -246 446 -226 q 403 -343 446 -292 l 439 -385 q 574 -131 574 -278 q 500 -49 574 -49 q 428 -126 428 -49 z "},"Ň":{"ha":1096,"x_min":92,"x_max":1018,"o":"m 708 919 l 792 919 l 792 239 l 329 1014 l 92 1014 l 92 919 l 175 919 l 175 94 l 92 94 l 92 0 l 401 0 l 401 94 l 318 94 l 318 774 l 781 0 l 935 0 l 935 919 l 1018 919 l 1018 1014 l 708 1014 l 708 919 m 700 1368 l 550 1232 l 399 1368 l 335 1304 l 518 1094 l 581 1094 l 764 1304 l 700 1368 z "},"ň":{"ha":968,"x_min":86,"x_max":896,"o":"m 86 700 l 169 700 l 169 94 l 86 94 l 86 0 l 388 0 l 388 94 l 310 94 l 310 617 q 540 703 419 703 q 641 669 611 703 q 671 554 671 635 l 671 94 l 593 94 l 593 0 l 896 0 l 896 94 l 813 94 l 813 563 q 572 814 813 814 q 289 715 425 814 l 246 794 l 86 794 l 86 700 m 635 1149 l 485 1013 l 333 1149 l 269 1085 l 453 875 l 515 875 l 699 1085 l 635 1149 z "},"ŉ":{"ha":1122,"x_min":51,"x_max":1050,"o":"m 240 700 l 324 700 l 324 94 l 240 94 l 240 0 l 542 0 l 542 94 l 464 94 l 464 617 q 694 703 574 703 q 795 669 765 703 q 825 554 825 635 l 825 94 l 747 94 l 747 0 l 1050 0 l 1050 94 l 967 94 l 967 563 q 726 814 967 814 q 443 715 579 814 l 400 794 l 240 794 l 240 700 m 76 956 q 85 893 76 931 q 94 836 94 856 q 51 739 94 790 l 88 697 q 222 951 222 804 q 149 1033 222 1033 q 76 956 76 1033 z "},"Ŋ":{"ha":1096,"x_min":92,"x_max":1018,"o":"m 708 919 l 792 919 l 792 239 l 329 1014 l 92 1014 l 92 919 l 175 919 l 175 94 l 92 94 l 92 0 l 401 0 l 401 94 l 318 94 l 318 774 l 794 -22 l 794 -67 q 776 -158 794 -132 q 699 -190 757 -185 l 608 -197 l 608 -300 l 732 -300 q 893 -247 851 -300 q 935 -83 935 -194 l 935 919 l 1018 919 l 1018 1014 l 708 1014 l 708 919 z "},"ŋ":{"ha":963,"x_min":86,"x_max":813,"o":"m 86 700 l 169 700 l 169 94 l 86 94 l 86 0 l 388 0 l 388 94 l 310 94 l 310 617 q 540 703 419 703 q 641 669 611 703 q 671 554 671 635 l 671 -67 q 652 -158 671 -132 q 575 -190 633 -185 l 486 -197 l 486 -300 l 608 -300 q 770 -247 728 -300 q 813 -83 813 -194 l 813 563 q 572 814 813 814 q 289 715 425 814 l 246 794 l 86 794 l 86 700 z "},"Ō":{"ha":951,"x_min":72,"x_max":879,"o":"m 475 -19 q 631 -4 564 -19 q 741 44 697 11 q 813 119 785 78 q 855 225 840 161 q 874 353 869 289 q 879 507 879 417 q 872 689 879 617 q 842 832 865 761 q 774 943 818 903 q 656 1008 731 983 q 475 1033 582 1033 q 338 1021 399 1033 q 235 987 278 1008 q 163 928 193 965 q 116 852 133 892 q 89 753 99 813 q 76 640 79 694 q 72 507 72 585 q 79 324 72 396 q 110 181 86 253 q 176 69 133 110 q 294 5 219 29 q 475 -19 368 -19 m 475 97 q 358 117 406 97 q 282 167 310 136 q 239 254 254 199 q 219 365 224 310 q 215 507 215 421 q 219 649 215 593 q 239 760 224 704 q 282 847 254 815 q 358 897 310 878 q 475 917 406 917 q 592 897 543 917 q 668 847 640 878 q 711 760 696 815 q 731 648 726 704 q 736 507 736 592 q 731 366 736 422 q 711 254 726 310 q 668 167 696 199 q 592 117 640 136 q 475 97 543 97 m 293 1167 l 657 1167 l 657 1279 l 293 1279 l 293 1167 z "},"ō":{"ha":844,"x_min":72,"x_max":772,"o":"m 422 92 q 338 102 374 92 q 279 135 301 113 q 243 183 257 158 q 223 247 229 208 q 215 318 217 286 q 213 397 213 350 q 215 476 213 444 q 223 547 217 508 q 243 611 229 586 q 279 659 257 636 q 338 692 301 682 q 422 703 374 703 q 507 692 471 703 q 565 659 543 682 q 601 611 588 636 q 622 547 615 586 q 630 476 628 508 q 632 397 632 444 q 630 318 632 350 q 622 247 628 286 q 601 183 615 208 q 565 135 588 158 q 507 102 543 113 q 422 92 471 92 m 422 -19 q 580 4 514 -19 q 682 64 646 28 q 740 158 718 100 q 767 270 761 217 q 772 397 772 324 q 767 524 772 471 q 740 636 761 578 q 682 731 718 694 q 580 790 646 767 q 422 814 514 814 q 265 790 331 814 q 163 731 199 767 q 105 636 126 694 q 78 524 83 578 q 72 397 72 471 q 78 270 72 324 q 105 158 83 217 q 163 64 126 100 q 265 4 199 28 q 422 -19 331 -19 m 240 947 l 604 947 l 604 1060 l 240 1060 l 240 947 z "},"Ŏ":{"ha":951,"x_min":72,"x_max":879,"o":"m 475 -19 q 631 -4 564 -19 q 741 44 697 11 q 813 119 785 78 q 855 225 840 161 q 874 353 869 289 q 879 507 879 417 q 872 689 879 617 q 842 832 865 761 q 774 943 818 903 q 656 1008 731 983 q 475 1033 582 1033 q 338 1021 399 1033 q 235 987 278 1008 q 163 928 193 965 q 116 852 133 892 q 89 753 99 813 q 76 640 79 694 q 72 507 72 585 q 79 324 72 396 q 110 181 86 253 q 176 69 133 110 q 294 5 219 29 q 475 -19 368 -19 m 475 97 q 358 117 406 97 q 282 167 310 136 q 239 254 254 199 q 219 365 224 310 q 215 507 215 421 q 219 649 215 593 q 239 760 224 704 q 282 847 254 815 q 358 897 310 878 q 475 917 406 917 q 592 897 543 917 q 668 847 640 878 q 711 760 696 815 q 731 648 726 704 q 736 507 736 592 q 731 366 736 422 q 711 254 726 310 q 668 167 696 199 q 592 117 640 136 q 475 97 543 97 m 658 1307 q 652 1232 658 1263 q 628 1171 646 1201 q 572 1124 611 1140 q 475 1108 533 1108 q 329 1161 365 1108 q 293 1307 293 1214 l 382 1307 q 386 1257 382 1275 q 412 1223 390 1239 q 475 1207 433 1207 q 538 1223 517 1207 q 564 1257 560 1239 q 568 1307 568 1275 l 658 1307 z "},"ŏ":{"ha":844,"x_min":72,"x_max":772,"o":"m 422 92 q 338 102 374 92 q 279 135 301 113 q 243 183 257 158 q 223 247 229 208 q 215 318 217 286 q 213 397 213 350 q 215 476 213 444 q 223 547 217 508 q 243 611 229 586 q 279 659 257 636 q 338 692 301 682 q 422 703 374 703 q 507 692 471 703 q 565 659 543 682 q 601 611 588 636 q 622 547 615 586 q 630 476 628 508 q 632 397 632 444 q 630 318 632 350 q 622 247 628 286 q 601 183 615 208 q 565 135 588 158 q 507 102 543 113 q 422 92 471 92 m 422 -19 q 580 4 514 -19 q 682 64 646 28 q 740 158 718 100 q 767 270 761 217 q 772 397 772 324 q 767 524 772 471 q 740 636 761 578 q 682 731 718 694 q 580 790 646 767 q 422 814 514 814 q 265 790 331 814 q 163 731 199 767 q 105 636 126 694 q 78 524 83 578 q 72 397 72 471 q 78 270 72 324 q 105 158 83 217 q 163 64 126 100 q 265 4 199 28 q 422 -19 331 -19 m 606 1088 q 599 1013 606 1043 q 576 951 593 982 q 519 905 558 921 q 422 889 481 889 q 276 942 313 889 q 240 1088 240 994 l 329 1088 q 333 1038 329 1056 q 359 1003 338 1019 q 422 988 381 988 q 485 1003 464 988 q 511 1038 507 1019 q 515 1088 515 1056 l 606 1088 z "},"Ő":{"ha":951,"x_min":72,"x_max":879,"o":"m 475 -19 q 631 -4 564 -19 q 741 44 697 11 q 813 119 785 78 q 855 225 840 161 q 874 353 869 289 q 879 507 879 417 q 872 689 879 617 q 842 832 865 761 q 774 943 818 903 q 656 1008 731 983 q 475 1033 582 1033 q 338 1021 399 1033 q 235 987 278 1008 q 163 928 193 965 q 116 852 133 892 q 89 753 99 813 q 76 640 79 694 q 72 507 72 585 q 79 324 72 396 q 110 181 86 253 q 176 69 133 110 q 294 5 219 29 q 475 -19 368 -19 m 475 97 q 358 117 406 97 q 282 167 310 136 q 239 254 254 199 q 219 365 224 310 q 215 507 215 421 q 219 649 215 593 q 239 760 224 704 q 282 847 254 815 q 358 897 310 878 q 475 917 406 917 q 592 897 543 917 q 668 847 640 878 q 711 760 696 815 q 731 648 726 704 q 736 507 736 592 q 731 366 736 422 q 711 254 726 310 q 668 167 696 199 q 592 117 640 136 q 475 97 543 97 m 240 1083 l 504 1264 l 426 1367 l 179 1163 l 240 1083 m 592 1083 l 856 1264 l 778 1367 l 531 1163 l 592 1083 z "},"ő":{"ha":713,"x_min":6,"x_max":744,"o":"m 356 92 q 271 102 307 92 q 213 135 235 113 q 176 183 190 158 q 156 247 163 208 q 148 318 150 286 q 146 397 146 350 q 148 476 146 444 q 156 547 150 508 q 176 611 163 586 q 213 659 190 636 q 271 692 235 682 q 356 703 307 703 q 440 692 404 703 q 499 659 476 682 q 535 611 521 636 q 555 547 549 586 q 563 476 561 508 q 565 397 565 444 q 563 318 565 350 q 555 247 561 286 q 535 183 549 208 q 499 135 521 158 q 440 102 476 113 q 356 92 404 92 m 356 -19 q 513 4 447 -19 q 615 64 579 28 q 673 158 651 100 q 700 270 694 217 q 706 397 706 324 q 700 524 706 471 q 673 636 694 578 q 615 731 651 694 q 513 790 579 767 q 356 814 447 814 q 198 790 264 814 q 96 731 132 767 q 38 636 60 694 q 11 524 17 578 q 6 397 6 471 q 11 270 6 324 q 38 158 17 217 q 96 64 60 100 q 198 4 132 28 q 356 -19 264 -19 m 129 864 l 393 1044 l 315 1147 l 68 943 l 129 864 m 481 864 l 744 1044 l 667 1147 l 419 943 l 481 864 z "},"Œ":{"ha":1401,"x_min":72,"x_max":1324,"o":"m 1296 772 l 1296 1014 l 468 1014 q 290 990 363 1014 q 174 927 217 965 q 109 820 132 889 q 79 682 86 751 q 72 507 72 613 q 79 331 72 400 q 109 194 86 263 q 174 86 132 125 q 290 24 217 47 q 468 0 363 0 l 1324 0 l 1324 246 l 1218 246 l 1218 113 l 785 113 q 865 458 861 210 l 1207 458 l 1207 572 l 864 572 q 783 901 860 804 l 1190 901 l 1190 772 l 1296 772 m 468 115 q 355 134 401 115 q 281 183 308 153 q 239 265 254 213 q 219 372 224 318 q 215 507 215 425 q 219 642 215 589 q 239 749 224 696 q 281 831 254 801 q 355 880 308 861 q 468 899 401 899 q 582 880 535 899 q 656 831 629 861 q 699 749 683 801 q 718 642 714 696 q 722 507 722 588 q 718 372 722 426 q 699 265 714 318 q 656 183 683 213 q 582 134 629 153 q 468 115 535 115 z "},"œ":{"ha":1353,"x_min":72,"x_max":1281,"o":"m 954 -19 q 1108 1 1046 -19 q 1203 60 1171 21 q 1249 142 1235 100 q 1268 244 1263 185 l 1153 250 q 1106 132 1147 172 q 957 92 1065 92 q 795 152 838 92 q 750 361 753 213 l 1281 361 l 1281 397 q 1275 524 1281 471 q 1250 636 1269 578 q 1196 731 1231 694 q 1099 790 1161 767 q 949 814 1036 814 q 690 715 771 814 q 422 814 608 814 q 265 790 331 814 q 163 731 199 767 q 105 636 126 694 q 78 524 83 578 q 72 397 72 471 q 78 270 72 324 q 105 158 83 217 q 163 64 126 100 q 265 4 199 28 q 422 -19 331 -19 q 688 76 607 -19 q 954 -19 767 -19 m 422 92 q 338 102 374 92 q 279 135 301 113 q 243 183 257 158 q 223 247 229 208 q 215 318 217 286 q 213 397 213 350 q 215 476 213 444 q 223 547 217 508 q 243 611 229 586 q 279 659 257 636 q 338 692 301 682 q 422 703 374 703 q 621 546 604 703 q 611 397 611 479 q 619 249 611 314 q 422 92 606 92 m 947 703 q 1099 642 1060 703 q 1142 463 1138 582 l 750 463 q 795 642 754 581 q 947 703 836 703 z "},"Ŕ":{"ha":932,"x_min":92,"x_max":896,"o":"m 407 413 q 503 397 471 413 q 557 329 535 381 l 697 0 l 896 0 l 896 94 l 808 94 l 700 346 q 643 431 675 403 q 731 475 696 447 q 781 543 765 503 q 803 622 797 583 q 808 713 808 660 q 803 805 808 767 q 780 885 799 843 q 728 953 761 928 q 636 997 696 979 q 494 1014 576 1014 l 175 1014 l 92 1014 l 92 919 l 175 919 l 175 94 l 92 94 l 92 0 l 396 0 l 396 94 l 318 94 l 318 413 l 407 413 m 318 525 l 318 901 l 492 901 q 632 853 599 901 q 665 713 665 806 q 660 638 665 668 q 638 581 654 608 q 584 539 621 553 q 492 525 547 525 l 318 525 m 378 1083 l 642 1264 l 564 1367 l 318 1163 l 378 1083 z "},"ŕ":{"ha":593,"x_min":86,"x_max":579,"o":"m 246 794 l 169 794 l 86 794 l 86 700 l 169 700 l 169 94 l 86 94 l 86 0 l 421 0 l 421 94 l 310 94 l 310 549 q 579 689 397 682 l 579 814 q 299 660 397 807 l 246 794 m 222 864 l 486 1044 l 408 1147 l 163 943 l 222 864 z "},"Ŗ":{"ha":932,"x_min":92,"x_max":896,"o":"m 697 0 l 896 0 l 896 94 l 808 94 l 700 346 q 643 431 675 403 q 731 475 696 447 q 781 543 765 503 q 803 622 797 583 q 808 713 808 660 q 803 805 808 767 q 780 885 799 843 q 728 953 761 928 q 636 997 696 979 q 494 1014 576 1014 l 92 1014 l 92 919 l 175 919 l 175 94 l 92 94 l 92 0 l 396 0 l 396 94 l 318 94 l 318 413 l 424 413 q 507 393 478 410 q 557 329 536 376 l 697 0 m 318 525 l 318 901 l 492 901 q 632 853 599 901 q 665 713 665 806 q 660 638 665 668 q 638 581 654 608 q 584 539 621 553 q 492 525 547 525 l 318 525 m 408 -126 q 417 -189 408 -151 q 426 -246 426 -226 q 383 -343 426 -292 l 419 -385 q 554 -131 554 -278 q 481 -49 554 -49 q 408 -126 408 -49 z "},"ŗ":{"ha":593,"x_min":86,"x_max":579,"o":"m 246 794 l 169 794 l 86 794 l 86 700 l 169 700 l 169 94 l 86 94 l 86 0 l 421 0 l 421 94 l 310 94 l 310 549 q 579 689 397 682 l 579 814 q 299 660 397 807 l 246 794 m 172 -126 q 181 -189 172 -151 q 190 -246 190 -226 q 147 -343 190 -292 l 183 -385 q 318 -131 318 -278 q 244 -49 318 -49 q 172 -126 172 -49 z "},"Ř":{"ha":932,"x_min":92,"x_max":896,"o":"m 407 413 q 503 397 471 413 q 557 329 535 381 l 697 0 l 896 0 l 896 94 l 808 94 l 700 346 q 643 431 675 403 q 731 475 696 447 q 781 543 765 503 q 803 622 797 583 q 808 713 808 660 q 803 805 808 767 q 780 885 799 843 q 728 953 761 928 q 636 997 696 979 q 494 1014 576 1014 l 175 1014 l 92 1014 l 92 919 l 175 919 l 175 94 l 92 94 l 92 0 l 396 0 l 396 94 l 318 94 l 318 413 l 407 413 m 318 525 l 318 901 l 492 901 q 632 853 599 901 q 665 713 665 806 q 660 638 665 668 q 638 581 654 608 q 584 539 621 553 q 492 525 547 525 l 318 525 m 617 1368 l 467 1232 l 315 1368 l 251 1304 l 435 1094 l 497 1094 l 681 1304 l 617 1368 z "},"ř":{"ha":593,"x_min":86,"x_max":579,"o":"m 246 794 l 169 794 l 86 794 l 86 700 l 169 700 l 169 94 l 86 94 l 86 0 l 421 0 l 421 94 l 310 94 l 310 549 q 579 689 397 682 l 579 814 q 299 660 397 807 l 246 794 m 475 1149 l 325 1013 l 174 1149 l 110 1085 l 293 875 l 356 875 l 539 1085 l 475 1149 z "},"Ś":{"ha":832,"x_min":67,"x_max":767,"o":"m 169 0 l 169 100 q 443 -19 254 -19 q 691 55 615 -19 q 767 274 767 129 q 706 467 767 407 q 497 558 646 528 l 385 581 q 252 634 283 601 q 221 743 221 667 q 263 876 221 833 q 415 919 304 919 q 639 740 621 919 l 742 740 l 742 1014 l 639 1014 l 639 925 q 385 1033 564 1033 q 148 958 218 1033 q 78 740 78 883 q 135 544 78 607 q 339 453 193 482 l 456 431 q 588 376 553 411 q 624 258 624 342 q 574 133 624 172 q 413 94 524 94 q 233 152 294 94 q 169 317 172 210 l 67 317 l 67 0 l 169 0 m 346 1083 l 610 1264 l 532 1367 l 286 1163 l 346 1083 z "},"ś":{"ha":789,"x_min":90,"x_max":703,"o":"m 579 794 l 581 731 q 363 814 510 814 q 158 751 226 814 q 90 589 90 689 q 142 433 90 481 q 308 351 193 385 l 444 317 q 536 273 510 299 q 563 206 563 247 q 397 92 563 92 q 179 286 199 92 l 90 286 l 90 0 l 186 0 l 183 82 q 424 -19 263 -19 q 703 213 703 -19 q 651 360 703 311 q 488 439 600 410 l 351 475 q 259 517 288 492 q 231 589 231 542 q 265 672 231 640 q 375 703 300 703 q 533 665 488 703 q 585 508 578 628 l 675 508 l 675 794 l 579 794 m 307 864 l 571 1044 l 493 1147 l 247 943 l 307 864 z "},"Ŝ":{"ha":832,"x_min":67,"x_max":767,"o":"m 169 0 l 169 100 q 443 -19 254 -19 q 691 55 615 -19 q 767 274 767 129 q 706 467 767 407 q 497 558 646 528 l 385 581 q 252 634 283 601 q 221 743 221 667 q 263 876 221 833 q 415 919 304 919 q 639 740 621 919 l 742 740 l 742 1014 l 639 1014 l 639 925 q 385 1033 564 1033 q 148 958 218 1033 q 78 740 78 883 q 135 544 78 607 q 339 453 193 482 l 456 431 q 588 376 553 411 q 624 258 624 342 q 574 133 624 172 q 413 94 524 94 q 233 152 294 94 q 169 317 172 210 l 67 317 l 67 0 l 169 0 m 275 1086 l 425 1222 l 576 1086 l 640 1150 l 457 1360 l 394 1360 l 211 1150 l 275 1086 z "},"ŝ":{"ha":789,"x_min":90,"x_max":703,"o":"m 579 794 l 581 731 q 363 814 510 814 q 158 751 226 814 q 90 589 90 689 q 142 433 90 481 q 308 351 193 385 l 444 317 q 536 273 510 299 q 563 206 563 247 q 397 92 563 92 q 179 286 199 92 l 90 286 l 90 0 l 186 0 l 183 82 q 424 -19 263 -19 q 703 213 703 -19 q 651 360 703 311 q 488 439 600 410 l 351 475 q 259 517 288 492 q 231 589 231 542 q 265 672 231 640 q 375 703 300 703 q 533 665 488 703 q 585 508 578 628 l 675 508 l 675 794 l 579 794 m 244 867 l 394 1003 l 546 867 l 610 931 l 426 1140 l 364 1140 l 181 931 l 244 867 z "},"Ş":{"ha":832,"x_min":67,"x_max":767,"o":"m 169 0 l 169 100 q 357 -12 233 10 l 339 -117 l 414 -131 q 460 -150 447 -136 q 472 -192 472 -164 q 463 -234 472 -219 q 419 -249 453 -249 q 378 -235 388 -249 q 368 -192 368 -221 l 268 -192 q 301 -297 268 -258 q 417 -335 335 -335 q 534 -299 501 -335 q 567 -196 567 -264 q 533 -95 567 -124 q 433 -62 499 -67 l 440 -19 l 443 -19 q 691 55 615 -19 q 767 274 767 129 q 706 467 767 407 q 497 558 646 528 l 385 581 q 252 634 283 601 q 221 743 221 667 q 263 876 221 833 q 415 919 304 919 q 639 740 621 919 l 742 740 l 742 1014 l 639 1014 l 639 925 q 385 1033 564 1033 q 148 958 218 1033 q 78 740 78 883 q 135 544 78 607 q 339 453 193 482 l 456 431 q 588 376 553 411 q 624 258 624 342 q 574 133 624 172 q 413 94 524 94 q 233 152 294 94 q 169 317 172 210 l 67 317 l 67 0 l 169 0 z "},"ş":{"ha":789,"x_min":90,"x_max":703,"o":"m 579 794 l 581 731 q 363 814 510 814 q 158 751 226 814 q 90 589 90 689 q 142 433 90 481 q 308 351 193 385 l 444 317 q 536 273 510 299 q 563 206 563 247 q 397 92 563 92 q 179 286 199 92 l 90 286 l 90 0 l 186 0 l 183 82 q 335 -10 239 11 l 317 -117 l 392 -131 q 438 -150 425 -136 q 450 -192 450 -164 q 440 -234 450 -219 q 397 -249 431 -249 q 356 -235 365 -249 q 346 -192 346 -221 l 246 -192 q 279 -297 246 -258 q 394 -335 313 -335 q 512 -299 479 -335 q 544 -196 544 -264 q 510 -95 544 -124 q 411 -62 476 -67 l 418 -19 l 424 -19 q 703 213 703 -19 q 651 360 703 311 q 488 439 600 410 l 351 475 q 259 517 288 492 q 231 589 231 542 q 265 672 231 640 q 375 703 300 703 q 533 665 488 703 q 585 508 578 628 l 675 508 l 675 794 l 579 794 z "},"Š":{"ha":868,"x_min":85,"x_max":785,"o":"m 188 0 l 188 100 q 461 -19 272 -19 q 709 55 633 -19 q 785 274 785 129 q 724 467 785 407 q 515 558 664 528 l 403 581 q 270 634 301 601 q 239 743 239 667 q 281 876 239 833 q 433 919 322 919 q 657 740 639 919 l 760 740 l 760 1014 l 657 1014 l 657 925 q 403 1033 582 1033 q 166 958 236 1033 q 96 740 96 883 q 153 544 96 607 q 357 453 211 482 l 474 431 q 606 376 571 411 q 642 258 642 342 q 592 133 642 172 q 431 94 542 94 q 251 152 313 94 q 188 317 190 210 l 85 317 l 85 0 l 188 0 m 586 1368 l 436 1232 l 285 1368 l 221 1304 l 404 1094 l 467 1094 l 650 1304 l 586 1368 z "},"š":{"ha":789,"x_min":90,"x_max":703,"o":"m 579 794 l 581 731 q 363 814 510 814 q 158 751 226 814 q 90 589 90 689 q 142 433 90 481 q 308 351 193 385 l 444 317 q 536 273 510 299 q 563 206 563 247 q 397 92 563 92 q 179 286 199 92 l 90 286 l 90 0 l 186 0 l 183 82 q 424 -19 263 -19 q 703 213 703 -19 q 651 360 703 311 q 488 439 600 410 l 351 475 q 259 517 288 492 q 231 589 231 542 q 265 672 231 640 q 375 703 300 703 q 533 665 488 703 q 585 508 578 628 l 675 508 l 675 794 l 579 794 m 547 1149 l 397 1013 l 246 1149 l 182 1085 l 365 875 l 428 875 l 611 1085 l 547 1149 z "},"Ţ":{"ha":774,"x_min":11,"x_max":763,"o":"m 117 767 l 117 903 l 315 903 l 315 94 l 201 94 l 201 0 l 339 0 l 318 -117 l 393 -131 q 439 -150 426 -136 q 451 -192 451 -164 q 442 -234 451 -219 q 399 -249 432 -249 q 357 -235 367 -249 q 347 -192 347 -221 l 247 -192 q 281 -297 247 -258 q 396 -335 314 -335 q 513 -299 481 -335 q 546 -196 546 -264 q 512 -95 546 -124 q 413 -62 478 -67 l 424 0 l 572 0 l 572 94 l 458 94 l 458 903 l 658 903 l 658 767 l 763 767 l 763 1014 l 11 1014 l 11 767 l 117 767 z "},"ţ":{"ha":517,"x_min":32,"x_max":463,"o":"m 32 700 l 157 700 l 157 190 q 159 133 157 156 q 168 83 161 111 q 191 33 175 54 q 232 0 207 13 l 200 0 l 179 -117 l 254 -131 q 300 -150 288 -136 q 313 -192 313 -164 q 303 -234 313 -219 q 260 -249 293 -249 q 218 -235 228 -249 q 208 -192 208 -221 l 108 -192 q 142 -297 108 -258 q 257 -335 175 -335 q 374 -299 342 -335 q 407 -196 407 -264 q 373 -95 407 -124 q 274 -62 339 -67 l 282 -15 q 326 -19 300 -19 q 463 6 388 -19 l 446 97 q 372 86 397 86 q 315 111 332 86 q 297 199 297 136 l 297 700 l 443 700 l 443 794 l 297 794 l 297 972 l 157 953 l 157 794 l 32 794 l 32 700 z "},"Ť":{"ha":774,"x_min":11,"x_max":763,"o":"m 117 767 l 117 903 l 315 903 l 315 94 l 201 94 l 201 0 l 572 0 l 572 94 l 458 94 l 458 903 l 658 903 l 658 767 l 763 767 l 763 1014 l 11 1014 l 11 767 l 117 767 m 539 1368 l 389 1232 l 238 1368 l 174 1304 l 357 1094 l 419 1094 l 603 1304 l 539 1368 z "},"ť":{"ha":517,"x_min":32,"x_max":528,"o":"m 32 700 l 157 700 l 157 190 q 159 131 157 154 q 170 76 161 107 q 197 26 179 44 q 247 -6 214 7 q 326 -19 281 -19 q 463 6 388 -19 l 446 97 q 372 86 397 86 q 315 111 332 86 q 297 199 297 136 l 297 700 l 443 700 l 443 794 l 297 794 l 297 972 l 157 953 l 157 794 l 32 794 l 32 700 m 382 1104 q 391 1042 382 1079 q 400 985 400 1004 q 357 888 400 939 l 393 846 q 528 1100 528 953 q 454 1182 528 1182 q 382 1104 382 1182 z "},"Ŧ":{"ha":774,"x_min":11,"x_max":763,"o":"m 117 767 l 117 903 l 315 903 l 315 522 l 111 522 l 111 428 l 315 428 l 315 94 l 201 94 l 201 0 l 572 0 l 572 94 l 458 94 l 458 428 l 664 428 l 664 522 l 458 522 l 458 903 l 658 903 l 658 767 l 763 767 l 763 1014 l 11 1014 l 11 767 l 117 767 z "},"ŧ":{"ha":517,"x_min":24,"x_max":463,"o":"m 32 700 l 157 700 l 157 453 l 24 453 l 24 358 l 157 358 l 157 190 q 159 131 157 154 q 170 76 161 107 q 197 26 179 44 q 247 -6 214 7 q 326 -19 281 -19 q 463 6 388 -19 l 446 97 q 372 86 397 86 q 315 111 332 86 q 297 199 297 136 l 297 358 l 436 358 l 436 453 l 297 453 l 297 700 l 443 700 l 443 794 l 297 794 l 297 972 l 157 953 l 157 794 l 32 794 l 32 700 z "},"Ũ":{"ha":1036,"x_min":63,"x_max":974,"o":"m 63 919 l 146 919 l 146 335 q 167 175 146 242 q 221 72 189 108 q 305 13 253 35 q 404 -14 357 -8 q 517 -19 451 -19 q 631 -14 583 -19 q 731 13 678 -8 q 815 72 783 35 q 869 175 847 108 q 890 335 890 242 l 890 919 l 974 919 l 974 1014 l 664 1014 l 664 919 l 747 919 l 747 342 q 730 213 747 264 q 678 140 713 163 q 607 108 643 117 q 517 100 571 100 q 428 108 464 100 q 358 140 393 117 q 306 213 324 163 q 289 342 289 264 l 289 919 l 372 919 l 372 1014 l 63 1014 l 63 919 m 619 1149 q 698 1182 665 1149 q 753 1294 731 1215 l 667 1322 q 642 1276 656 1290 q 604 1261 628 1261 q 519 1286 586 1261 q 417 1311 451 1311 q 338 1278 371 1311 q 283 1165 306 1244 l 371 1138 q 396 1184 382 1169 q 433 1199 410 1199 q 518 1174 451 1199 q 619 1149 585 1149 z "},"ũ":{"ha":967,"x_min":72,"x_max":894,"o":"m 156 794 l 72 794 l 72 700 l 156 700 l 156 229 q 210 43 156 106 q 396 -19 265 -19 q 686 81 547 -19 l 718 0 l 894 0 l 894 94 l 811 94 l 811 794 l 588 794 l 588 700 l 671 700 l 671 181 q 438 92 560 92 q 328 128 360 92 q 296 244 296 164 l 296 794 l 156 794 m 585 929 q 663 963 631 929 q 718 1075 696 996 l 632 1103 q 607 1056 621 1071 q 569 1042 593 1042 q 484 1067 551 1042 q 382 1092 417 1092 q 303 1058 336 1092 q 249 946 271 1025 l 336 918 q 361 965 347 950 q 399 979 375 979 q 483 954 417 979 q 585 929 550 929 z "},"Ū":{"ha":1036,"x_min":63,"x_max":974,"o":"m 63 919 l 146 919 l 146 335 q 167 175 146 242 q 221 72 189 108 q 305 13 253 35 q 404 -14 357 -8 q 517 -19 451 -19 q 631 -14 583 -19 q 731 13 678 -8 q 815 72 783 35 q 869 175 847 108 q 890 335 890 242 l 890 919 l 974 919 l 974 1014 l 664 1014 l 664 919 l 747 919 l 747 342 q 730 213 747 264 q 678 140 713 163 q 607 108 643 117 q 517 100 571 100 q 428 108 464 100 q 358 140 393 117 q 306 213 324 163 q 289 342 289 264 l 289 919 l 372 919 l 372 1014 l 63 1014 l 63 919 m 336 1167 l 700 1167 l 700 1279 l 336 1279 l 336 1167 z "},"ū":{"ha":967,"x_min":72,"x_max":894,"o":"m 156 794 l 72 794 l 72 700 l 156 700 l 156 229 q 210 43 156 106 q 396 -19 265 -19 q 686 81 547 -19 l 718 0 l 894 0 l 894 94 l 811 94 l 811 794 l 671 794 l 588 794 l 588 700 l 671 700 l 671 181 q 438 92 560 92 q 328 128 360 92 q 296 244 296 164 l 296 794 l 156 794 m 301 947 l 665 947 l 665 1060 l 301 1060 l 301 947 z "},"Ŭ":{"ha":1036,"x_min":63,"x_max":974,"o":"m 63 919 l 146 919 l 146 335 q 167 175 146 242 q 221 72 189 108 q 305 13 253 35 q 404 -14 357 -8 q 517 -19 451 -19 q 631 -14 583 -19 q 731 13 678 -8 q 815 72 783 35 q 869 175 847 108 q 890 335 890 242 l 890 919 l 974 919 l 974 1014 l 664 1014 l 664 919 l 747 919 l 747 342 q 730 213 747 264 q 678 140 713 163 q 607 108 643 117 q 517 100 571 100 q 428 108 464 100 q 358 140 393 117 q 306 213 324 163 q 289 342 289 264 l 289 919 l 372 919 l 372 1014 l 63 1014 l 63 919 m 701 1307 q 695 1232 701 1263 q 672 1171 689 1201 q 615 1124 654 1140 q 518 1108 576 1108 q 372 1161 408 1108 q 336 1307 336 1214 l 425 1307 q 429 1257 425 1275 q 455 1223 433 1239 q 518 1207 476 1207 q 581 1223 560 1207 q 607 1257 603 1239 q 611 1307 611 1275 l 701 1307 z "},"ŭ":{"ha":967,"x_min":72,"x_max":894,"o":"m 156 794 l 72 794 l 72 700 l 156 700 l 156 229 q 210 43 156 106 q 396 -19 265 -19 q 686 81 547 -19 l 718 0 l 894 0 l 894 94 l 811 94 l 811 794 l 588 794 l 588 700 l 671 700 l 671 181 q 438 92 560 92 q 328 128 360 92 q 296 244 296 164 l 296 794 l 156 794 m 667 1088 q 660 1013 667 1043 q 637 951 654 982 q 581 905 619 921 q 483 889 542 889 q 338 942 374 889 q 301 1088 301 994 l 390 1088 q 394 1038 390 1056 q 420 1003 399 1019 q 483 988 442 988 q 547 1003 525 988 q 572 1038 568 1019 q 576 1088 576 1056 l 667 1088 z "},"Ů":{"ha":1036,"x_min":63,"x_max":974,"o":"m 63 919 l 146 919 l 146 335 q 167 175 146 242 q 221 72 189 108 q 305 13 253 35 q 404 -14 357 -8 q 517 -19 451 -19 q 631 -14 583 -19 q 731 13 678 -8 q 815 72 783 35 q 869 175 847 108 q 890 335 890 242 l 890 919 l 974 919 l 974 1014 l 664 1014 l 664 919 l 747 919 l 747 342 q 730 213 747 264 q 678 140 713 163 q 607 108 643 117 q 517 100 571 100 q 428 108 464 100 q 358 140 393 117 q 306 213 324 163 q 289 342 289 264 l 289 919 l 372 919 l 372 1014 l 63 1014 l 63 919 m 517 1083 q 594 1095 564 1083 q 638 1131 625 1107 q 655 1174 651 1154 q 658 1226 658 1194 q 655 1279 658 1258 q 638 1324 651 1300 q 594 1359 625 1347 q 517 1371 564 1371 q 440 1359 469 1371 q 398 1324 411 1347 q 381 1279 385 1300 q 378 1226 378 1258 q 381 1174 378 1194 q 398 1131 385 1154 q 440 1095 411 1107 q 517 1083 469 1083 m 517 1157 q 481 1169 493 1157 q 466 1193 468 1181 q 464 1226 464 1206 q 466 1260 464 1247 q 481 1285 468 1274 q 517 1297 493 1297 q 554 1285 542 1297 q 569 1260 567 1274 q 572 1226 572 1247 q 569 1193 572 1206 q 554 1169 567 1181 q 517 1157 542 1157 z "},"ů":{"ha":967,"x_min":72,"x_max":894,"o":"m 296 794 l 72 794 l 72 700 l 156 700 l 156 229 q 210 43 156 106 q 396 -19 265 -19 q 686 81 547 -19 l 718 0 l 894 0 l 894 94 l 811 94 l 811 794 l 671 794 l 588 794 l 588 700 l 671 700 l 671 181 q 438 92 560 92 q 328 128 360 92 q 296 244 296 164 l 296 794 m 482 864 q 560 876 529 864 q 603 911 590 888 q 620 955 617 935 q 624 1007 624 975 q 620 1060 624 1039 q 603 1104 617 1081 q 560 1140 590 1128 q 482 1151 529 1151 q 406 1140 435 1151 q 363 1104 376 1128 q 347 1060 350 1081 q 343 1007 343 1039 q 347 955 343 975 q 363 911 350 935 q 406 876 376 888 q 482 864 435 864 m 482 938 q 446 949 458 938 q 431 974 433 961 q 429 1007 429 986 q 431 1041 429 1028 q 446 1066 433 1054 q 482 1078 458 1078 q 519 1066 507 1078 q 535 1041 532 1054 q 538 1007 538 1028 q 535 974 538 986 q 519 949 532 961 q 482 938 507 938 z "},"Ű":{"ha":1036,"x_min":63,"x_max":974,"o":"m 63 919 l 146 919 l 146 335 q 167 175 146 242 q 221 72 189 108 q 305 13 253 35 q 404 -14 357 -8 q 517 -19 451 -19 q 631 -14 583 -19 q 731 13 678 -8 q 815 72 783 35 q 869 175 847 108 q 890 335 890 242 l 890 919 l 974 919 l 974 1014 l 664 1014 l 664 919 l 747 919 l 747 342 q 730 213 747 264 q 678 140 713 163 q 607 108 643 117 q 517 100 571 100 q 428 108 464 100 q 358 140 393 117 q 306 213 324 163 q 289 342 289 264 l 289 919 l 372 919 l 372 1014 l 63 1014 l 63 919 m 649 1083 l 913 1264 l 835 1367 l 588 1163 l 649 1083 m 297 1083 l 561 1264 l 483 1367 l 236 1163 l 297 1083 z "},"ű":{"ha":967,"x_min":72,"x_max":894,"o":"m 156 794 l 72 794 l 72 700 l 156 700 l 156 229 q 210 43 156 106 q 396 -19 265 -19 q 686 81 547 -19 l 718 0 l 894 0 l 894 94 l 811 94 l 811 794 l 588 794 l 588 700 l 671 700 l 671 181 q 438 92 560 92 q 328 128 360 92 q 296 244 296 164 l 296 794 l 156 794 m 581 864 l 844 1044 l 767 1147 l 519 943 l 581 864 m 229 864 l 493 1044 l 415 1147 l 168 943 l 229 864 z "},"Ų":{"ha":1036,"x_min":63,"x_max":974,"o":"m 63 919 l 146 919 l 146 335 q 169 161 146 232 q 238 54 193 90 q 333 2 283 18 q 453 -18 383 -14 q 369 -90 392 -51 q 346 -182 346 -128 q 385 -286 346 -250 q 499 -322 424 -322 q 610 -288 560 -322 q 690 -196 661 -254 l 621 -150 q 513 -233 582 -233 q 464 -216 481 -233 q 447 -168 447 -199 q 460 -119 447 -139 q 513 -74 472 -99 l 600 -17 q 713 6 665 -11 q 803 61 761 24 q 868 167 846 99 q 890 335 890 236 l 890 919 l 974 919 l 974 1014 l 664 1014 l 664 919 l 747 919 l 747 342 q 730 213 747 264 q 678 140 713 163 q 607 108 643 117 q 517 100 571 100 q 428 108 464 100 q 358 140 393 117 q 306 213 324 163 q 289 342 289 264 l 289 919 l 372 919 l 372 1014 l 63 1014 l 63 919 z "},"ų":{"ha":967,"x_min":72,"x_max":958,"o":"m 156 794 l 72 794 l 72 700 l 156 700 l 156 229 q 210 43 156 106 q 396 -19 265 -19 q 686 81 547 -19 l 718 0 l 756 0 l 732 -12 q 639 -86 664 -47 q 614 -182 614 -125 q 653 -286 614 -250 q 767 -322 692 -322 q 878 -288 828 -322 q 958 -196 929 -254 l 889 -150 q 781 -233 850 -233 q 732 -216 749 -233 q 715 -168 715 -199 q 728 -119 715 -139 q 781 -74 740 -99 l 894 0 l 894 94 l 811 94 l 811 794 l 671 794 l 588 794 l 588 700 l 671 700 l 671 181 q 438 92 560 92 q 328 128 360 92 q 296 244 296 164 l 296 794 l 156 794 z "},"Ŵ":{"ha":1278,"x_min":26,"x_max":1251,"o":"m 483 0 l 639 732 l 794 0 l 1003 0 l 1194 919 l 1251 919 l 1251 1014 l 967 1014 l 967 919 l 1051 919 l 893 135 l 710 1014 l 568 1014 l 383 135 l 225 919 l 311 919 l 311 1014 l 26 1014 l 26 919 l 82 919 l 275 0 l 483 0 m 489 1086 l 639 1222 l 790 1086 l 854 1150 l 671 1360 l 608 1360 l 425 1150 l 489 1086 z "},"ŵ":{"ha":1092,"x_min":3,"x_max":1089,"o":"m 1089 794 l 821 794 l 821 700 l 897 700 l 756 183 l 604 725 l 486 725 l 335 183 l 192 700 l 271 700 l 271 794 l 3 794 l 3 700 l 51 700 l 254 0 l 396 0 l 546 532 l 696 0 l 838 0 l 1039 700 l 1089 700 l 1089 794 m 396 867 l 546 1003 l 697 867 l 761 931 l 578 1140 l 515 1140 l 332 931 l 396 867 z "},"Ŷ":{"ha":840,"x_min":14,"x_max":826,"o":"m 492 351 l 760 919 l 826 919 l 826 1014 l 544 1014 l 544 919 l 617 919 l 421 490 l 225 919 l 296 919 l 296 1014 l 14 1014 l 14 919 l 81 919 l 349 351 l 349 94 l 249 94 l 249 0 l 592 0 l 592 94 l 492 94 l 492 351 m 271 1086 l 421 1222 l 572 1086 l 636 1150 l 453 1360 l 390 1360 l 207 1150 l 271 1086 z "},"ŷ":{"ha":794,"x_min":3,"x_max":792,"o":"m 122 -300 l 281 -300 q 350 -278 325 -300 q 392 -210 375 -256 l 733 700 l 792 700 l 792 794 l 524 794 l 524 700 l 592 700 l 397 167 l 201 700 l 271 700 l 271 794 l 3 794 l 3 700 l 61 700 l 332 -15 l 288 -137 q 264 -180 276 -168 q 218 -194 251 -192 l 122 -203 l 122 -300 m 247 867 l 397 1003 l 549 867 l 613 931 l 429 1140 l 367 1140 l 183 931 l 247 867 z "},"Ÿ":{"ha":835,"x_min":11,"x_max":824,"o":"m 489 351 l 757 919 l 824 919 l 824 1014 l 542 1014 l 542 919 l 614 919 l 418 490 l 222 919 l 293 919 l 293 1014 l 11 1014 l 11 919 l 78 919 l 346 351 l 346 94 l 246 94 l 246 0 l 589 0 l 589 94 l 489 94 l 489 351 m 268 1128 q 206 1153 219 1128 q 192 1221 192 1178 q 194 1255 192 1242 q 203 1284 196 1268 q 226 1308 210 1300 q 268 1315 242 1315 q 321 1299 303 1315 q 342 1266 339 1283 q 346 1221 346 1249 q 342 1176 346 1193 q 321 1143 339 1158 q 268 1128 303 1128 m 564 1128 q 513 1143 531 1128 q 492 1176 496 1158 q 489 1221 489 1193 q 492 1266 489 1249 q 513 1299 496 1283 q 564 1315 531 1315 q 608 1308 590 1315 q 632 1284 625 1300 q 641 1255 639 1268 q 643 1221 643 1242 q 640 1176 643 1193 q 617 1143 636 1158 q 564 1128 599 1128 z "},"Ź":{"ha":783,"x_min":42,"x_max":742,"o":"m 742 0 l 742 246 l 638 246 l 638 113 l 215 113 l 728 922 l 728 1014 l 69 1014 l 68 901 l 69 901 l 69 767 l 174 767 l 174 901 l 556 901 l 42 90 l 42 0 l 742 0 m 331 1083 l 594 1264 l 517 1367 l 271 1163 l 331 1083 z "},"ź":{"ha":750,"x_min":56,"x_max":686,"o":"m 592 253 l 592 104 l 225 104 l 676 703 l 676 794 l 81 794 l 81 542 l 175 542 l 175 690 l 510 690 l 56 92 l 56 0 l 686 0 l 686 253 l 592 253 m 310 864 l 574 1044 l 496 1147 l 250 943 l 310 864 z "},"Ż":{"ha":783,"x_min":42,"x_max":742,"o":"m 68 901 l 69 901 l 69 767 l 174 767 l 174 901 l 556 901 l 42 90 l 42 0 l 742 0 l 742 246 l 638 246 l 638 113 l 215 113 l 728 922 l 728 1014 l 69 1014 l 68 901 m 418 1119 q 478 1138 457 1119 q 504 1176 500 1156 q 508 1226 508 1196 q 504 1278 508 1258 q 478 1317 500 1299 q 418 1335 457 1335 q 360 1317 381 1335 q 335 1278 339 1299 q 331 1226 331 1258 q 333 1189 331 1204 q 343 1156 335 1174 q 370 1128 351 1138 q 418 1119 389 1119 z "},"ż":{"ha":750,"x_min":56,"x_max":686,"o":"m 592 253 l 592 104 l 225 104 l 676 703 l 676 794 l 81 794 l 81 542 l 175 542 l 175 690 l 510 690 l 56 92 l 56 0 l 686 0 l 686 253 l 592 253 m 392 900 q 452 918 431 900 q 478 956 474 936 q 482 1007 482 976 q 478 1059 482 1039 q 452 1097 474 1079 q 392 1115 431 1115 q 333 1097 354 1115 q 308 1059 313 1079 q 304 1007 304 1039 q 306 969 304 985 q 317 936 308 954 q 344 909 325 918 q 392 900 363 900 z "},"Ž":{"ha":729,"x_min":31,"x_max":731,"o":"m 57 901 l 58 901 l 58 767 l 163 767 l 163 901 l 544 901 l 31 90 l 31 0 l 731 0 l 731 246 l 626 246 l 626 113 l 204 113 l 717 922 l 717 1014 l 58 1014 l 57 901 m 515 1368 l 365 1232 l 214 1368 l 150 1304 l 333 1094 l 396 1094 l 579 1304 l 515 1368 z "},"ž":{"ha":750,"x_min":56,"x_max":686,"o":"m 592 253 l 592 104 l 225 104 l 676 703 l 676 794 l 81 794 l 81 542 l 175 542 l 175 690 l 510 690 l 56 92 l 56 0 l 686 0 l 686 253 l 592 253 m 543 1149 l 393 1013 l 242 1149 l 178 1085 l 361 875 l 424 875 l 607 1085 l 543 1149 z "},"ƒ":{"ha":817,"x_min":154,"x_max":731,"o":"m 731 906 q 560 950 656 950 q 365 879 428 950 q 303 661 303 808 l 303 488 l 156 488 l 156 390 l 303 390 l 303 14 q 272 -118 303 -82 q 154 -154 242 -154 l 163 -278 q 388 -211 329 -278 q 446 13 446 -144 l 446 390 l 654 390 l 654 488 l 446 488 l 446 661 q 572 836 446 836 q 688 806 639 836 l 731 906 z "},"Ǻ":{"ha":929,"x_min":4,"x_max":925,"o":"m 369 1014 l 68 94 l 4 94 l 4 0 l 292 0 l 292 94 l 208 94 l 278 311 l 649 311 l 719 94 l 636 94 l 636 0 l 925 0 l 925 94 l 860 94 l 558 1014 l 369 1014 m 464 1083 q 542 1095 511 1083 q 585 1131 572 1107 q 602 1174 599 1154 q 606 1226 606 1194 q 585 1322 606 1290 l 686 1410 l 600 1481 l 514 1367 q 464 1371 492 1371 q 388 1359 417 1371 q 345 1324 358 1347 q 328 1279 332 1300 q 325 1226 325 1258 q 328 1174 325 1194 q 345 1131 332 1154 q 388 1095 358 1107 q 464 1083 417 1083 m 464 885 l 614 424 l 315 424 l 464 885 m 464 1157 q 428 1169 440 1157 q 413 1193 415 1181 q 411 1226 411 1206 q 413 1260 411 1247 q 428 1285 415 1274 q 464 1297 440 1297 q 501 1285 489 1297 q 517 1260 514 1274 q 519 1226 519 1247 q 517 1193 519 1206 q 501 1169 514 1181 q 464 1157 489 1157 z "},"ǻ":{"ha":844,"x_min":74,"x_max":772,"o":"m 597 0 l 772 0 l 772 94 l 689 94 l 689 592 q 403 814 689 814 q 180 751 243 814 q 107 560 117 688 l 224 554 q 265 667 228 632 q 399 703 301 703 q 507 674 465 703 q 549 583 549 646 l 549 460 l 322 446 q 125 379 176 435 q 74 203 74 324 q 128 38 74 94 q 307 -19 182 -19 q 575 79 450 -19 l 597 0 m 408 864 q 486 876 456 864 q 530 911 517 888 q 547 955 543 935 q 550 1007 550 975 q 529 1103 550 1071 l 631 1190 l 544 1261 l 458 1147 q 408 1151 436 1151 q 332 1140 361 1151 q 290 1104 303 1128 q 273 1060 276 1081 q 269 1007 269 1039 q 273 955 269 975 q 290 911 276 935 q 332 876 303 888 q 408 864 361 864 m 343 86 q 240 115 271 86 q 210 207 210 144 q 238 315 210 285 q 349 349 267 344 l 549 361 l 549 171 q 343 86 460 86 m 408 938 q 372 949 385 938 q 358 974 360 961 q 356 1007 356 986 q 358 1041 356 1028 q 372 1066 360 1054 q 408 1078 385 1078 q 446 1066 433 1078 q 461 1041 458 1054 q 464 1007 464 1028 q 461 974 464 986 q 446 949 458 961 q 408 938 433 938 z "},"Ǽ":{"ha":1353,"x_min":4,"x_max":1275,"o":"m 4 0 l 292 0 l 292 94 l 213 94 l 350 458 l 646 458 l 646 94 l 563 94 l 563 0 l 1275 0 l 1275 246 l 1171 246 l 1171 113 l 789 113 l 789 458 l 1158 458 l 1158 572 l 789 572 l 789 901 l 1143 901 l 1143 772 l 1247 772 l 1247 1014 l 425 1014 l 74 94 l 4 94 l 4 0 m 646 901 l 646 572 l 393 572 l 518 901 l 646 901 m 715 1083 l 979 1264 l 901 1367 l 656 1163 l 715 1083 z "},"ǽ":{"ha":1242,"x_min":74,"x_max":1192,"o":"m 867 -19 q 1020 1 958 -19 q 1115 60 1082 21 q 1161 142 1147 100 q 1181 244 1175 185 l 1064 250 q 1018 132 1058 172 q 868 92 978 92 q 706 152 749 92 q 661 361 664 213 l 1192 361 l 1192 397 q 1186 524 1192 471 q 1161 636 1181 578 q 1107 731 1142 694 q 1010 790 1072 767 q 860 814 947 814 q 628 746 710 814 q 403 814 558 814 q 180 751 243 814 q 107 560 117 688 l 224 554 q 265 667 228 632 q 399 703 301 703 q 546 611 526 703 q 525 458 528 549 l 322 446 q 125 379 176 435 q 74 203 74 324 q 128 38 74 94 q 307 -19 182 -19 q 588 89 465 -19 q 867 -19 664 -19 m 858 703 q 1010 643 971 703 q 1053 463 1049 583 l 663 463 q 708 643 667 583 q 858 703 749 703 m 343 86 q 240 115 271 86 q 210 207 210 144 q 238 315 210 285 q 349 349 267 344 l 524 360 q 549 169 526 242 q 343 86 457 86 m 561 864 l 825 1044 l 747 1147 l 501 943 l 561 864 z "},"Ǿ":{"ha":951,"x_min":72,"x_max":879,"o":"m 279 -78 l 374 -78 l 389 -15 q 475 -19 428 -19 q 631 -4 564 -19 q 741 44 697 11 q 813 119 785 78 q 855 225 840 161 q 874 353 869 289 q 879 507 879 417 q 872 690 879 617 q 841 832 864 763 q 771 945 818 901 q 651 1011 724 989 l 672 1090 l 576 1090 l 560 1028 q 475 1033 507 1033 q 338 1021 399 1033 q 235 987 278 1008 q 163 928 193 965 q 116 852 133 892 q 89 753 99 813 q 76 640 79 694 q 72 507 72 585 q 76 357 72 418 q 94 233 81 296 q 131 128 107 169 q 197 53 156 86 q 299 1 239 19 l 279 -78 m 215 507 q 219 649 215 593 q 239 760 224 704 q 282 847 254 815 q 358 897 310 878 q 475 917 406 917 q 531 913 506 917 l 331 128 q 238 256 260 167 q 215 507 215 346 m 475 97 q 419 100 453 97 l 619 885 q 713 756 690 846 q 736 507 736 665 q 731 366 736 422 q 711 254 726 310 q 668 167 696 199 q 592 117 640 136 q 475 97 543 97 m 404 1083 l 668 1264 l 590 1367 l 344 1163 l 404 1083 z "},"ǿ":{"ha":844,"x_min":72,"x_max":772,"o":"m 226 -75 l 321 -75 l 340 -14 q 422 -19 374 -19 q 580 4 514 -19 q 682 64 646 28 q 740 158 718 100 q 767 270 761 217 q 772 397 772 324 q 766 521 772 468 q 742 629 760 574 q 688 724 725 685 q 593 786 650 764 l 619 871 l 524 871 l 504 808 q 422 814 471 814 q 265 790 331 814 q 163 731 199 767 q 105 636 126 694 q 78 524 83 578 q 72 397 72 471 q 108 148 72 246 q 253 7 144 50 l 226 -75 m 213 397 q 215 476 213 444 q 223 547 217 508 q 243 611 229 586 q 279 659 257 636 q 338 692 301 682 q 422 703 374 703 q 469 700 442 703 l 290 126 q 227 226 242 161 q 213 397 213 292 m 422 92 q 375 94 389 92 l 556 667 q 618 566 604 631 q 632 397 632 501 q 630 318 632 350 q 622 247 628 286 q 601 183 615 208 q 565 135 588 158 q 507 102 543 113 q 422 92 471 92 m 375 864 l 639 1044 l 561 1147 l 315 943 l 375 864 z "},"Ș":{"ha":832,"x_min":67,"x_max":767,"o":"m 169 0 l 169 100 q 443 -19 254 -19 q 691 55 615 -19 q 767 274 767 129 q 706 467 767 407 q 497 558 646 528 l 385 581 q 252 634 283 601 q 221 743 221 667 q 263 876 221 833 q 415 919 304 919 q 639 740 621 919 l 742 740 l 742 1014 l 639 1014 l 639 925 q 385 1033 564 1033 q 148 958 218 1033 q 78 740 78 883 q 135 544 78 607 q 339 453 193 482 l 456 431 q 588 376 553 411 q 624 258 624 342 q 574 133 624 172 q 413 94 524 94 q 233 152 294 94 q 169 317 172 210 l 67 317 l 67 0 l 169 0 m 360 -126 q 369 -189 360 -151 q 378 -246 378 -226 q 335 -343 378 -292 l 371 -385 q 506 -131 506 -278 q 432 -49 506 -49 q 360 -126 360 -49 z "},"ș":{"ha":789,"x_min":90,"x_max":703,"o":"m 579 794 l 581 731 q 363 814 510 814 q 158 751 226 814 q 90 589 90 689 q 142 433 90 481 q 308 351 193 385 l 444 317 q 536 273 510 299 q 563 206 563 247 q 397 92 563 92 q 179 286 199 92 l 90 286 l 90 0 l 186 0 l 183 82 q 424 -19 263 -19 q 703 213 703 -19 q 651 360 703 311 q 488 439 600 410 l 351 475 q 259 517 288 492 q 231 589 231 542 q 265 672 231 640 q 375 703 300 703 q 533 665 488 703 q 585 508 578 628 l 675 508 l 675 794 l 579 794 m 339 -126 q 348 -189 339 -151 q 357 -246 357 -226 q 314 -343 357 -292 l 350 -385 q 485 -131 485 -278 q 411 -49 485 -49 q 339 -126 339 -49 z "},"Ț":{"ha":774,"x_min":11,"x_max":763,"o":"m 763 767 l 763 1014 l 11 1014 l 11 767 l 117 767 l 117 903 l 315 903 l 315 94 l 201 94 l 201 0 l 572 0 l 572 94 l 458 94 l 458 903 l 658 903 l 658 767 l 763 767 m 317 -126 q 326 -189 317 -151 q 335 -246 335 -226 q 292 -343 335 -292 l 328 -385 q 463 -131 463 -278 q 389 -49 463 -49 q 317 -126 317 -49 z "},"ț":{"ha":471,"x_min":32,"x_max":463,"o":"m 32 700 l 157 700 l 157 190 q 159 131 157 154 q 170 76 161 107 q 197 26 179 44 q 247 -6 214 7 q 326 -19 281 -19 q 463 6 388 -19 l 446 97 q 372 86 397 86 q 315 111 332 86 q 297 199 297 136 l 297 700 l 443 700 l 443 794 l 297 794 l 297 972 l 157 953 l 157 794 l 32 794 l 32 700 m 179 -126 q 188 -189 179 -151 q 197 -246 197 -226 q 154 -343 197 -292 l 190 -385 q 325 -131 325 -278 q 251 -49 325 -49 q 179 -126 179 -49 z "},"ʼ":{"ha":426,"x_min":118,"x_max":315,"o":"m 154 1065 q 165 1007 154 1042 q 176 958 176 972 q 118 849 176 901 l 157 801 q 227 863 199 835 q 285 948 256 892 q 315 1065 315 1004 q 311 1113 315 1094 q 288 1148 307 1132 q 233 1164 269 1164 q 169 1138 183 1164 q 154 1065 154 1111 z "},"ˆ":{"ha":557,"x_min":64,"x_max":493,"o":"m 128 867 l 278 1003 l 429 867 l 493 931 l 310 1140 l 247 1140 l 64 931 l 128 867 z "},"ˇ":{"ha":515,"x_min":43,"x_max":472,"o":"m 408 1149 l 258 1013 l 107 1149 l 43 1085 l 226 875 l 289 875 l 472 1085 l 408 1149 z "},"ˉ":{"ha":503,"x_min":69,"x_max":433,"o":"m 69 947 l 433 947 l 433 1060 l 69 1060 l 69 947 z "},"˘":{"ha":590,"x_min":113,"x_max":478,"o":"m 478 1088 q 472 1013 478 1043 q 448 951 465 982 q 392 905 431 921 q 294 889 353 889 q 149 942 185 889 q 113 1088 113 994 l 201 1088 q 206 1038 201 1056 q 231 1003 210 1019 q 294 988 253 988 q 358 1003 336 988 q 383 1038 379 1019 q 388 1088 388 1056 l 478 1088 z "},"˙":{"ha":381,"x_min":113,"x_max":290,"o":"m 200 900 q 260 918 239 900 q 286 956 282 936 q 290 1007 290 976 q 286 1059 290 1039 q 260 1097 282 1079 q 200 1115 239 1115 q 142 1097 163 1115 q 117 1059 121 1079 q 113 1007 113 1039 q 115 969 113 985 q 125 936 117 954 q 152 909 133 918 q 200 900 171 900 z "},"˚":{"ha":381,"x_min":61,"x_max":342,"o":"m 200 938 q 164 949 176 938 q 149 974 151 961 q 147 1007 147 986 q 149 1041 147 1028 q 164 1066 151 1054 q 200 1078 176 1078 q 238 1066 225 1078 q 253 1041 250 1054 q 256 1007 256 1028 q 253 974 256 986 q 238 949 250 961 q 200 938 225 938 m 200 864 q 278 876 247 864 q 322 911 308 888 q 338 955 335 935 q 342 1007 342 975 q 338 1060 342 1039 q 322 1104 335 1081 q 278 1140 308 1128 q 200 1151 247 1151 q 124 1140 153 1151 q 81 1104 94 1128 q 65 1060 68 1081 q 61 1007 61 1039 q 65 955 61 975 q 81 911 68 935 q 124 876 94 888 q 200 864 153 864 z "},"˛":{"ha":461,"x_min":58,"x_max":403,"o":"m 333 -150 q 225 -233 294 -233 q 176 -216 193 -233 q 160 -168 160 -199 q 172 -119 160 -139 q 225 -74 185 -99 l 339 0 l 307 54 l 176 -12 q 83 -86 108 -47 q 58 -182 58 -125 q 97 -286 58 -250 q 211 -322 136 -322 q 323 -288 272 -322 q 403 -196 374 -254 l 333 -150 z "},"˜":{"ha":569,"x_min":50,"x_max":519,"o":"m 386 929 q 465 963 432 929 q 519 1075 497 996 l 433 1103 q 408 1056 422 1071 q 371 1042 394 1042 q 285 1067 353 1042 q 183 1092 218 1092 q 105 1058 138 1092 q 50 946 72 1025 l 138 918 q 163 965 149 950 q 200 979 176 979 q 285 954 218 979 q 386 929 351 929 z "},"˝":{"ha":760,"x_min":42,"x_max":718,"o":"m 103 864 l 367 1044 l 289 1147 l 42 943 l 103 864 m 454 864 l 718 1044 l 640 1147 l 393 943 l 454 864 z "},"̀":{"ha":436,"x_min":0,"x_max":0,"o":""},"́":{"ha":436,"x_min":0,"x_max":0,"o":""},"̂":{"ha":557,"x_min":0,"x_max":0,"o":""},"̃":{"ha":569,"x_min":0,"x_max":0,"o":""},"̄":{"ha":492,"x_min":0,"x_max":0,"o":""},"̆":{"ha":590,"x_min":0,"x_max":0,"o":""},"̇":{"ha":381,"x_min":0,"x_max":0,"o":""},"̈":{"ha":428,"x_min":0,"x_max":0,"o":""},"̊":{"ha":381,"x_min":0,"x_max":0,"o":""},"̋":{"ha":760,"x_min":0,"x_max":0,"o":""},"̌":{"ha":515,"x_min":0,"x_max":0,"o":""},"̧":{"ha":415,"x_min":0,"x_max":0,"o":""},"Δ":{"ha":794,"x_min":-17,"x_max":811,"o":"m 319 931 l -17 0 l 811 0 l 475 931 l 319 931 m 397 772 l 635 94 l 158 94 l 397 772 z "},"Ω":{"ha":1036,"x_min":86,"x_max":950,"o":"m 518 833 q 744 760 682 833 q 807 538 807 688 q 767 363 807 426 q 632 275 726 300 l 632 0 l 918 0 l 918 94 l 754 94 l 754 208 q 950 544 950 297 q 849 847 950 743 q 518 950 749 950 q 187 847 288 950 q 86 544 86 743 q 282 208 86 297 l 282 94 l 118 94 l 118 0 l 404 0 l 404 275 q 269 363 310 300 q 229 538 229 426 q 292 760 229 688 q 518 833 354 833 z "},"μ":{"ha":890,"x_min":156,"x_max":811,"o":"m 156 -315 l 156 794 l 296 794 l 296 181 q 529 92 407 92 q 639 128 607 92 q 671 244 671 164 l 671 794 l 811 794 l 811 229 q 756 43 811 106 q 571 -19 701 -19 q 296 69 432 -19 l 296 -315 l 156 -315 z "},"π":{"ha":904,"x_min":86,"x_max":818,"o":"m 86 700 l 169 700 l 169 0 l 310 0 l 310 700 l 593 700 l 593 0 l 733 0 l 733 700 l 818 700 l 818 794 l 86 794 l 86 700 z "},"ऀ":{"ha":0,"x_min":-486,"x_max":49,"o":"m -219 1325 q -288 1305 -267 1325 q -310 1239 -310 1285 q -288 1171 -310 1192 q -219 1150 -267 1150 q -153 1171 -174 1150 q -132 1239 -132 1192 q -153 1305 -132 1285 q -219 1325 -174 1325 m -486 1311 q -218 1560 -486 1560 q 49 1311 49 1560 l -67 1311 q -97 1415 -67 1378 q -218 1453 -126 1453 q -338 1415 -308 1453 q -368 1311 -368 1378 l -486 1311 z "},"ँ":{"ha":0,"x_min":-486,"x_max":49,"o":"m -218 1385 q -149 1405 -171 1385 q -128 1471 -128 1425 q -149 1539 -128 1518 q -218 1560 -171 1560 q -285 1539 -264 1560 q -306 1471 -306 1518 q -285 1405 -306 1425 q -218 1385 -264 1385 m 49 1399 q -219 1150 49 1150 q -486 1399 -486 1150 l -371 1399 q -341 1294 -371 1332 q -219 1257 -311 1257 q -99 1294 -129 1257 q -69 1399 -69 1332 l 49 1399 z "},"ं":{"ha":0,"x_min":-282,"x_max":-104,"o":"m -194 1250 q -126 1271 -147 1250 q -104 1338 -104 1292 q -126 1406 -104 1385 q -194 1426 -147 1426 q -261 1406 -240 1426 q -282 1338 -282 1385 q -261 1271 -282 1292 q -194 1250 -240 1250 z "},"ः":{"ha":517,"x_min":169,"x_max":346,"o":"m 256 626 q 324 647 303 626 q 346 714 346 668 q 325 782 346 761 q 256 803 304 803 q 190 782 210 803 q 169 714 169 761 q 190 647 169 668 q 256 626 210 626 m 256 185 q 324 206 303 185 q 346 272 346 226 q 325 340 346 319 q 256 361 304 361 q 190 340 210 361 q 169 272 169 319 q 190 206 169 226 q 256 185 210 185 z "},"ऄ":{"ha":1190,"x_min":43,"x_max":1204,"o":"m 1042 0 l 1042 919 l 1204 919 l 1204 1014 l 1040 1014 q 1015 1132 1042 1083 q 946 1207 989 1181 q 851 1252 903 1233 q 748 1286 800 1271 q 653 1320 696 1301 q 583 1374 610 1339 q 556 1461 556 1410 l 424 1461 q 472 1310 422 1367 q 591 1228 521 1253 q 732 1184 661 1204 q 853 1124 803 1164 q 903 1014 903 1083 l 738 1014 l 738 919 l 901 919 l 901 597 q 828 553 867 568 q 763 534 789 539 q 691 537 738 529 q 630 549 644 544 q 561 568 615 553 q 668 758 668 636 q 360 1033 668 1033 q 128 963 197 1033 q 60 747 60 892 l 183 747 q 222 876 183 833 q 351 919 261 919 q 488 878 447 919 q 528 760 528 838 q 485 641 528 685 q 356 597 443 597 l 278 597 l 278 492 l 354 492 q 540 326 540 492 q 361 176 540 178 q 227 224 274 178 q 172 379 181 269 l 43 328 q 143 126 63 189 q 365 64 224 64 q 602 132 524 64 q 681 321 681 200 q 658 435 681 383 q 901 485 800 400 l 901 0 l 1042 0 z "},"अ":{"ha":1190,"x_min":43,"x_max":1204,"o":"m 1042 0 l 1042 919 l 1204 919 l 1204 1014 l 738 1014 l 738 919 l 901 919 l 901 597 q 828 553 867 568 q 763 534 789 539 q 691 537 738 529 q 630 549 644 544 q 561 568 615 553 q 668 758 668 636 q 360 1033 668 1033 q 128 963 197 1033 q 60 747 60 892 l 183 747 q 222 876 183 833 q 351 919 261 919 q 488 878 447 919 q 528 760 528 838 q 485 641 528 685 q 356 597 443 597 l 278 597 l 278 492 l 354 492 q 540 326 540 492 q 361 176 540 178 q 227 224 274 178 q 172 379 181 269 l 43 328 q 143 126 63 189 q 365 64 224 64 q 602 132 524 64 q 681 321 681 200 q 658 435 681 383 q 901 485 800 400 l 901 0 l 1042 0 z "},"आ":{"ha":1629,"x_min":43,"x_max":1643,"o":"m 901 597 q 828 553 867 568 q 763 534 789 539 q 691 537 738 529 q 630 549 644 544 q 561 568 615 553 q 668 758 668 636 q 360 1033 668 1033 q 128 963 197 1033 q 60 747 60 892 l 183 747 q 222 876 183 833 q 351 919 261 919 q 488 878 447 919 q 528 760 528 838 q 485 641 528 685 q 356 597 443 597 l 278 597 l 278 492 l 354 492 q 540 326 540 492 q 361 176 540 178 q 227 224 274 178 q 172 379 181 269 l 43 328 q 143 126 63 189 q 365 64 224 64 q 602 132 524 64 q 681 321 681 200 q 658 435 681 383 q 901 485 800 400 l 901 0 l 1042 0 l 1042 919 l 1339 919 l 1339 0 l 1479 0 l 1479 919 l 1643 919 l 1643 1014 l 738 1014 l 738 919 l 901 919 l 901 597 z "},"इ":{"ha":853,"x_min":-14,"x_max":867,"o":"m 531 -178 q 353 -10 419 -101 q 460 -21 406 -21 q 706 53 625 -21 q 786 254 786 126 q 706 450 786 378 q 460 522 625 522 q 294 493 367 522 q 222 600 222 522 q 365 701 222 701 l 704 701 l 704 919 l 867 919 l 867 1014 l -14 1014 l -14 919 l 563 919 l 563 814 l 368 814 q 160 754 229 814 q 90 599 90 694 q 135 457 90 507 q 264 381 179 407 q 428 408 332 408 q 654 254 654 408 q 429 92 654 92 q 286 115 343 92 q 258 264 263 182 q 183 285 221 285 q 112 255 136 285 q 88 185 88 225 q 111 103 88 142 q 178 42 135 64 q 451 -268 253 -117 l 531 -178 z "},"ई":{"ha":847,"x_min":-14,"x_max":892,"o":"m 531 -178 q 353 -10 419 -101 q 460 -21 406 -21 q 706 53 625 -21 q 786 254 786 126 q 706 450 786 378 q 460 522 625 522 q 294 493 367 522 q 222 600 222 522 q 365 701 222 701 l 704 701 l 704 919 l 867 919 l 867 1014 l 688 1014 q 564 1275 564 1146 q 707 1400 564 1400 q 883 1375 792 1400 l 892 1481 q 689 1510 800 1510 q 490 1449 556 1510 q 424 1288 424 1388 q 551 1014 424 1144 l -14 1014 l -14 919 l 563 919 l 563 814 l 368 814 q 160 754 229 814 q 90 599 90 694 q 135 457 90 507 q 264 381 179 407 q 428 408 332 408 q 654 254 654 408 q 429 92 654 92 q 286 115 343 92 q 258 264 263 182 q 183 285 221 285 q 112 255 136 285 q 88 185 88 225 q 111 103 88 142 q 178 42 135 64 q 451 -268 253 -117 l 531 -178 z "},"उ":{"ha":835,"x_min":-14,"x_max":849,"o":"m 61 357 q 428 57 101 57 q 665 128 586 57 q 743 324 743 199 q 592 551 743 494 q 731 761 731 617 q 668 919 731 863 l 849 919 l 849 1014 l -14 1014 l -14 919 l 413 919 q 549 878 508 919 q 590 758 590 836 q 547 643 590 686 q 418 600 504 600 l 325 600 l 325 494 l 417 494 q 553 450 503 494 q 603 325 603 406 q 424 169 603 169 q 197 406 217 169 l 61 357 z "},"ऊ":{"ha":1219,"x_min":-12,"x_max":1233,"o":"m -12 919 l 414 919 q 551 878 510 919 q 592 758 592 836 q 549 643 592 686 q 419 600 506 600 l 325 600 l 325 494 l 418 494 q 554 450 504 494 q 604 325 604 406 q 425 169 604 169 q 197 406 219 169 l 61 357 q 429 57 101 57 q 666 128 588 57 q 744 324 744 199 q 731 414 744 369 q 892 519 760 519 q 1050 343 1050 519 q 1029 238 1050 279 q 943 178 1008 197 l 996 63 q 1120 135 1075 88 q 1178 231 1165 183 q 1190 343 1190 278 q 1178 442 1190 396 q 1135 532 1165 488 q 1047 602 1106 576 q 908 628 989 628 q 685 493 749 628 q 592 553 647 532 q 694 635 656 582 q 732 761 732 689 q 669 919 732 863 l 1233 919 l 1233 1014 l -12 1014 l -12 919 z "},"ऋ":{"ha":1386,"x_min":-14,"x_max":1410,"o":"m 196 571 q 383 681 256 681 q 503 649 454 681 q 622 540 551 617 l 679 478 l 215 228 l 274 115 l 710 378 l 710 0 l 850 0 l 850 410 q 1017 390 910 390 q 1181 413 1097 390 q 1260 240 1244 283 q 1275 165 1275 197 q 1258 99 1275 124 q 1188 75 1240 75 q 1116 108 1133 75 q 1099 211 1099 142 l 965 211 q 972 123 965 158 q 999 52 978 88 q 1065 -1 1019 17 q 1179 -19 1110 -19 q 1302 -4 1253 -19 q 1373 41 1351 11 q 1402 99 1394 71 q 1410 165 1410 126 q 1405 229 1410 203 q 1376 313 1400 256 q 1301 457 1351 369 q 1369 549 1369 496 q 1313 640 1369 603 q 1192 676 1257 676 q 1115 633 1131 676 q 1131 515 1099 589 q 1017 503 1081 503 q 850 525 917 503 l 850 919 l 1400 919 l 1400 1014 l -14 1014 l -14 919 l 710 919 l 710 594 l 689 618 q 532 753 603 713 q 369 794 461 794 q 106 650 193 794 l 196 571 z "},"ऌ":{"ha":1275,"x_min":-14,"x_max":1289,"o":"m -14 919 l 875 919 l 875 728 q 632 636 719 724 q 381 728 538 728 q 155 651 240 728 q 69 413 69 574 q 161 165 69 268 q 443 -21 253 61 l 493 90 q 278 235 347 157 q 210 425 210 314 q 256 568 210 521 q 381 615 301 615 q 563 525 508 615 q 533 344 533 447 l 671 328 q 889 615 671 615 q 1013 568 967 615 q 1058 425 1058 521 q 1016 300 1058 356 q 913 205 974 244 q 793 125 853 165 q 691 22 733 85 q 649 -121 649 -40 q 715 -280 649 -225 q 888 -335 781 -335 q 1121 -276 1004 -335 l 1086 -187 q 915 -239 986 -239 q 820 -208 851 -240 q 789 -121 789 -176 q 819 -37 789 -76 q 895 29 850 1 q 994 94 940 57 q 1092 169 1047 131 q 1168 272 1138 207 q 1199 415 1199 336 q 1015 708 1199 647 l 1015 919 l 1289 919 l 1289 1014 l -14 1014 l -14 919 z "},"ऍ":{"ha":853,"x_min":-14,"x_max":867,"o":"m 603 392 q 706 488 679 425 q 732 643 732 551 l 732 919 l 867 919 l 867 1014 l -14 1014 l -14 919 l 121 919 l 121 517 q 240 224 121 347 q 604 3 360 101 l 649 117 q 356 290 450 194 q 261 517 261 385 l 261 919 l 592 919 l 592 663 q 526 488 592 526 l 603 392 m 667 1399 q 399 1150 667 1150 q 132 1399 132 1150 l 247 1399 q 277 1294 247 1332 q 399 1257 307 1257 q 519 1294 489 1257 q 549 1399 549 1332 l 667 1399 z "},"ऎ":{"ha":853,"x_min":-14,"x_max":867,"o":"m 603 392 q 706 488 679 425 q 732 643 732 551 l 732 919 l 867 919 l 867 1014 l 732 1014 q 707 1132 733 1083 q 638 1207 681 1181 q 543 1252 594 1233 q 440 1286 492 1271 q 344 1320 388 1301 q 274 1374 301 1339 q 247 1461 247 1410 l 115 1461 q 163 1310 114 1367 q 283 1228 213 1253 q 424 1184 353 1204 q 544 1124 494 1164 q 594 1014 594 1083 l -14 1014 l -14 919 l 121 919 l 121 517 q 240 224 121 347 q 604 3 360 101 l 649 117 q 356 290 450 194 q 261 517 261 385 l 261 919 l 592 919 l 592 663 q 526 488 592 526 l 603 392 z "},"ए":{"ha":853,"x_min":-14,"x_max":867,"o":"m 603 392 q 706 488 679 425 q 732 643 732 551 l 732 919 l 867 919 l 867 1014 l -14 1014 l -14 919 l 121 919 l 121 517 q 240 224 121 347 q 604 3 360 101 l 649 117 q 356 290 450 194 q 261 517 261 385 l 261 919 l 592 919 l 592 663 q 526 488 592 526 l 603 392 z "},"ऐ":{"ha":853,"x_min":-14,"x_max":867,"o":"m 603 392 q 706 488 679 425 q 732 643 732 551 l 732 919 l 867 919 l 867 1014 l 722 1014 l 299 1504 l 201 1419 l 578 1014 l -14 1014 l -14 919 l 121 919 l 121 517 q 240 224 121 347 q 604 3 360 101 l 649 117 q 356 290 450 194 q 261 517 261 385 l 261 919 l 592 919 l 592 663 q 526 488 592 526 l 603 392 z "},"ऑ":{"ha":1629,"x_min":43,"x_max":1643,"o":"m 901 597 q 828 553 867 568 q 763 534 789 539 q 691 537 738 529 q 630 549 644 544 q 561 568 615 553 q 668 758 668 636 q 360 1033 668 1033 q 128 963 197 1033 q 60 747 60 892 l 183 747 q 222 876 183 833 q 351 919 261 919 q 488 878 447 919 q 528 760 528 838 q 485 641 528 685 q 356 597 443 597 l 278 597 l 278 492 l 354 492 q 540 326 540 492 q 361 176 540 178 q 227 224 274 178 q 172 379 181 269 l 43 328 q 143 126 63 189 q 365 64 224 64 q 602 132 524 64 q 681 321 681 200 q 658 435 681 383 q 901 485 800 400 l 901 0 l 1042 0 l 1042 919 l 1339 919 l 1339 0 l 1479 0 l 1479 919 l 1643 919 l 1643 1014 l 738 1014 l 738 919 l 901 919 l 901 597 m 1432 1399 q 1164 1150 1432 1150 q 897 1399 897 1150 l 1013 1399 q 1042 1294 1013 1332 q 1164 1257 1072 1257 q 1284 1294 1254 1257 q 1314 1399 1314 1332 l 1432 1399 z "},"ऒ":{"ha":1629,"x_min":43,"x_max":1643,"o":"m 1479 1014 q 1454 1132 1481 1083 q 1385 1207 1428 1181 q 1290 1252 1342 1233 q 1187 1286 1239 1271 q 1092 1320 1135 1301 q 1022 1374 1049 1339 q 994 1461 994 1410 l 863 1461 q 910 1310 861 1367 q 1030 1228 960 1253 q 1171 1184 1100 1204 q 1292 1124 1242 1164 q 1342 1014 1342 1083 l 738 1014 l 738 919 l 901 919 l 901 597 q 828 553 867 568 q 763 534 789 539 q 691 537 738 529 q 630 549 644 544 q 561 568 615 553 q 668 758 668 636 q 360 1033 668 1033 q 128 963 197 1033 q 60 747 60 892 l 183 747 q 222 876 183 833 q 351 919 261 919 q 488 878 447 919 q 528 760 528 838 q 485 641 528 685 q 356 597 443 597 l 278 597 l 278 492 l 354 492 q 540 326 540 492 q 361 176 540 178 q 227 224 274 178 q 172 379 181 269 l 43 328 q 143 126 63 189 q 365 64 224 64 q 602 132 524 64 q 681 321 681 200 q 658 435 681 383 q 901 485 800 400 l 901 0 l 1042 0 l 1042 919 l 1339 919 l 1339 0 l 1479 0 l 1479 919 l 1643 919 l 1643 1014 l 1479 1014 z "},"ओ":{"ha":1629,"x_min":43,"x_max":1643,"o":"m 1471 1014 l 1047 1504 l 950 1419 l 1326 1014 l 738 1014 l 738 919 l 901 919 l 901 597 q 828 553 867 568 q 763 534 789 539 q 691 537 738 529 q 630 549 644 544 q 561 568 615 553 q 668 758 668 636 q 360 1033 668 1033 q 128 963 197 1033 q 60 747 60 892 l 183 747 q 222 876 183 833 q 351 919 261 919 q 488 878 447 919 q 528 760 528 838 q 485 641 528 685 q 356 597 443 597 l 278 597 l 278 492 l 354 492 q 540 326 540 492 q 361 176 540 178 q 227 224 274 178 q 172 379 181 269 l 43 328 q 143 126 63 189 q 365 64 224 64 q 602 132 524 64 q 681 321 681 200 q 658 435 681 383 q 901 485 800 400 l 901 0 l 1042 0 l 1042 919 l 1339 919 l 1339 0 l 1479 0 l 1479 919 l 1643 919 l 1643 1014 l 1471 1014 z "},"औ":{"ha":1629,"x_min":43,"x_max":1643,"o":"m 1485 1014 l 1228 1504 l 1115 1446 l 1318 1125 l 1039 1322 l 968 1221 l 1325 1014 l 738 1014 l 738 919 l 901 919 l 901 597 q 828 553 867 568 q 763 534 789 539 q 691 537 738 529 q 630 549 644 544 q 561 568 615 553 q 668 758 668 636 q 360 1033 668 1033 q 128 963 197 1033 q 60 747 60 892 l 183 747 q 222 876 183 833 q 351 919 261 919 q 488 878 447 919 q 528 760 528 838 q 485 641 528 685 q 356 597 443 597 l 278 597 l 278 492 l 354 492 q 540 326 540 492 q 361 176 540 178 q 227 224 274 178 q 172 379 181 269 l 43 328 q 143 126 63 189 q 365 64 224 64 q 602 132 524 64 q 681 321 681 200 q 658 435 681 383 q 901 485 800 400 l 901 0 l 1042 0 l 1042 919 l 1339 919 l 1339 0 l 1479 0 l 1479 919 l 1643 919 l 1643 1014 l 1485 1014 z "},"क":{"ha":1229,"x_min":-14,"x_max":1243,"o":"m -14 919 l 565 919 l 565 397 q 492 310 542 342 q 388 278 443 278 q 222 468 222 278 q 259 606 222 556 q 388 656 296 656 q 492 635 444 656 l 514 736 q 364 764 443 764 q 90 474 90 764 q 372 169 90 169 q 565 236 485 169 l 565 0 l 706 0 l 706 535 q 769 622 725 590 q 869 653 814 653 q 978 607 947 653 q 1010 474 1010 561 q 933 210 1010 322 l 1047 156 q 1140 474 1140 304 q 1131 585 1140 538 q 1096 675 1121 632 q 1021 741 1071 718 q 896 764 971 764 q 706 700 783 764 l 706 919 l 1243 919 l 1243 1014 l -14 1014 l -14 919 z "},"ख":{"ha":1476,"x_min":-14,"x_max":1490,"o":"m -14 919 l 519 919 l 519 693 q 516 621 519 649 q 499 564 513 593 q 458 521 486 535 q 383 507 429 507 q 278 552 315 507 q 225 685 242 597 l 104 685 q 155 433 114 554 q 268 209 196 313 q 456 43 340 106 q 717 -19 572 -19 q 1186 114 958 -19 l 1186 0 l 1328 0 l 1328 919 l 1490 919 l 1490 1014 l -14 1014 l -14 919 m 1010 304 q 1186 333 1108 304 l 1186 232 q 717 92 963 92 q 449 181 558 92 q 282 414 339 269 q 382 394 328 394 q 528 418 471 394 q 613 488 586 442 q 650 580 640 533 q 660 693 660 626 l 660 919 l 1186 919 l 1186 442 q 1032 411 1118 411 q 927 449 963 411 q 892 550 892 486 q 926 650 892 613 q 1029 688 960 688 q 1118 672 1075 688 l 1138 772 q 1001 794 1076 794 q 812 729 872 794 q 751 553 751 664 q 814 372 751 439 q 1010 304 876 304 z "},"ग":{"ha":914,"x_min":-14,"x_max":928,"o":"m -14 919 l 169 919 l 169 574 l 117 574 q 69 518 69 574 q 138 395 69 442 q 269 349 206 349 q 310 388 310 349 l 310 919 l 624 919 l 624 0 l 764 0 l 764 919 l 928 919 l 928 1014 l -14 1014 l -14 919 z "},"घ":{"ha":954,"x_min":-14,"x_max":968,"o":"m 968 1014 l -14 1014 l -14 919 l 150 919 q 106 796 106 874 q 140 688 106 736 q 233 613 175 640 q 93 403 93 553 q 163 210 93 279 q 381 140 233 140 q 664 300 568 140 l 664 0 l 806 0 l 806 919 l 968 919 l 968 1014 m 664 919 l 664 551 q 587 338 664 422 q 397 253 510 253 q 236 406 236 253 q 281 521 236 478 q 399 564 326 564 l 460 564 l 460 658 l 393 658 q 283 694 319 658 q 247 788 247 729 q 389 919 247 919 l 664 919 z "},"ङ":{"ha":1046,"x_min":-14,"x_max":1060,"o":"m 458 28 q 702 93 619 28 q 785 269 785 158 q 704 453 785 383 q 460 522 624 522 q 292 494 363 522 q 222 600 222 524 q 365 701 222 701 l 704 701 l 704 919 l 1060 919 l 1060 1014 l -14 1014 l -14 919 l 563 919 l 563 814 l 367 814 q 159 754 228 814 q 90 599 90 694 q 264 381 90 435 q 426 408 329 408 q 653 278 653 408 q 458 140 653 140 q 144 285 267 140 l 54 208 q 458 28 208 28 m 907 490 q 976 511 954 490 q 997 578 997 532 q 976 646 997 625 q 907 667 954 667 q 840 646 861 667 q 819 578 819 625 q 840 511 819 532 q 907 490 861 490 z "},"च":{"ha":953,"x_min":-14,"x_max":967,"o":"m 532 725 l 18 725 l 18 633 l 242 633 q 135 446 135 571 q 201 274 135 344 q 421 204 268 204 q 664 275 563 204 l 664 0 l 804 0 l 804 919 l 967 919 l 967 1014 l -14 1014 l -14 919 l 664 919 l 664 392 q 433 317 565 317 q 313 356 353 317 q 274 457 274 394 q 506 633 274 633 l 532 633 l 532 725 z "},"छ":{"ha":1075,"x_min":-14,"x_max":1089,"o":"m 1089 1014 l -14 1014 l -14 919 l 132 919 q 72 778 72 865 q 115 659 72 711 q 228 578 157 607 q 71 339 71 514 q 156 135 71 208 q 410 63 240 63 q 690 119 546 63 q 938 283 833 175 q 1042 515 1042 390 q 1008 688 1042 624 q 871 768 974 751 l 871 919 l 1089 919 l 1089 1014 m 731 767 q 599 685 632 749 q 567 515 567 621 q 597 351 567 415 q 722 249 628 286 q 414 175 583 175 q 211 340 211 175 q 265 478 211 428 q 415 528 319 528 l 464 528 l 464 622 l 401 622 q 260 664 308 622 q 213 769 213 706 q 256 879 213 840 q 401 919 299 918 l 731 919 l 731 767 m 693 515 q 694 567 693 547 q 702 610 696 588 q 719 646 708 633 q 751 667 731 658 q 803 676 772 676 q 864 665 840 676 q 898 628 888 654 q 911 579 908 603 q 914 515 914 556 q 825 322 914 407 q 752 353 781 335 q 712 400 724 372 q 697 452 700 428 q 693 515 693 476 z "},"ज":{"ha":1163,"x_min":-14,"x_max":1176,"o":"m 410 290 q 111 479 226 290 l 11 404 q 411 176 165 176 q 721 426 721 176 q 617 606 721 546 l 875 606 l 875 0 l 1017 0 l 1017 919 l 1176 919 l 1176 1014 l -14 1014 l -14 919 l 875 919 l 875 697 l 361 697 l 361 606 q 531 557 482 606 q 581 442 581 508 q 410 290 581 290 z "},"झ":{"ha":1021,"x_min":-14,"x_max":1035,"o":"m 424 -39 q 283 100 336 25 q 317 99 294 99 q 544 167 467 99 q 621 349 621 235 q 589 465 621 414 q 732 474 667 465 l 732 0 l 872 0 l 872 919 l 1035 919 l 1035 1014 l -14 1014 l -14 919 l 389 919 l 389 815 l 271 815 q 85 767 147 815 q 22 643 22 718 q 176 450 22 503 q 306 477 238 474 q 427 449 374 481 q 481 349 481 417 q 308 208 481 208 q 221 218 258 208 q 199 361 199 289 q 58 350 111 406 q 35 236 14 304 q 122 140 54 174 q 338 -122 185 3 l 424 -39 m 271 721 l 529 721 l 529 919 l 732 919 l 732 568 q 440 569 574 549 q 219 561 338 594 q 178 593 194 571 q 163 643 163 615 q 188 699 163 676 q 271 721 214 721 z "},"ञ":{"ha":1163,"x_min":-14,"x_max":1176,"o":"m 193 578 q 329 601 256 601 q 445 558 404 601 q 486 450 486 515 q 444 341 486 383 q 325 299 403 299 q 64 390 183 299 l 10 289 q 329 186 150 186 q 535 244 465 186 q 621 393 606 301 q 874 397 749 382 l 874 0 l 1014 0 l 1014 919 l 1176 919 l 1176 1014 l -14 1014 l -14 919 l 874 919 l 874 492 q 624 488 750 476 q 542 651 613 588 q 329 715 472 715 q 157 685 238 715 l 193 578 z "},"ट":{"ha":853,"x_min":-14,"x_max":867,"o":"m 704 919 l 867 919 l 867 1014 l 704 1014 l -14 1014 l -14 919 l 563 919 l 563 711 l 446 711 q 65 389 65 711 q 151 110 65 199 q 424 22 236 22 q 588 44 521 22 q 693 110 656 65 q 748 207 731 154 q 772 335 765 260 l 653 335 q 594 185 646 238 q 422 133 543 133 q 257 195 308 133 q 206 389 206 257 q 447 599 206 599 l 704 599 l 704 919 z "},"ठ":{"ha":918,"x_min":-14,"x_max":932,"o":"m -14 919 l 467 919 l 467 711 l 432 711 q 65 399 65 711 q 158 113 65 203 q 451 22 250 22 q 756 113 661 22 q 851 399 851 203 q 607 701 851 656 l 607 919 l 932 919 l 932 1014 l -14 1014 l -14 919 m 451 133 q 263 197 321 133 q 206 399 206 261 q 433 599 206 599 l 496 599 q 649 551 588 599 q 711 399 711 504 q 650 197 711 261 q 451 133 589 133 z "},"ड":{"ha":853,"x_min":-14,"x_max":867,"o":"m 365 701 l 704 701 l 704 919 l 867 919 l 867 1014 l -14 1014 l -14 919 l 563 919 l 563 814 l 368 814 q 160 754 229 814 q 90 599 90 694 q 264 381 90 436 q 428 408 332 408 q 654 278 654 408 q 458 140 654 140 q 144 285 269 140 l 56 208 q 460 28 210 28 q 703 93 621 28 q 786 269 786 158 q 706 453 786 383 q 460 522 625 522 q 293 494 361 522 q 222 600 222 525 q 365 701 222 701 z "},"ढ":{"ha":913,"x_min":-14,"x_max":926,"o":"m 835 335 q 828 416 835 383 q 799 482 821 449 q 732 532 778 515 q 615 549 686 549 q 499 532 544 549 q 433 482 454 515 q 406 416 413 449 q 399 335 399 383 q 416 217 399 265 q 483 133 433 168 l 451 133 q 269 200 325 133 q 213 408 213 267 q 269 590 213 539 q 464 640 325 640 l 750 640 l 750 1014 l -14 1014 l -14 919 l 610 919 l 610 753 l 463 753 q 163 673 253 753 q 72 408 72 593 q 163 115 72 208 q 453 22 254 22 q 835 335 835 22 m 525 335 q 541 424 525 396 q 615 451 557 451 q 690 424 672 451 q 707 335 707 396 q 639 182 707 232 q 576 206 600 192 q 541 241 551 219 q 528 282 531 263 q 525 335 525 301 m 750 919 l 926 919 l 926 1014 l 750 1014 l 750 919 z "},"ण":{"ha":1296,"x_min":-14,"x_max":1310,"o":"m -14 919 l 121 919 l 121 619 q 131 507 121 553 q 170 415 140 461 q 265 346 200 369 q 428 322 329 322 q 592 346 528 322 q 687 415 657 369 q 726 507 717 461 q 736 619 736 553 l 736 919 l 1006 919 l 1006 0 l 1147 0 l 1147 919 l 1310 919 l 1310 1014 l -14 1014 l -14 919 m 596 919 l 596 619 q 591 547 596 575 q 571 490 586 519 q 520 447 556 461 q 429 433 485 433 q 292 481 324 433 q 261 619 261 528 l 261 919 l 596 919 z "},"त":{"ha":961,"x_min":-14,"x_max":975,"o":"m 975 1014 l -14 1014 l -14 919 l 672 919 l 672 711 l 429 711 q 174 647 251 711 q 97 436 97 583 q 393 -19 97 153 l 461 83 q 238 449 238 224 q 284 576 238 536 q 429 617 331 617 l 672 617 l 672 0 l 813 0 l 813 919 l 975 919 l 975 1014 z "},"थ":{"ha":1011,"x_min":33,"x_max":1025,"o":"m 721 0 l 861 0 l 861 919 l 1025 919 l 1025 1014 l 592 1014 l 592 919 l 721 919 l 721 368 q 440 264 600 264 q 182 451 219 264 q 456 553 356 465 q 557 792 557 640 q 499 968 557 903 q 322 1033 440 1033 q 141 978 203 1033 q 79 831 79 922 q 181 633 79 694 l 264 728 q 214 839 214 761 q 241 913 214 886 q 314 939 268 939 q 421 789 421 939 q 358 611 421 675 q 128 543 296 547 l 33 543 q 134 255 33 358 q 436 151 235 151 q 721 250 601 151 l 721 0 z "},"द":{"ha":853,"x_min":-14,"x_max":867,"o":"m 704 919 l 867 919 l 867 1014 l -14 1014 l -14 919 l 563 919 l 563 749 l 432 749 q 149 685 233 749 q 65 469 65 622 q 148 235 65 310 q 408 161 231 161 q 542 176 469 161 l 663 -74 l 789 -12 l 665 219 q 732 311 732 258 q 676 402 732 365 q 556 439 621 439 q 477 395 493 439 q 493 278 461 351 q 421 272 465 272 q 256 320 307 272 q 206 469 206 368 q 258 612 206 569 q 433 654 310 654 l 704 654 l 704 919 z "},"ध":{"ha":969,"x_min":50,"x_max":993,"o":"m 185 814 q 215 903 185 868 q 299 939 244 939 q 369 914 342 939 q 396 849 396 889 q 336 736 396 774 l 425 658 q 531 849 531 729 q 470 981 531 929 q 299 1033 410 1033 q 115 969 181 1033 q 50 814 50 904 q 194 540 50 639 q 104 353 104 478 q 174 176 104 240 q 386 113 244 113 q 689 214 556 113 l 689 0 l 831 0 l 831 919 l 993 919 l 993 1014 l 618 1014 l 618 919 l 689 919 l 689 331 q 397 226 568 226 q 283 262 321 226 q 244 358 244 297 q 294 464 244 425 q 442 503 344 503 l 539 503 l 539 597 l 432 597 q 315 588 364 597 q 185 814 185 653 z "},"न":{"ha":908,"x_min":-14,"x_max":922,"o":"m 124 596 q 81 583 93 596 q 68 540 68 571 q 135 412 68 464 q 257 360 203 360 q 297 399 297 360 l 297 501 l 619 501 l 619 0 l 760 0 l 760 919 l 922 919 l 922 1014 l -14 1014 l -14 919 l 619 919 l 619 596 l 124 596 z "},"ऩ":{"ha":908,"x_min":-14,"x_max":922,"o":"m 124 596 q 81 583 93 596 q 68 540 68 571 q 135 412 68 464 q 257 360 203 360 q 297 399 297 360 l 297 501 l 619 501 l 619 0 l 760 0 l 760 919 l 922 919 l 922 1014 l -14 1014 l -14 919 l 619 919 l 619 596 l 124 596 m 182 -19 q 251 1 231 -19 q 272 67 272 21 q 251 135 272 114 q 182 156 231 156 q 116 135 136 156 q 96 67 96 114 q 116 1 96 21 q 182 -19 136 -19 z "},"प":{"ha":886,"x_min":-14,"x_max":900,"o":"m 596 0 l 736 0 l 736 919 l 900 919 l 900 1014 l -14 1014 l -14 919 l 121 919 l 121 619 q 130 507 121 553 q 165 415 139 461 q 247 346 190 369 q 390 322 304 322 q 596 381 529 322 l 596 0 m 429 433 q 292 481 324 433 q 261 619 261 528 l 261 919 l 596 919 l 596 619 q 591 547 596 575 q 571 490 586 519 q 520 447 556 461 q 429 433 485 433 z "},"फ":{"ha":1260,"x_min":-14,"x_max":1274,"o":"m 596 0 l 736 0 l 736 535 q 800 622 756 590 q 900 653 844 653 q 1009 607 978 653 q 1040 474 1040 561 q 964 210 1040 322 l 1078 156 q 1171 474 1171 304 q 1161 585 1171 538 q 1126 675 1151 632 q 1051 741 1101 718 q 926 764 1001 764 q 736 699 815 764 l 736 919 l 1274 919 l 1274 1014 l -14 1014 l -14 919 l 121 919 l 121 642 q 126 539 121 582 q 147 449 131 496 q 193 372 164 401 q 274 324 222 343 q 396 306 325 306 q 596 368 518 306 l 596 0 m 424 418 q 337 435 371 418 q 288 485 303 451 q 267 553 272 518 q 261 642 261 589 l 261 919 l 596 919 l 596 507 q 424 418 549 418 z "},"ब":{"ha":856,"x_min":-14,"x_max":869,"o":"m -14 919 l 565 919 l 565 397 q 550 368 563 390 l 383 656 l 388 656 q 492 635 444 656 l 514 736 q 364 764 443 764 q 90 474 90 764 q 372 169 90 169 q 565 236 485 169 l 565 0 l 706 0 l 706 919 l 869 919 l 869 1014 l -14 1014 l -14 919 m 388 278 q 222 468 222 278 q 289 632 222 590 l 479 301 q 388 278 436 278 z "},"भ":{"ha":1085,"x_min":42,"x_max":1099,"o":"m 353 807 l 353 544 l 289 544 q 255 532 264 544 q 246 488 246 519 q 319 362 246 417 q 446 307 393 307 q 486 346 486 307 l 486 450 l 796 450 l 796 0 l 936 0 l 936 919 l 1099 919 l 1099 1014 l 649 1014 l 649 919 l 796 919 l 796 544 l 486 544 l 486 807 q 264 1033 486 1033 q 42 833 42 1033 q 74 717 42 768 q 171 640 107 667 l 233 724 q 176 832 176 756 q 264 939 176 939 q 353 807 353 939 z "},"म":{"ha":933,"x_min":-14,"x_max":947,"o":"m 308 919 l 644 919 l 644 558 l 308 558 l 308 919 m 168 919 l 168 558 l 111 558 q 77 546 86 558 q 68 501 68 533 q 142 376 68 431 q 268 321 215 321 q 308 360 308 321 l 308 464 l 644 464 l 644 0 l 785 0 l 785 919 l 947 919 l 947 1014 l -14 1014 l -14 919 l 168 919 z "},"य":{"ha":951,"x_min":-14,"x_max":965,"o":"m 408 193 q 663 286 554 193 l 663 0 l 803 0 l 803 919 l 965 919 l 965 1014 l -14 1014 l -14 919 l 117 919 q 283 751 283 914 q 246 628 283 672 q 111 585 208 585 l 46 585 q 134 296 46 399 q 408 193 222 193 m 424 754 q 360 919 424 860 l 663 919 l 663 403 q 413 306 556 306 q 193 496 224 306 q 362 578 300 513 q 424 754 424 644 z "},"र":{"ha":774,"x_min":-14,"x_max":788,"o":"m -14 919 l 503 919 l 503 693 q 499 621 503 649 q 485 564 496 593 q 449 521 474 535 q 383 507 424 507 q 224 674 246 507 q 222 685 222 678 l 92 685 q 228 278 111 446 q 589 -19 346 111 l 636 93 q 297 408 393 226 q 382 394 333 394 q 520 418 465 394 q 600 488 575 442 q 634 580 625 533 q 643 693 643 626 l 643 919 l 788 919 l 788 1014 l -14 1014 l -14 919 z "},"ऱ":{"ha":774,"x_min":-14,"x_max":788,"o":"m -14 919 l 503 919 l 503 693 q 499 621 503 649 q 485 564 496 593 q 449 521 474 535 q 383 507 424 507 q 224 674 246 507 q 222 685 222 678 l 92 685 q 228 278 111 446 q 589 -19 346 111 l 636 93 q 297 408 393 226 q 382 394 333 394 q 520 418 465 394 q 600 488 575 442 q 634 580 625 533 q 643 693 643 626 l 643 919 l 788 919 l 788 1014 l -14 1014 l -14 919 m 110 -19 q 179 1 158 -19 q 200 67 200 21 q 179 135 200 114 q 110 156 158 156 q 44 135 64 156 q 24 67 24 114 q 44 1 24 21 q 110 -19 64 -19 z "},"ल":{"ha":1164,"x_min":-14,"x_max":1178,"o":"m -14 919 l 875 919 l 875 728 q 632 636 719 724 q 381 728 538 728 q 155 651 240 728 q 69 413 69 574 q 161 165 69 268 q 443 -21 253 61 l 493 90 q 278 235 347 157 q 210 425 210 314 q 256 568 210 521 q 381 615 301 615 q 563 525 508 615 q 533 344 533 447 l 671 328 q 875 615 671 606 l 875 0 l 1015 0 l 1015 919 l 1178 919 l 1178 1014 l -14 1014 l -14 919 z "},"ळ":{"ha":1131,"x_min":-14,"x_max":1144,"o":"m -14 919 l 733 919 l 733 707 q 568 604 611 693 q 360 711 511 711 q 138 647 218 711 q 58 424 58 583 q 130 199 58 261 q 340 136 201 136 q 484 160 432 136 q 565 240 536 185 q 772 136 621 136 q 994 200 915 136 q 1074 424 1074 264 q 1023 625 1074 560 q 874 706 972 690 l 874 919 l 1144 919 l 1144 1014 l -14 1014 l -14 919 m 606 375 l 618 460 q 665 567 629 535 q 771 599 700 599 q 892 560 851 599 q 933 422 933 521 q 891 286 933 324 q 767 249 849 249 q 604 368 642 249 q 606 372 606 369 q 606 375 606 374 m 513 379 q 466 278 500 308 q 363 249 432 249 q 241 286 282 249 q 200 422 200 324 q 242 560 200 521 q 367 599 285 599 q 528 475 489 599 l 528 472 l 513 379 z "},"ऴ":{"ha":1131,"x_min":-14,"x_max":1144,"o":"m -14 919 l 733 919 l 733 707 q 568 604 611 693 q 360 711 511 711 q 138 647 218 711 q 58 424 58 583 q 130 199 58 261 q 340 136 201 136 q 484 160 432 136 q 565 240 536 185 q 772 136 621 136 q 994 200 915 136 q 1074 424 1074 264 q 1023 625 1074 560 q 874 706 972 690 l 874 919 l 1144 919 l 1144 1014 l -14 1014 l -14 919 m 606 375 l 618 460 q 665 567 629 535 q 771 599 700 599 q 892 560 851 599 q 933 422 933 521 q 891 286 933 324 q 767 249 849 249 q 604 368 642 249 q 606 372 606 369 q 606 375 606 374 m 513 379 q 466 278 500 308 q 363 249 432 249 q 241 286 282 249 q 200 422 200 324 q 242 560 200 521 q 367 599 285 599 q 528 475 489 599 l 528 472 l 513 379 m 339 -114 q 408 -94 388 -114 q 429 -28 429 -74 q 408 40 429 19 q 339 61 388 61 q 273 40 293 61 q 253 -28 253 19 q 273 -94 253 -74 q 339 -114 293 -114 z "},"व":{"ha":856,"x_min":-14,"x_max":869,"o":"m -14 919 l 565 919 l 565 397 q 492 310 542 342 q 388 278 443 278 q 222 468 222 278 q 259 606 222 556 q 388 656 296 656 q 492 635 444 656 l 514 736 q 364 764 443 764 q 90 474 90 764 q 372 169 90 169 q 565 236 485 169 l 565 0 l 706 0 l 706 919 l 869 919 l 869 1014 l -14 1014 l -14 919 z "},"श":{"ha":1082,"x_min":72,"x_max":1096,"o":"m 674 0 l 343 375 q 553 545 488 451 q 618 768 618 639 q 549 957 618 882 q 343 1032 481 1032 q 144 972 207 1032 q 82 826 82 913 q 175 640 82 725 l 288 701 q 221 822 221 761 q 249 894 221 864 q 342 925 276 925 q 445 883 410 925 q 481 764 481 840 q 426 597 481 665 q 256 475 372 528 l 235 499 q 164 539 201 539 q 96 492 119 539 q 72 376 72 446 q 86 307 72 336 q 139 292 100 278 l 222 322 l 519 0 l 674 0 m 793 919 l 793 0 l 933 0 l 933 919 l 1096 919 l 1096 1014 l 678 1014 l 678 919 l 793 919 z "},"ष":{"ha":886,"x_min":-14,"x_max":900,"o":"m 596 0 l 736 0 l 736 919 l 900 919 l 900 1014 l -14 1014 l -14 919 l 121 919 l 121 619 q 130 507 121 553 q 165 415 139 461 q 247 346 190 369 q 390 322 304 322 q 596 381 529 322 l 596 0 m 596 919 l 596 597 q 585 521 593 551 l 332 919 l 596 919 m 429 433 q 292 481 324 433 q 261 619 261 528 l 261 854 l 519 449 q 429 433 485 433 z "}}}
